Eczar-SemiBold.ufo
<glyph name="quotedbl" format="1">
  <advance width="409"/>
  <unicode hex="0022"/>
  <outline>
    <contour>
      <point x="104" y="419" type="line"/>
      <point x="169" y="510"/>
      <point x="201" y="641"/>
      <point x="197" y="674" type="curve"/>
      <point x="99" y="694" type="line"/>
      <point x="59" y="655" type="line"/>
      <point x="60" y="616"/>
      <point x="50" y="534"/>
      <point x="17" y="450" type="curve"/>
    </contour>
    <contour>
      <point x="312" y="419" type="line"/>
      <point x="377" y="510"/>
      <point x="409" y="641"/>
      <point x="405" y="674" type="curve"/>
      <point x="307" y="694" type="line"/>
      <point x="267" y="655" type="line"/>
      <point x="268" y="616"/>
      <point x="258" y="534"/>
      <point x="225" y="450" type="curve"/>
    </contour>
  </outline>
</glyph>
<glyph name="dollar" format="1">
  <advance width="576"/>
  <unicode hex="0024"/>
  <outline>
    <contour>
      <point x="254" y="633" type="line"/>
      <point x="356" y="633" type="line"/>
      <point x="356" y="785" type="line"/>
      <point x="254" y="785" type="line"/>
    </contour>
    <contour>
      <point x="357" y="-145" type="line"/>
      <point x="357" y="35" type="line"/>
      <point x="254" y="35" type="line"/>
      <point x="254" y="-145" type="line"/>
    </contour>
    <component base="S"/>
  </outline>
</glyph>
<glyph name="percent" format="1">
  <advance width="828"/>
  <unicode hex="0025"/>
  <outline>
    <contour>
      <point x="146" y="24" type="line"/>
      <point x="211" y="-29" type="line"/>
      <point x="664" y="543" type="line"/>
      <point x="600" y="595" type="line"/>
    </contour>
    <contour>
      <point x="206" y="271" type="curve"/>
      <point x="292" y="271"/>
      <point x="355" y="343"/>
      <point x="355" y="431" type="curve"/>
      <point x="355" y="523"/>
      <point x="287" y="600"/>
      <point x="201" y="600" type="curve"/>
      <point x="115" y="600"/>
      <point x="48" y="522"/>
      <point x="48" y="434" type="curve"/>
      <point x="48" y="343"/>
      <point x="120" y="271"/>
    </contour>
    <contour>
      <point x="228" y="350" type="curve"/>
      <point x="167" y="340"/>
      <point x="139" y="387"/>
      <point x="139" y="436" type="curve"/>
      <point x="139" y="466"/>
      <point x="150" y="496"/>
      <point x="169" y="516" type="curve"/>
      <point x="231" y="534"/>
      <point x="262" y="484"/>
      <point x="262" y="432" type="curve"/>
      <point x="262" y="401"/>
      <point x="251" y="368"/>
    </contour>
    <contour>
      <point x="631" y="-20" type="curve"/>
      <point x="717" y="-20"/>
      <point x="780" y="52"/>
      <point x="780" y="140" type="curve"/>
      <point x="780" y="231"/>
      <point x="712" y="309"/>
      <point x="626" y="309" type="curve"/>
      <point x="540" y="309"/>
      <point x="473" y="230"/>
      <point x="473" y="143" type="curve"/>
      <point x="473" y="52"/>
      <point x="545" y="-20"/>
    </contour>
    <contour>
      <point x="653" y="58" type="curve"/>
      <point x="592" y="49"/>
      <point x="564" y="95"/>
      <point x="564" y="144" type="curve"/>
      <point x="564" y="175"/>
      <point x="575" y="205"/>
      <point x="594" y="225" type="curve"/>
      <point x="656" y="242"/>
      <point x="687" y="193"/>
      <point x="687" y="141" type="curve"/>
      <point x="687" y="109"/>
      <point x="676" y="77"/>
    </contour>
  </outline>
</glyph>
<glyph name="parenleft" format="1">
  <advance width="331"/>
  <unicode hex="0028"/>
  <outline>
    <contour>
      <point x="208" y="-155" type="curve"/>
      <point x="294" y="-108" type="line"/>
      <point x="222" y="27"/>
      <point x="176" y="165"/>
      <point x="176" y="305" type="curve"/>
      <point x="176" y="427"/>
      <point x="215" y="555"/>
      <point x="299" y="686" type="curve"/>
      <point x="215" y="732" type="line"/>
      <point x="85" y="590"/>
      <point x="28" y="444"/>
      <point x="28" y="300" type="curve"/>
      <point x="28" y="136"/>
      <point x="96" y="-16"/>
    </contour>
  </outline>
</glyph>
<glyph name="parenright" format="1">
  <advance width="330"/>
  <unicode hex="0029"/>
  <outline>
    <contour>
      <point x="36" y="-108" type="curve"/>
      <point x="122" y="-155" type="line"/>
      <point x="234" y="-16"/>
      <point x="302" y="136"/>
      <point x="302" y="300" type="curve"/>
      <point x="302" y="444"/>
      <point x="245" y="590"/>
      <point x="115" y="732" type="curve"/>
      <point x="31" y="686" type="line"/>
      <point x="115" y="555"/>
      <point x="154" y="427"/>
      <point x="154" y="305" type="curve"/>
      <point x="154" y="165"/>
      <point x="108" y="27"/>
    </contour>
  </outline>
</glyph>
<glyph name="asterisk" format="1">
  <advance width="402"/>
  <unicode hex="002A"/>
  <outline>
    <contour>
      <point x="51" y="679" type="line"/>
      <point x="137" y="591" type="line"/>
      <point x="170" y="628" type="line"/>
      <point x="112" y="768" type="line"/>
    </contour>
    <contour>
      <point x="226" y="750" type="line"/>
      <point x="167" y="641" type="line"/>
      <point x="213" y="620" type="line"/>
      <point x="329" y="717" type="line"/>
    </contour>
    <contour>
      <point x="351" y="605" type="line"/>
      <point x="229" y="626" type="line"/>
      <point x="224" y="577" type="line"/>
      <point x="352" y="498" type="line"/>
    </contour>
    <contour>
      <point x="252" y="443" type="line"/>
      <point x="235" y="566" type="line"/>
      <point x="186" y="556" type="line"/>
      <point x="149" y="409" type="line"/>
    </contour>
    <contour>
      <point x="67" y="491" type="line"/>
      <point x="180" y="546" type="line"/>
      <point x="154" y="589" type="line"/>
      <point x="4" y="580" type="line"/>
    </contour>
  </outline>
</glyph>
<glyph name="plus" format="1">
  <advance width="570"/>
  <unicode hex="002B"/>
  <outline>
    <contour>
      <point x="237" y="205" type="line"/>
      <point x="237" y="16" type="line"/>
      <point x="334" y="16" type="line"/>
      <point x="334" y="205" type="line"/>
      <point x="514" y="205" type="line"/>
      <point x="514" y="293" type="line"/>
      <point x="334" y="293" type="line"/>
      <point x="334" y="482" type="line"/>
      <point x="237" y="482" type="line"/>
      <point x="237" y="293" type="line"/>
      <point x="56" y="293" type="line"/>
      <point x="56" y="205" type="line"/>
    </contour>
  </outline>
</glyph>
<glyph name="comma" format="1">
  <advance width="287"/>
  <unicode hex="002C"/>
  <outline>
    <contour>
      <point x="84" y="-143" type="line"/>
      <point x="167" y="-104"/>
      <point x="230" y="-23"/>
      <point x="230" y="48" type="curve" smooth="yes"/>
      <point x="230" y="96"/>
      <point x="200" y="139"/>
      <point x="141" y="161" type="curve"/>
      <point x="100" y="139"/>
      <point x="69" y="106"/>
      <point x="62" y="57" type="curve"/>
      <point x="115" y="14" type="line"/>
      <point x="112" y="-21"/>
      <point x="87" y="-62"/>
      <point x="46" y="-97" type="curve"/>
    </contour>
  </outline>
</glyph>
<glyph name="hyphen" format="1">
  <advance width="427"/>
  <unicode hex="002D"/>
  <outline>
    <contour>
      <point x="32" y="308" type="line"/>
      <point x="80" y="231" type="line"/>
      <point x="367" y="231" type="line"/>
      <point x="384" y="266" type="line"/>
      <point x="336" y="342" type="line"/>
      <point x="49" y="342" type="line"/>
    </contour>
  </outline>
</glyph>
<glyph name="period" format="1">
  <advance width="260"/>
  <unicode hex="002E"/>
  <outline>
    <contour>
      <point x="187" y="-39" type="curve"/>
      <point x="216" y="-19"/>
      <point x="247" y="21"/>
      <point x="260" y="55" type="curve"/>
      <point x="242" y="80"/>
      <point x="202" y="116"/>
      <point x="168" y="129" type="curve"/>
      <point x="139" y="112"/>
      <point x="110" y="72"/>
      <point x="91" y="35" type="curve"/>
      <point x="111" y="7"/>
      <point x="157" y="-27"/>
    </contour>
  </outline>
</glyph>
<glyph name="slash" format="1">
  <advance width="416"/>
  <unicode hex="002F"/>
  <outline>
    <contour>
      <point x="20" y="-85" type="line"/>
      <point x="111" y="-122" type="line"/>
      <point x="417" y="684" type="line"/>
      <point x="328" y="723" type="line"/>
    </contour>
  </outline>
</glyph>
<glyph name="zero" format="1">
  <advance width="589"/>
  <unicode hex="0030"/>
  <outline>
    <contour>
      <point x="293" y="-14" type="curve"/>
      <point x="463" y="-14"/>
      <point x="555" y="142"/>
      <point x="555" y="334" type="curve"/>
      <point x="555" y="531"/>
      <point x="453" y="665"/>
      <point x="300" y="665" type="curve"/>
      <point x="134" y="665"/>
      <point x="31" y="506"/>
      <point x="31" y="321" type="curve"/>
      <point x="31" y="149"/>
      <point x="120" y="-14"/>
    </contour>
    <contour>
      <point x="311" y="72" type="curve"/>
      <point x="217" y="72"/>
      <point x="182" y="221"/>
      <point x="182" y="333" type="curve"/>
      <point x="182" y="416"/>
      <point x="201" y="529"/>
      <point x="246" y="575" type="curve"/>
      <point x="258" y="578"/>
      <point x="269" y="580"/>
      <point x="279" y="580" type="curve"/>
      <point x="367" y="580"/>
      <point x="405" y="451"/>
      <point x="405" y="320" type="curve"/>
      <point x="405" y="233"/>
      <point x="388" y="126"/>
      <point x="343" y="77" type="curve"/>
      <point x="331" y="73"/>
      <point x="320" y="72"/>
    </contour>
  </outline>
</glyph>
<glyph name="one" format="1">
  <advance width="438"/>
  <unicode hex="0031"/>
  <outline>
    <contour>
      <point x="238" y="549" type="line"/>
      <point x="263" y="632" type="line"/>
      <point x="247" y="670" type="line"/>
      <point x="15" y="527" type="line"/>
      <point x="48" y="469" type="line"/>
    </contour>
    <contour>
      <point x="312" y="627" type="line"/>
      <point x="247" y="670" type="line"/>
      <point x="222" y="597" type="line"/>
    </contour>
    <contour>
      <point x="167" y="0" type="line"/>
      <point x="312" y="0" type="line"/>
      <point x="312" y="627" type="line"/>
      <point x="167" y="612" type="line"/>
    </contour>
    <contour>
      <point x="178" y="0" type="line"/>
      <point x="186" y="88" type="line"/>
      <point x="133" y="75"/>
      <point x="73" y="55"/>
      <point x="30" y="33" type="curve"/>
      <point x="36" y="0" type="line"/>
    </contour>
    <contour>
      <point x="428" y="0" type="line"/>
      <point x="432" y="52" type="line"/>
      <point x="293" y="74" type="line"/>
      <point x="291" y="0" type="line"/>
    </contour>
  </outline>
</glyph>
<glyph name="three" format="1">
  <advance width="571"/>
  <unicode hex="0033"/>
  <outline>
    <contour>
      <point x="200" y="609" type="line"/>
      <point x="61" y="611" type="line"/>
      <point x="57" y="561"/>
      <point x="60" y="500"/>
      <point x="72" y="450" type="curve"/>
      <point x="159" y="450" type="line"/>
    </contour>
    <contour>
      <point x="343" y="423"/>
      <point x="294" y="358"/>
      <point x="172" y="355" type="curve"/>
      <point x="180" y="278" type="line"/>
      <point x="348" y="325" type="line"/>
      <point x="348" y="341" type="line"/>
      <point x="447" y="369"/>
      <point x="494" y="436"/>
      <point x="494" y="502" type="curve" smooth="yes"/>
      <point x="494" y="587"/>
      <point x="419" y="670"/>
      <point x="272" y="670" type="curve" smooth="yes"/>
      <point x="199" y="670"/>
      <point x="116" y="649"/>
      <point x="60" y="611" type="curve"/>
      <point x="97" y="555" type="line"/>
      <point x="139" y="579"/>
      <point x="179" y="590"/>
      <point x="217" y="590" type="curve" smooth="yes"/>
      <point x="295" y="590"/>
      <point x="343" y="543"/>
      <point x="343" y="483" type="curve" smooth="yes"/>
    </contour>
    <contour>
      <point x="48" y="31" type="line"/>
      <point x="114" y="-1"/>
      <point x="197" y="-20"/>
      <point x="271" y="-20" type="curve" smooth="yes"/>
      <point x="433" y="-20"/>
      <point x="524" y="72"/>
      <point x="524" y="173" type="curve" smooth="yes"/>
      <point x="524" y="268"/>
      <point x="444" y="349"/>
      <point x="344" y="350" type="curve"/>
      <point x="335" y="358" type="line"/>
      <point x="173" y="355" type="line"/>
      <point x="165" y="355" type="line"/>
      <point x="168" y="275" type="line"/>
      <point x="229" y="277" type="line"/>
      <point x="324" y="277"/>
      <point x="373" y="221"/>
      <point x="373" y="161" type="curve" smooth="yes"/>
      <point x="373" y="132"/>
      <point x="361" y="102"/>
      <point x="338" y="78" type="curve"/>
      <point x="262" y="78"/>
      <point x="163" y="123"/>
      <point x="86" y="167" type="curve"/>
    </contour>
  </outline>
</glyph>
<glyph name="four" format="1">
  <advance width="598"/>
  <unicode hex="0034"/>
  <outline>
    <contour>
      <point x="129" y="219" type="line"/>
      <point x="370" y="580" type="line"/>
      <point x="405" y="553" type="line"/>
      <point x="419" y="656" type="line"/>
      <point x="346" y="670" type="line"/>
      <point x="17" y="244" type="line"/>
      <point x="48" y="163" type="line"/>
      <point x="543" y="163" type="line"/>
      <point x="573" y="191" type="line"/>
      <point x="570" y="261" type="line"/>
      <point x="93" y="250" type="line"/>
    </contour>
    <contour>
      <point x="317" y="0" type="line"/>
      <point x="458" y="0" type="line"/>
      <point x="458" y="656" type="line"/>
      <point x="340" y="649" type="line"/>
      <point x="330" y="561" type="line"/>
      <point x="317" y="428" type="line"/>
    </contour>
    <contour>
      <point x="341" y="0" type="line"/>
      <point x="349" y="88" type="line"/>
      <point x="300" y="74"/>
      <point x="243" y="55"/>
      <point x="201" y="33" type="curve"/>
      <point x="207" y="0" type="line"/>
    </contour>
    <contour>
      <point x="531" y="0" type="line"/>
      <point x="535" y="52" type="line"/>
      <point x="396" y="74" type="line"/>
      <point x="394" y="0" type="line"/>
    </contour>
  </outline>
</glyph>
<glyph name="six" format="1">
  <advance width="564"/>
  <unicode hex="0036"/>
  <outline>
    <contour>
      <point x="235" y="273" type="line"/>
      <point x="261" y="292"/>
      <point x="287" y="301"/>
      <point x="308" y="301" type="curve" smooth="yes"/>
      <point x="361" y="301"/>
      <point x="395" y="243"/>
      <point x="395" y="178" type="curve" smooth="yes"/>
      <point x="395" y="128"/>
      <point x="374" y="84"/>
      <point x="334" y="59" type="curve"/>
      <point x="232" y="53"/>
      <point x="182" y="154"/>
      <point x="182" y="275" type="curve" smooth="yes"/>
      <point x="182" y="385"/>
      <point x="224" y="503"/>
      <point x="306" y="544" type="curve"/>
      <point x="479" y="517" type="line"/>
      <point x="479" y="661" type="line"/>
      <point x="163" y="662"/>
      <point x="36" y="443"/>
      <point x="36" y="263" type="curve" smooth="yes"/>
      <point x="36" y="85"/>
      <point x="160" y="-20"/>
      <point x="304" y="-20" type="curve" smooth="yes"/>
      <point x="449" y="-20"/>
      <point x="535" y="83"/>
      <point x="535" y="201" type="curve" smooth="yes"/>
      <point x="535" y="313"/>
      <point x="457" y="396"/>
      <point x="359" y="396" type="curve" smooth="yes"/>
      <point x="321" y="396"/>
      <point x="265" y="384"/>
      <point x="213" y="337" type="curve"/>
    </contour>
  </outline>
</glyph>
<glyph name="seven" format="1">
  <advance width="493"/>
  <unicode hex="0037"/>
  <outline>
    <contour>
      <point x="451" y="650" type="line"/>
      <point x="30" y="650" type="line"/>
      <point x="76" y="546" type="line"/>
      <point x="356" y="557" type="line"/>
      <point x="363" y="549" type="line"/>
      <point x="252" y="387"/>
      <point x="163" y="213"/>
      <point x="83" y="28" type="curve"/>
      <point x="223" y="-19" type="line"/>
      <point x="298" y="187"/>
      <point x="385" y="377"/>
      <point x="494" y="562" type="curve"/>
    </contour>
    <contour>
      <point x="133" y="450" type="line"/>
      <point x="164" y="643" type="line"/>
      <point x="24" y="650" type="line"/>
      <point x="20" y="601"/>
      <point x="27" y="500"/>
      <point x="39" y="451" type="curve"/>
    </contour>
  </outline>
</glyph>
<glyph name="eight" format="1">
  <advance width="548"/>
  <unicode hex="0038"/>
  <outline>
    <contour>
      <point x="443" y="376"/>
      <point x="487" y="443"/>
      <point x="487" y="507" type="curve" smooth="yes"/>
      <point x="487" y="593"/>
      <point x="410" y="668"/>
      <point x="277" y="668" type="curve" smooth="yes"/>
      <point x="137" y="668"/>
      <point x="57" y="584"/>
      <point x="57" y="489" type="curve" smooth="yes"/>
      <point x="57" y="419"/>
      <point x="101" y="364"/>
      <point x="174" y="322" type="curve"/>
      <point x="228" y="292" type="line"/>
      <point x="332" y="237"/>
      <point x="374" y="199"/>
      <point x="374" y="139" type="curve" smooth="yes"/>
      <point x="374" y="113"/>
      <point x="366" y="91"/>
      <point x="349" y="63" type="curve"/>
      <point x="326" y="56"/>
      <point x="305" y="52"/>
      <point x="287" y="52" type="curve" smooth="yes"/>
      <point x="217" y="52"/>
      <point x="180" y="101"/>
      <point x="180" y="158" type="curve" smooth="yes"/>
      <point x="180" y="208"/>
      <point x="210" y="264"/>
      <point x="272" y="295" type="curve"/>
      <point x="220" y="352" type="line"/>
      <point x="104" y="318"/>
      <point x="38" y="242"/>
      <point x="38" y="157" type="curve" smooth="yes"/>
      <point x="38" y="53"/>
      <point x="135" y="-21"/>
      <point x="273" y="-21" type="curve" smooth="yes"/>
      <point x="413" y="-21"/>
      <point x="510" y="57"/>
      <point x="510" y="167" type="curve" smooth="yes"/>
      <point x="510" y="273"/>
      <point x="422" y="329"/>
      <point x="331" y="378" type="curve" smooth="yes"/>
      <point x="258" y="418"/>
      <point x="189" y="450"/>
      <point x="189" y="513" type="curve" smooth="yes"/>
      <point x="189" y="534"/>
      <point x="197" y="559"/>
      <point x="217" y="583" type="curve"/>
      <point x="236" y="591"/>
      <point x="254" y="594"/>
      <point x="271" y="594" type="curve" smooth="yes"/>
      <point x="327" y="594"/>
      <point x="366" y="553"/>
      <point x="366" y="500" type="curve" smooth="yes"/>
      <point x="366" y="469"/>
      <point x="353" y="421"/>
      <point x="285" y="379" type="curve"/>
      <point x="344" y="335" type="line"/>
    </contour>
  </outline>
</glyph>
<glyph name="colon" format="1">
  <advance width="264"/>
  <unicode hex="003A"/>
  <outline>
    <contour>
      <point x="187" y="288" type="curve"/>
      <point x="225" y="308"/>
      <point x="251" y="338"/>
      <point x="264" y="380" type="curve"/>
      <point x="253" y="420"/>
      <point x="218" y="452"/>
      <point x="172" y="471" type="curve"/>
      <point x="128" y="448"/>
      <point x="98" y="414"/>
      <point x="91" y="365" type="curve"/>
      <point x="110" y="326"/>
      <point x="142" y="301"/>
    </contour>
    <contour>
      <point x="187" y="-20" type="curve"/>
      <point x="225" y="-1"/>
      <point x="251" y="30"/>
      <point x="264" y="71" type="curve"/>
      <point x="253" y="112"/>
      <point x="218" y="144"/>
      <point x="172" y="163" type="curve"/>
      <point x="128" y="140"/>
      <point x="98" y="106"/>
      <point x="91" y="57" type="curve"/>
      <point x="110" y="18"/>
      <point x="142" y="-8"/>
    </contour>
  </outline>
</glyph>
<glyph name="semicolon" format="1">
  <advance width="290"/>
  <unicode hex="003B"/>
  <outline>
    <contour>
      <point x="222" y="420"/>
      <point x="187" y="452"/>
      <point x="141" y="471" type="curve"/>
      <point x="97" y="448"/>
      <point x="67" y="414"/>
      <point x="60" y="365" type="curve"/>
      <point x="79" y="326"/>
      <point x="111" y="301"/>
      <point x="156" y="288" type="curve"/>
      <point x="194" y="308"/>
      <point x="220" y="338"/>
      <point x="233" y="380" type="curve"/>
    </contour>
    <contour>
      <point x="84" y="-143" type="line"/>
      <point x="167" y="-104"/>
      <point x="230" y="-23"/>
      <point x="230" y="48" type="curve" smooth="yes"/>
      <point x="230" y="96"/>
      <point x="200" y="139"/>
      <point x="141" y="161" type="curve"/>
      <point x="100" y="139"/>
      <point x="69" y="106"/>
      <point x="62" y="57" type="curve"/>
      <point x="115" y="14" type="line"/>
      <point x="112" y="-21"/>
      <point x="87" y="-62"/>
      <point x="46" y="-97" type="curve"/>
    </contour>
  </outline>
</glyph>
<glyph name="less" format="1">
  <advance width="576"/>
  <unicode hex="003C"/>
  <outline>
    <contour>
      <point x="68" y="272" type="line"/>
      <point x="73" y="202" type="line"/>
      <point x="462" y="-6" type="line"/>
      <point x="506" y="75" type="line"/>
      <point x="198" y="238" type="line"/>
      <point x="197" y="244" type="line"/>
      <point x="505" y="424" type="line"/>
      <point x="462" y="500" type="line"/>
    </contour>
  </outline>
</glyph>
<glyph name="equal" format="1">
  <advance width="584"/>
  <unicode hex="003D"/>
  <outline>
    <contour>
      <point x="56" y="385" type="line"/>
      <point x="56" y="304" type="line"/>
      <point x="528" y="304" type="line"/>
      <point x="528" y="385" type="line"/>
    </contour>
    <contour>
      <point x="56" y="201" type="line"/>
      <point x="56" y="120" type="line"/>
      <point x="528" y="120" type="line"/>
      <point x="528" y="201" type="line"/>
    </contour>
  </outline>
</glyph>
<glyph name="greater" format="1">
  <advance width="576"/>
  <unicode hex="003E"/>
  <outline>
    <contour>
      <point x="379" y="244" type="line"/>
      <point x="378" y="238" type="line"/>
      <point x="70" y="75" type="line"/>
      <point x="114" y="-6" type="line"/>
      <point x="503" y="202" type="line"/>
      <point x="508" y="272" type="line"/>
      <point x="114" y="500" type="line"/>
      <point x="71" y="424" type="line"/>
    </contour>
  </outline>
</glyph>
<glyph name="question" format="1">
  <advance width="622"/>
  <unicode hex="003F"/>
  <outline>
    <contour>
      <point x="198" y="460" type="line"/>
      <point x="249" y="626" type="line"/>
      <point x="93" y="627" type="line"/>
      <point x="91" y="608"/>
      <point x="99" y="524"/>
      <point x="112" y="460" type="curve"/>
    </contour>
    <contour>
      <point x="360" y="359"/>
      <point x="522" y="367"/>
      <point x="522" y="510" type="curve" smooth="yes"/>
      <point x="522" y="618"/>
      <point x="432" y="703"/>
      <point x="298" y="703" type="curve" smooth="yes"/>
      <point x="214" y="703"/>
      <point x="145" y="670"/>
      <point x="93" y="628" type="curve"/>
      <point x="138" y="533" type="line"/>
      <point x="209" y="587"/>
      <point x="269" y="610"/>
      <point x="324" y="609" type="curve"/>
      <point x="359" y="591"/>
      <point x="378" y="557"/>
      <point x="378" y="519" type="curve" smooth="yes"/>
      <point x="378" y="411"/>
      <point x="223" y="397"/>
      <point x="223" y="243" type="curve"/>
      <point x="347" y="243" type="line"/>
    </contour>
    <contour>
      <point x="251" y="140"/>
      <point x="221" y="106"/>
      <point x="214" y="57" type="curve"/>
      <point x="233" y="18"/>
      <point x="265" y="-8"/>
      <point x="310" y="-20" type="curve"/>
      <point x="348" y="-1"/>
      <point x="374" y="30"/>
      <point x="387" y="71" type="curve"/>
      <point x="376" y="112"/>
      <point x="341" y="144"/>
      <point x="295" y="163" type="curve"/>
    </contour>
  </outline>
</glyph>
<glyph name="A" format="1">
  <advance width="719"/>
  <unicode hex="0041"/>
  <outline>
    <contour>
      <point x="33" y="0" type="line"/>
      <point x="142" y="0" type="line"/>
      <point x="378" y="620" type="line"/>
      <point x="295" y="642" type="line"/>
    </contour>
    <contour>
      <point x="272" y="646" type="line"/>
      <point x="519" y="0" type="line"/>
      <point x="680" y="0" type="line"/>
      <point x="403" y="682" type="line"/>
    </contour>
    <contour>
      <point x="183" y="258" type="line"/>
      <point x="183" y="182" type="line"/>
      <point x="495" y="182" type="line"/>
      <point x="495" y="258" type="line"/>
    </contour>
    <contour>
      <point x="44" y="65"/>
      <point x="9" y="50"/>
      <point x="-20" y="32" type="curve"/>
      <point x="-14" y="0" type="line"/>
      <point x="80" y="0" type="line"/>
      <point x="79" y="79" type="line"/>
    </contour>
    <contour>
      <point x="118" y="0" type="line"/>
      <point x="258" y="0" type="line"/>
      <point x="259" y="51" type="line"/>
      <point x="121" y="71" type="line"/>
    </contour>
    <contour>
      <point x="468" y="65"/>
      <point x="433" y="50"/>
      <point x="404" y="32" type="curve"/>
      <point x="410" y="0" type="line"/>
      <point x="535" y="0" type="line"/>
      <point x="503" y="79" type="line"/>
    </contour>
    <contour>
      <point x="585" y="0" type="line"/>
      <point x="725" y="0" type="line"/>
      <point x="726" y="51" type="line"/>
      <point x="588" y="71" type="line"/>
    </contour>
    <contour>
      <point x="673" y="1" type="move" name="ogonek"/>
    </contour>
    <contour>
      <point x="347" y="650" type="move" name="top"/>
    </contour>
  </outline>
</glyph>
<glyph name="C" format="1">
  <advance width="582"/>
  <unicode hex="0043"/>
  <outline>
    <contour>
      <point x="546" y="143" type="line"/>
      <point x="381" y="89" type="line"/>
      <point x="239" y="84"/>
      <point x="166" y="200"/>
      <point x="166" y="345" type="curve" smooth="yes"/>
      <point x="166" y="435"/>
      <point x="194" y="537"/>
      <point x="264" y="590" type="curve"/>
      <point x="371" y="590"/>
      <point x="451" y="552"/>
      <point x="523" y="490" type="curve"/>
      <point x="553" y="615" type="line"/>
      <point x="513" y="643"/>
      <point x="447" y="678"/>
      <point x="347" y="678" type="curve" smooth="yes"/>
      <point x="120" y="678"/>
      <point x="11" y="498"/>
      <point x="11" y="321" type="curve" smooth="yes"/>
      <point x="11" y="155"/>
      <point x="105" y="-24"/>
      <point x="365" y="-16" type="curve"/>
      <point x="570" y="72" type="line"/>
    </contour>
    <contour>
      <point x="531" y="435" type="line"/>
      <point x="548" y="491"/>
      <point x="556" y="575"/>
      <point x="553" y="615" type="curve"/>
      <point x="409" y="593" type="line"/>
      <point x="439" y="435" type="line"/>
    </contour>
    <contour>
      <point x="328" y="650" type="move" name="top"/>
    </contour>
    <contour>
      <point x="328" y="0" type="move" name="bottom"/>
    </contour>
  </outline>
</glyph>
<glyph name="E" format="1">
  <advance width="617"/>
  <unicode hex="0045"/>
  <outline>
    <contour>
      <point x="111" y="658" type="line"/>
      <point x="111" y="0" type="line"/>
      <point x="263" y="0" type="line"/>
      <point x="263" y="658" type="line"/>
    </contour>
    <contour>
      <point x="90" y="65"/>
      <point x="55" y="50"/>
      <point x="26" y="32" type="curve"/>
      <point x="32" y="0" type="line"/>
      <point x="126" y="0" type="line"/>
      <point x="125" y="79" type="line"/>
    </contour>
    <contour>
      <point x="233" y="81" type="line"/>
      <point x="158" y="0" type="line"/>
      <point x="555" y="0" type="line"/>
      <point x="546" y="102" type="line"/>
    </contour>
    <contour>
      <point x="238" y="363" type="line"/>
      <point x="238" y="291" type="line"/>
      <point x="478" y="281" type="line"/>
      <point x="478" y="382" type="line"/>
    </contour>
    <contour>
      <point x="154" y="658" type="line"/>
      <point x="229" y="582" type="line"/>
      <point x="544" y="560" type="line"/>
      <point x="559" y="658" type="line"/>
    </contour>
    <contour>
      <point x="38" y="658" type="line"/>
      <point x="37" y="607" type="line"/>
      <point x="150" y="593" type="line"/>
      <point x="150" y="658" type="line"/>
    </contour>
    <contour>
      <point x="428" y="24" type="line"/>
      <point x="555" y="0" type="line"/>
      <point x="563" y="54"/>
      <point x="569" y="143"/>
      <point x="567" y="199" type="curve"/>
      <point x="483" y="205" type="line"/>
    </contour>
    <contour>
      <point x="544" y="468" type="line"/>
      <point x="557" y="533"/>
      <point x="562" y="619"/>
      <point x="560" y="658" type="curve"/>
      <point x="432" y="631" type="line"/>
      <point x="460" y="468" type="line"/>
    </contour>
    <contour>
      <point x="578" y="1" type="move" name="ogonek"/>
    </contour>
    <contour>
      <point x="311" y="0" type="move" name="bottom"/>
    </contour>
    <contour>
      <point x="311" y="650" type="move" name="top"/>
    </contour>
  </outline>
</glyph>
<glyph name="G" format="1">
  <advance width="698"/>
  <unicode hex="0047"/>
  <outline>
    <contour>
      <point x="387" y="-20" type="curve"/>
      <point x="600" y="69" type="line"/>
      <point x="556" y="113" type="line"/>
      <point x="513" y="96"/>
      <point x="435" y="76"/>
      <point x="373" y="78" type="curve"/>
      <point x="236" y="81"/>
      <point x="169" y="206"/>
      <point x="169" y="336" type="curve"/>
      <point x="169" y="437"/>
      <point x="200" y="538"/>
      <point x="273" y="590" type="curve"/>
      <point x="431" y="599"/>
      <point x="533" y="519"/>
      <point x="562" y="495" type="curve"/>
      <point x="592" y="617" type="line"/>
      <point x="558" y="641"/>
      <point x="484" y="678"/>
      <point x="379" y="678" type="curve"/>
      <point x="139" y="678"/>
      <point x="14" y="501"/>
      <point x="14" y="316" type="curve"/>
      <point x="14" y="154"/>
      <point x="116" y="-35"/>
    </contour>
    <contour>
      <point x="480" y="216" type="curve"/>
      <point x="471" y="303" type="line"/>
      <point x="366" y="303" type="line"/>
      <point x="360" y="269" type="line"/>
      <point x="397" y="248"/>
      <point x="442" y="230"/>
    </contour>
    <contour>
      <point x="460" y="303" type="line"/>
      <point x="460" y="62" type="line"/>
      <point x="600" y="69" type="line"/>
      <point x="600" y="303" type="line"/>
    </contour>
    <contour>
      <point x="510" y="303" type="line"/>
      <point x="530" y="225" type="line"/>
      <point x="676" y="255" type="line"/>
      <point x="675" y="303" type="line"/>
    </contour>
    <contour>
      <point x="448" y="596" type="line"/>
      <point x="480" y="447" type="line"/>
      <point x="571" y="447" type="line"/>
      <point x="588" y="506"/>
      <point x="595" y="578"/>
      <point x="592" y="617" type="curve"/>
    </contour>
    <contour>
      <point x="351" y="0" type="move" name="bottom"/>
    </contour>
    <contour>
      <point x="351" y="650" type="move" name="top"/>
    </contour>
  </outline>
</glyph>
<glyph name="H" format="1">
  <advance width="803"/>
  <unicode hex="0048"/>
  <outline>
    <contour>
      <point x="172" y="587" type="line"/>
      <point x="175" y="658" type="line"/>
      <point x="35" y="658" type="line"/>
      <point x="34" y="607" type="line"/>
    </contour>
    <contour>
      <point x="111" y="658" type="line"/>
      <point x="111" y="0" type="line"/>
      <point x="263" y="0" type="line"/>
      <point x="263" y="658" type="line"/>
    </contour>
    <contour>
      <point x="247" y="658" type="line"/>
      <point x="248" y="579" type="line"/>
      <point x="284" y="593"/>
      <point x="318" y="608"/>
      <point x="347" y="626" type="curve"/>
      <point x="341" y="658" type="line"/>
    </contour>
    <contour>
      <point x="456" y="658" type="line"/>
      <point x="455" y="607" type="line"/>
      <point x="593" y="587" type="line"/>
      <point x="596" y="658" type="line"/>
    </contour>
    <contour>
      <point x="532" y="658" type="line"/>
      <point x="532" y="0" type="line"/>
      <point x="684" y="0" type="line"/>
      <point x="684" y="658" type="line"/>
    </contour>
    <contour>
      <point x="669" y="658" type="line"/>
      <point x="670" y="579" type="line"/>
      <point x="706" y="593"/>
      <point x="740" y="608"/>
      <point x="769" y="626" type="curve"/>
      <point x="763" y="658" type="line"/>
    </contour>
    <contour>
      <point x="224" y="370" type="line"/>
      <point x="224" y="284" type="line"/>
      <point x="588" y="284" type="line"/>
      <point x="588" y="370" type="line"/>
    </contour>
    <contour>
      <point x="90" y="65"/>
      <point x="55" y="50"/>
      <point x="26" y="32" type="curve"/>
      <point x="32" y="0" type="line"/>
      <point x="126" y="0" type="line"/>
      <point x="125" y="79" type="line"/>
    </contour>
    <contour>
      <point x="214" y="0" type="line"/>
      <point x="354" y="0" type="line"/>
      <point x="355" y="51" type="line"/>
      <point x="217" y="71" type="line"/>
    </contour>
    <contour>
      <point x="511" y="65"/>
      <point x="476" y="50"/>
      <point x="447" y="32" type="curve"/>
      <point x="453" y="0" type="line"/>
      <point x="547" y="0" type="line"/>
      <point x="546" y="79" type="line"/>
    </contour>
    <contour>
      <point x="636" y="0" type="line"/>
      <point x="776" y="0" type="line"/>
      <point x="777" y="51" type="line"/>
      <point x="639" y="71" type="line"/>
    </contour>
    <contour>
      <point x="402" y="325" type="move" name="center"/>
    </contour>
    <contour>
      <point x="402" y="650" type="move" name="top"/>
    </contour>
  </outline>
</glyph>
<glyph name="K" format="1">
  <advance width="719"/>
  <unicode hex="004B"/>
  <outline>
    <contour>
      <point x="540" y="658" type="line"/>
      <point x="211" y="305" type="line"/>
      <point x="228" y="206" type="line"/>
      <point x="616" y="617" type="line"/>
      <point x="620" y="658" type="line"/>
    </contour>
    <contour>
      <point x="90" y="65"/>
      <point x="55" y="50"/>
      <point x="26" y="32" type="curve"/>
      <point x="32" y="0" type="line"/>
      <point x="126" y="0" type="line"/>
      <point x="125" y="79" type="line"/>
    </contour>
    <contour>
      <point x="206" y="0" type="line"/>
      <point x="346" y="0" type="line"/>
      <point x="347" y="51" type="line"/>
      <point x="209" y="71" type="line"/>
    </contour>
    <contour>
      <point x="111" y="658" type="line"/>
      <point x="111" y="0" type="line"/>
      <point x="263" y="0" type="line"/>
      <point x="263" y="658" type="line"/>
    </contour>
    <contour>
      <point x="247" y="658" type="line"/>
      <point x="248" y="579" type="line"/>
      <point x="284" y="593"/>
      <point x="318" y="608"/>
      <point x="347" y="626" type="curve"/>
      <point x="341" y="658" type="line"/>
    </contour>
    <contour>
      <point x="419" y="658" type="line"/>
      <point x="418" y="607" type="line"/>
      <point x="556" y="587" type="line"/>
      <point x="559" y="658" type="line"/>
    </contour>
    <contour>
      <point x="561" y="658" type="line"/>
      <point x="562" y="579" type="line"/>
      <point x="598" y="592"/>
      <point x="644" y="608"/>
      <point x="673" y="626" type="curve"/>
      <point x="667" y="658" type="line"/>
    </contour>
    <contour>
      <point x="34" y="658" type="line"/>
      <point x="33" y="607" type="line"/>
      <point x="171" y="587" type="line"/>
      <point x="174" y="658" type="line"/>
    </contour>
    <contour>
      <point x="293" y="301" type="line"/>
      <point x="508" y="0" type="line"/>
      <point x="694" y="0" type="line"/>
      <point x="398" y="398" type="line"/>
    </contour>
    <contour>
      <point x="597" y="0" type="line"/>
      <point x="709" y="0" type="line"/>
      <point x="710" y="52" type="line"/>
      <point x="597" y="70" type="line"/>
    </contour>
    <contour>
      <point x="363" y="650" type="move" name="top"/>
    </contour>
    <contour>
      <point x="387" y="0" type="move" name="bottom"/>
    </contour>
  </outline>
</glyph>
<glyph name="M" format="1">
  <advance width="956"/>
  <unicode hex="004D"/>
  <outline>
    <contour>
      <point x="179" y="605" type="line"/>
      <point x="400" y="-7" type="line"/>
      <point x="515" y="16" type="line"/>
      <point x="506" y="105" type="line"/>
      <point x="311" y="650" type="line"/>
    </contour>
    <contour>
      <point x="26" y="32" type="curve"/>
      <point x="32" y="0" type="line"/>
      <point x="126" y="0" type="line"/>
      <point x="125" y="79" type="line"/>
      <point x="90" y="65"/>
      <point x="55" y="50"/>
    </contour>
    <contour>
      <point x="171" y="75" type="line"/>
      <point x="168" y="0" type="line"/>
      <point x="308" y="0" type="line"/>
      <point x="309" y="47" type="line" smooth="yes"/>
    </contour>
    <contour>
      <point x="131" y="650" type="line"/>
      <point x="113" y="0" type="line"/>
      <point x="224" y="0" type="line"/>
      <point x="230" y="342" type="line"/>
      <point x="209" y="561" type="line"/>
      <point x="312" y="650" type="line"/>
    </contour>
    <contour>
      <point x="604" y="32" type="curve"/>
      <point x="610" y="0" type="line"/>
      <point x="704" y="0" type="line"/>
      <point x="703" y="79" type="line"/>
      <point x="668" y="65"/>
      <point x="633" y="50"/>
    </contour>
    <contour>
      <point x="47" y="603" type="line"/>
      <point x="185" y="575" type="line"/>
      <point x="188" y="650" type="line"/>
      <point x="48" y="650" type="line"/>
    </contour>
    <contour>
      <point x="791" y="75" type="line"/>
      <point x="788" y="0" type="line"/>
      <point x="928" y="0" type="line"/>
      <point x="929" y="47" type="line"/>
    </contour>
    <contour>
      <point x="444" y="36" type="line"/>
      <point x="515" y="16" type="line"/>
      <point x="737" y="613" type="line"/>
      <point x="669" y="650" type="line"/>
    </contour>
    <contour>
      <point x="686" y="342" type="line"/>
      <point x="690" y="0" type="line"/>
      <point x="836" y="0" type="line"/>
      <point x="825" y="650" type="line"/>
      <point x="669" y="650" type="line"/>
      <point x="704" y="566" type="line"/>
    </contour>
    <contour>
      <point x="808" y="650" type="line"/>
      <point x="809" y="571" type="line"/>
      <point x="845" y="585"/>
      <point x="879" y="600"/>
      <point x="908" y="618" type="curve"/>
      <point x="902" y="650" type="line"/>
    </contour>
  </outline>
</glyph>
<glyph name="N" format="1">
  <advance width="774"/>
  <unicode hex="004E"/>
  <outline>
    <contour>
      <point x="167" y="0" type="line"/>
      <point x="307" y="0" type="line"/>
      <point x="308" y="51" type="line"/>
      <point x="170" y="71" type="line"/>
    </contour>
    <contour>
      <point x="90" y="65"/>
      <point x="55" y="50"/>
      <point x="26" y="32" type="curve"/>
      <point x="32" y="0" type="line"/>
      <point x="126" y="0" type="line"/>
      <point x="125" y="79" type="line"/>
    </contour>
    <contour>
      <point x="111" y="658" type="line"/>
      <point x="111" y="0" type="line"/>
      <point x="220" y="0" type="line"/>
      <point x="220" y="349" type="line"/>
      <point x="194" y="567" type="line"/>
      <point x="264" y="658" type="line"/>
    </contour>
    <contour>
      <point x="42" y="658" type="line"/>
      <point x="41" y="607" type="line"/>
      <point x="171" y="587" type="line"/>
      <point x="174" y="658" type="line"/>
    </contour>
    <contour>
      <point x="141" y="658" type="line"/>
      <point x="139" y="574" type="line"/>
      <point x="521" y="-13" type="line"/>
      <point x="620" y="19" type="line"/>
      <point x="629" y="86" type="line"/>
      <point x="263" y="658" type="line"/>
    </contour>
    <contour>
      <point x="461" y="658" type="line"/>
      <point x="460" y="607" type="line"/>
      <point x="598" y="587" type="line"/>
      <point x="601" y="658" type="line"/>
    </contour>
    <contour>
      <point x="557" y="658" type="line"/>
      <point x="557" y="301" type="line"/>
      <point x="588" y="46" type="line"/>
      <point x="521" y="-13" type="line"/>
      <point x="662" y="0" type="line"/>
      <point x="666" y="658" type="line"/>
    </contour>
    <contour>
      <point x="647" y="658" type="line"/>
      <point x="648" y="579" type="line"/>
      <point x="684" y="593"/>
      <point x="718" y="608"/>
      <point x="747" y="626" type="curve"/>
      <point x="741" y="658" type="line"/>
    </contour>
    <contour>
      <point x="367" y="650" type="move" name="top"/>
    </contour>
    <contour>
      <point x="389" y="0" type="move" name="bottom"/>
    </contour>
  </outline>
</glyph>
<glyph name="O" format="1">
  <advance width="675"/>
  <unicode hex="004F"/>
  <outline>
    <contour>
      <point x="154" y="678"/>
      <point x="14" y="539"/>
      <point x="14" y="325" type="curve" smooth="yes"/>
      <point x="14" y="96"/>
      <point x="173" y="-20"/>
      <point x="342" y="-20" type="curve" smooth="yes"/>
      <point x="506" y="-20"/>
      <point x="661" y="91"/>
      <point x="661" y="320" type="curve" smooth="yes"/>
      <point x="661" y="549"/>
      <point x="508" y="678"/>
      <point x="334" y="678" type="curve" smooth="yes"/>
    </contour>
    <contour>
      <point x="273" y="585"/>
      <point x="298" y="590"/>
      <point x="321" y="590" type="curve" smooth="yes"/>
      <point x="444" y="590"/>
      <point x="500" y="456"/>
      <point x="500" y="317" type="curve" smooth="yes"/>
      <point x="500" y="209"/>
      <point x="466" y="117"/>
      <point x="416" y="77" type="curve"/>
      <point x="397" y="72"/>
      <point x="380" y="68"/>
      <point x="359" y="68" type="curve" smooth="yes"/>
      <point x="235" y="68"/>
      <point x="174" y="190"/>
      <point x="174" y="343" type="curve" smooth="yes"/>
      <point x="174" y="450"/>
      <point x="205" y="539"/>
      <point x="248" y="576" type="curve"/>
    </contour>
    <contour>
      <point x="337" y="650" type="move" name="top"/>
    </contour>
  </outline>
</glyph>
<glyph name="P" format="1">
  <advance width="631"/>
  <unicode hex="0050"/>
  <outline>
    <contour>
      <point x="231" y="333" type="curve"/>
      <point x="228" y="237" type="line"/>
      <point x="366" y="238" type="line" smooth="yes"/>
      <point x="521" y="238"/>
      <point x="616" y="335"/>
      <point x="616" y="449" type="curve"/>
      <point x="616" y="559"/>
      <point x="528" y="667"/>
      <point x="357" y="666" type="curve"/>
      <point x="34" y="658" type="line"/>
      <point x="246" y="572" type="line"/>
      <point x="398" y="588" type="line"/>
      <point x="439" y="565"/>
      <point x="459" y="505"/>
      <point x="459" y="451" type="curve"/>
      <point x="459" y="383"/>
      <point x="423" y="318"/>
      <point x="336" y="318" type="curve"/>
      <point x="314" y="318"/>
      <point x="268" y="322"/>
    </contour>
    <contour>
      <point x="26" y="32" type="curve"/>
      <point x="32" y="0" type="line"/>
      <point x="126" y="0" type="line"/>
      <point x="125" y="79" type="line"/>
      <point x="90" y="65"/>
      <point x="55" y="50"/>
    </contour>
    <contour>
      <point x="241" y="71" type="line"/>
      <point x="238" y="0" type="line"/>
      <point x="378" y="0" type="line"/>
      <point x="379" y="51" type="line"/>
    </contour>
    <contour>
      <point x="107" y="658" type="line"/>
      <point x="107" y="0" type="line"/>
      <point x="259" y="0" type="line"/>
      <point x="259" y="658" type="line"/>
    </contour>
    <contour>
      <point x="33" y="607" type="line"/>
      <point x="146" y="593" type="line"/>
      <point x="146" y="658" type="line"/>
      <point x="34" y="658" type="line"/>
    </contour>
  </outline>
</glyph>
<glyph name="Q" format="1">
  <advance width="713"/>
  <unicode hex="0051"/>
  <outline>
    <contour>
      <point x="352" y="-3" type="line"/>
      <point x="676" y="-182" type="line"/>
      <point x="743" y="-48" type="line"/>
      <point x="387" y="42" type="line"/>
    </contour>
    <component base="O"/>
  </outline>
</glyph>
<glyph name="T" format="1">
  <advance width="645"/>
  <unicode hex="0054"/>
  <outline>
    <contour>
      <point x="247" y="658" type="line"/>
      <point x="247" y="0" type="line"/>
      <point x="399" y="0" type="line"/>
      <point x="399" y="658" type="line"/>
    </contour>
    <contour>
      <point x="218" y="65"/>
      <point x="174" y="50"/>
      <point x="145" y="32" type="curve"/>
      <point x="151" y="0" type="line"/>
      <point x="254" y="0" type="line"/>
      <point x="253" y="79" type="line"/>
    </contour>
    <contour>
      <point x="360" y="0" type="line"/>
      <point x="500" y="0" type="line"/>
      <point x="501" y="51" type="line"/>
      <point x="363" y="71" type="line"/>
    </contour>
    <contour>
      <point x="400" y="658"/>
      <point x="249" y="658"/>
      <point x="9" y="664" type="curve"/>
      <point x="26" y="572" type="line"/>
      <point x="323" y="595" type="line"/>
      <point x="619" y="572" type="line"/>
      <point x="636" y="664" type="line"/>
    </contour>
    <contour>
      <point x="620" y="453" type="line"/>
      <point x="633" y="517"/>
      <point x="640" y="625"/>
      <point x="636" y="664" type="curve"/>
      <point x="519" y="635" type="line"/>
      <point x="540" y="453" type="line" smooth="yes"/>
    </contour>
    <contour>
      <point x="126" y="635" type="line"/>
      <point x="9" y="664" type="line"/>
      <point x="5" y="625"/>
      <point x="12" y="517"/>
      <point x="25" y="453" type="curve"/>
      <point x="105" y="453" type="line"/>
    </contour>
    <contour>
      <point x="323" y="325" type="move" name="center"/>
    </contour>
    <contour>
      <point x="323" y="0" type="move" name="bottom"/>
    </contour>
    <contour>
      <point x="323" y="650" type="move" name="top"/>
    </contour>
  </outline>
</glyph>
<glyph name="U" format="1">
  <advance width="737"/>
  <unicode hex="0055"/>
  <outline>
    <contour>
      <point x="536" y="658" type="line"/>
      <point x="536" y="284" type="line" smooth="yes"/>
      <point x="536" y="192"/>
      <point x="518" y="127"/>
      <point x="485" y="96" type="curve"/>
      <point x="461" y="81"/>
      <point x="433" y="72"/>
      <point x="398" y="72" type="curve" smooth="yes"/>
      <point x="301" y="72"/>
      <point x="237" y="135"/>
      <point x="237" y="265" type="curve" smooth="yes"/>
      <point x="237" y="658" type="line"/>
      <point x="85" y="658" type="line"/>
      <point x="85" y="295" type="line" smooth="yes"/>
      <point x="85" y="84"/>
      <point x="213" y="-19"/>
      <point x="384" y="-19" type="curve" smooth="yes"/>
      <point x="535" y="-19"/>
      <point x="644" y="62"/>
      <point x="644" y="291" type="curve" smooth="yes"/>
      <point x="644" y="658" type="line"/>
    </contour>
    <contour>
      <point x="9" y="658" type="line"/>
      <point x="8" y="607" type="line"/>
      <point x="146" y="587" type="line"/>
      <point x="149" y="658" type="line"/>
    </contour>
    <contour>
      <point x="221" y="658" type="line"/>
      <point x="222" y="579" type="line"/>
      <point x="258" y="593"/>
      <point x="292" y="608"/>
      <point x="321" y="626" type="curve"/>
      <point x="315" y="658" type="line"/>
    </contour>
    <contour>
      <point x="452" y="658" type="line"/>
      <point x="451" y="607" type="line"/>
      <point x="589" y="587" type="line"/>
      <point x="592" y="658" type="line"/>
    </contour>
    <contour>
      <point x="628" y="658" type="line"/>
      <point x="629" y="579" type="line"/>
      <point x="665" y="593"/>
      <point x="699" y="608"/>
      <point x="728" y="626" type="curve"/>
      <point x="722" y="658" type="line"/>
    </contour>
    <contour>
      <point x="504" y="1" type="move" name="ogonek"/>
    </contour>
    <contour>
      <point x="370" y="650" type="move" name="top"/>
    </contour>
  </outline>
</glyph>
<glyph name="V" format="1">
  <advance width="709"/>
  <unicode hex="0056"/>
  <outline>
    <contour>
      <point x="51" y="658" type="line"/>
      <point x="287" y="-14" type="line"/>
      <point x="336" y="-12"/>
      <point x="388" y="-7"/>
      <point x="428" y="0" type="curve"/>
      <point x="384" y="101" type="line"/>
      <point x="359" y="102" type="line"/>
      <point x="347" y="232" type="line"/>
      <point x="208" y="658" type="line"/>
    </contour>
    <contour>
      <point x="-1" y="658" type="line"/>
      <point x="-2" y="607" type="line"/>
      <point x="136" y="587" type="line"/>
      <point x="139" y="658" type="line"/>
    </contour>
    <contour>
      <point x="428" y="0" type="line"/>
      <point x="658" y="658" type="line"/>
      <point x="553" y="658" type="line"/>
      <point x="344" y="35" type="line"/>
    </contour>
    <contour>
      <point x="203" y="658" type="line"/>
      <point x="216" y="579" type="line"/>
      <point x="252" y="593"/>
      <point x="286" y="608"/>
      <point x="315" y="626" type="curve"/>
      <point x="309" y="658" type="line"/>
    </contour>
    <contour>
      <point x="444" y="658" type="line"/>
      <point x="443" y="607" type="line"/>
      <point x="581" y="587" type="line"/>
      <point x="584" y="658" type="line"/>
    </contour>
    <contour>
      <point x="599" y="658" type="line"/>
      <point x="612" y="579" type="line"/>
      <point x="648" y="593"/>
      <point x="682" y="608"/>
      <point x="711" y="626" type="curve"/>
      <point x="705" y="658" type="line"/>
    </contour>
  </outline>
</glyph>
<glyph name="W" format="1">
  <advance width="980"/>
  <unicode hex="0057"/>
  <outline>
    <contour>
      <point x="50" y="658" type="line"/>
      <point x="257" y="-14" type="line"/>
      <point x="309" y="-13"/>
      <point x="356" y="-9"/>
      <point x="398" y="-1" type="curve"/>
      <point x="361" y="101" type="line"/>
      <point x="330" y="102" type="line"/>
      <point x="322" y="235" type="line"/>
      <point x="207" y="658" type="line"/>
    </contour>
    <contour>
      <point x="316" y="35" type="line"/>
      <point x="398" y="-1" type="line"/>
      <point x="467" y="222" type="line"/>
      <point x="490" y="343" type="line"/>
      <point x="508" y="344" type="line"/>
      <point x="546" y="465" type="line"/>
      <point x="453" y="509" type="line"/>
    </contour>
    <contour>
      <point x="-2" y="607" type="line"/>
      <point x="136" y="587" type="line"/>
      <point x="139" y="658" type="line"/>
      <point x="-1" y="658" type="line"/>
    </contour>
    <contour>
      <point x="197" y="658" type="line"/>
      <point x="210" y="579" type="line"/>
      <point x="246" y="593"/>
      <point x="280" y="608"/>
      <point x="309" y="626" type="curve"/>
      <point x="303" y="658" type="line"/>
    </contour>
    <contour>
      <point x="404" y="619" type="line"/>
      <point x="596" y="-14" type="line"/>
      <point x="648" y="-13"/>
      <point x="696" y="-9"/>
      <point x="738" y="-1" type="curve"/>
      <point x="705" y="101" type="line"/>
      <point x="669" y="102" type="line"/>
      <point x="658" y="244" type="line"/>
      <point x="549" y="652" type="line"/>
    </contour>
    <contour>
      <point x="653" y="35" type="line"/>
      <point x="738" y="-1" type="line"/>
      <point x="926" y="658" type="line"/>
      <point x="823" y="658" type="line"/>
    </contour>
    <contour>
      <point x="708" y="607" type="line"/>
      <point x="846" y="587" type="line"/>
      <point x="849" y="658" type="line"/>
      <point x="709" y="658" type="line"/>
    </contour>
    <contour>
      <point x="870" y="658" type="line"/>
      <point x="883" y="579" type="line"/>
      <point x="919" y="593"/>
      <point x="953" y="608"/>
      <point x="982" y="626" type="curve"/>
      <point x="976" y="658" type="line"/>
    </contour>
    <contour>
      <point x="482" y="650" type="move" name="top"/>
    </contour>
  </outline>
</glyph>
<glyph name="bracketleft" format="1">
  <advance width="393"/>
  <unicode hex="005B"/>
  <outline>
    <contour>
      <point x="91" y="712" type="line"/>
      <point x="91" y="-122" type="line"/>
      <point x="357" y="-122" type="line"/>
      <point x="363" y="-62" type="line"/>
      <point x="233" y="-32" type="line"/>
      <point x="233" y="622" type="line"/>
      <point x="363" y="652" type="line"/>
      <point x="357" y="712" type="line"/>
    </contour>
  </outline>
</glyph>
<glyph name="backslash" format="1">
  <advance width="403"/>
  <unicode hex="005C"/>
  <outline>
    <contour>
      <point x="-18" y="681" type="line"/>
      <point x="288" y="-126" type="line"/>
      <point x="396" y="-86" type="line"/>
      <point x="88" y="723" type="line"/>
    </contour>
  </outline>
</glyph>
<glyph name="bracketright" format="1">
  <advance width="395"/>
  <unicode hex="005D"/>
  <outline>
    <contour>
      <point x="30" y="652" type="line"/>
      <point x="160" y="622" type="line"/>
      <point x="160" y="-32" type="line"/>
      <point x="30" y="-62" type="line"/>
      <point x="36" y="-122" type="line"/>
      <point x="302" y="-122" type="line"/>
      <point x="302" y="712" type="line"/>
      <point x="36" y="712" type="line"/>
    </contour>
  </outline>
</glyph>
<glyph name="asciicircum" format="1">
  <advance width="511"/>
  <unicode hex="005E"/>
  <outline>
    <contour>
      <point x="24" y="369" type="line"/>
      <point x="97" y="322" type="line"/>
      <point x="253" y="558" type="line"/>
      <point x="260" y="558" type="line"/>
      <point x="423" y="326" type="line"/>
      <point x="493" y="373" type="line"/>
      <point x="295" y="649" type="line"/>
      <point x="214" y="649" type="line"/>
    </contour>
  </outline>
</glyph>
<glyph name="underscore" format="1">
  <advance width="532"/>
  <unicode hex="005F"/>
  <outline>
    <contour>
      <point x="10" y="-132" type="line"/>
      <point x="10" y="-213" type="line"/>
      <point x="522" y="-213" type="line"/>
      <point x="522" y="-132" type="line"/>
    </contour>
  </outline>
</glyph>
<glyph name="a" format="1">
  <advance width="544"/>
  <unicode hex="0061"/>
  <outline>
    <contour>
      <point x="60" y="196"/>
      <point x="37" y="151"/>
      <point x="37" y="111" type="curve" smooth="yes"/>
      <point x="37" y="46"/>
      <point x="97" y="-29"/>
      <point x="213" y="-13" type="curve"/>
      <point x="336" y="65" type="line"/>
      <point x="327" y="107" type="line"/>
      <point x="299" y="96"/>
      <point x="247" y="75"/>
      <point x="203" y="74" type="curve"/>
      <point x="189" y="85"/>
      <point x="182" y="103"/>
      <point x="182" y="118" type="curve" smooth="yes"/>
      <point x="182" y="168"/>
      <point x="252" y="175"/>
      <point x="310" y="171" type="curve"/>
      <point x="334" y="171" type="line"/>
      <point x="336" y="231" type="line"/>
      <point x="115" y="225" type="line"/>
    </contour>
    <contour>
      <point x="58" y="391"/>
      <point x="66" y="338"/>
      <point x="82" y="297" type="curve"/>
      <point x="166" y="300" type="line"/>
      <point x="184" y="408" type="line"/>
      <point x="202" y="414"/>
      <point x="234" y="420"/>
      <point x="259" y="421" type="curve"/>
      <point x="288" y="407"/>
      <point x="306" y="381"/>
      <point x="306" y="319" type="curve" smooth="yes"/>
      <point x="306" y="78" type="line"/>
      <point x="316" y="69" type="line"/>
      <point x="334" y="22"/>
      <point x="379" y="-15"/>
      <point x="413" y="-16" type="curve"/>
      <point x="535" y="48" type="line"/>
      <point x="526" y="93" type="line"/>
      <point x="507" y="90"/>
      <point x="492" y="87"/>
      <point x="477" y="87" type="curve" smooth="yes"/>
      <point x="461" y="87"/>
      <point x="452" y="96"/>
      <point x="452" y="110" type="curve"/>
      <point x="452" y="324" type="line"/>
      <point x="452" y="387"/>
      <point x="449" y="411"/>
      <point x="440" y="427" type="curve" smooth="yes"/>
      <point x="412" y="468"/>
      <point x="361" y="499"/>
      <point x="310" y="499" type="curve" smooth="yes"/>
      <point x="259" y="499"/>
      <point x="137" y="471"/>
      <point x="61" y="438" type="curve"/>
    </contour>
    <contour>
      <point x="259" y="468" type="move" name="top"/>
    </contour>
  </outline>
</glyph>
<glyph name="b" format="1">
  <advance width="555"/>
  <unicode hex="0062"/>
  <outline>
    <contour>
      <point x="155" y="736" type="line"/>
      <point x="59" y="689" type="line"/>
      <point x="59" y="22" type="line"/>
      <point x="204" y="44" type="line"/>
      <point x="204" y="691" type="line"/>
    </contour>
    <contour>
      <point x="157" y="331" type="line"/>
      <point x="200" y="360"/>
      <point x="241" y="383"/>
      <point x="278" y="383" type="curve" smooth="yes"/>
      <point x="345" y="383"/>
      <point x="385" y="311"/>
      <point x="385" y="231" type="curve" smooth="yes"/>
      <point x="385" y="168"/>
      <point x="360" y="101"/>
      <point x="316" y="67" type="curve"/>
      <point x="235" y="55"/>
      <point x="173" y="90"/>
      <point x="144" y="129" type="curve"/>
      <point x="59" y="22" type="line"/>
      <point x="126" y="-4"/>
      <point x="196" y="-19"/>
      <point x="256" y="-19" type="curve" smooth="yes"/>
      <point x="436" y="-19"/>
      <point x="536" y="111"/>
      <point x="536" y="258" type="curve" smooth="yes"/>
      <point x="536" y="394"/>
      <point x="451" y="513"/>
      <point x="315" y="488" type="curve"/>
      <point x="148" y="372" type="line"/>
    </contour>
    <contour>
      <point x="-15" y="653" type="line"/>
      <point x="94" y="641" type="line"/>
      <point x="160" y="681" type="line"/>
      <point x="156" y="736" type="line"/>
      <point x="95" y="734"/>
      <point x="30" y="721"/>
      <point x="-22" y="701" type="curve"/>
    </contour>
  </outline>
</glyph>
<glyph name="d" format="1">
  <advance width="575"/>
  <unicode hex="0064"/>
  <outline>
    <contour>
      <point x="560" y="93" type="line"/>
      <point x="541" y="90"/>
      <point x="525" y="87"/>
      <point x="510" y="87" type="curve" smooth="yes"/>
      <point x="495" y="87"/>
      <point x="485" y="96"/>
      <point x="485" y="110" type="curve" smooth="yes"/>
      <point x="485" y="691" type="line"/>
      <point x="436" y="736" type="line"/>
      <point x="340" y="689" type="line"/>
      <point x="340" y="78" type="line"/>
      <point x="350" y="69" type="line"/>
      <point x="368" y="22"/>
      <point x="412" y="-15"/>
      <point x="446" y="-16" type="curve"/>
      <point x="569" y="48" type="line"/>
    </contour>
    <contour>
      <point x="411" y="153" type="line"/>
      <point x="359" y="113"/>
      <point x="311" y="96"/>
      <point x="277" y="96" type="curve" smooth="yes"/>
      <point x="206" y="96"/>
      <point x="166" y="164"/>
      <point x="166" y="249" type="curve" smooth="yes"/>
      <point x="166" y="311"/>
      <point x="187" y="374"/>
      <point x="227" y="411" type="curve"/>
      <point x="302" y="418"/>
      <point x="371" y="380"/>
      <point x="406" y="330" type="curve"/>
      <point x="438" y="437" type="line"/>
      <point x="399" y="470"/>
      <point x="342" y="495"/>
      <point x="276" y="495" type="curve" smooth="yes"/>
      <point x="117" y="495"/>
      <point x="14" y="378"/>
      <point x="14" y="234" type="curve" smooth="yes"/>
      <point x="14" y="99"/>
      <point x="102" y="-18"/>
      <point x="239" y="-16" type="curve"/>
      <point x="406" y="104" type="line"/>
    </contour>
    <contour>
      <point x="374" y="641" type="line"/>
      <point x="440" y="681" type="line"/>
      <point x="436" y="736" type="line"/>
      <point x="375" y="734"/>
      <point x="310" y="721"/>
      <point x="258" y="701" type="curve"/>
      <point x="265" y="653" type="line"/>
    </contour>
    <contour>
      <point x="161" y="141" type="move" name="center"/>
    </contour>
    <contour>
      <point x="312" y="390" type="move" name="topright"/>
    </contour>
  </outline>
</glyph>
<glyph name="e" format="1">
  <advance width="484"/>
  <unicode hex="0065"/>
  <outline>
    <contour>
      <point x="298" y="-13" type="curve"/>
      <point x="455" y="68" type="line"/>
      <point x="434" y="121" type="line"/>
      <point x="387" y="98"/>
      <point x="347" y="85"/>
      <point x="306" y="85" type="curve"/>
      <point x="219" y="85"/>
      <point x="153" y="144"/>
      <point x="153" y="252" type="curve"/>
      <point x="153" y="314"/>
      <point x="174" y="390"/>
      <point x="226" y="420" type="curve"/>
      <point x="295" y="420"/>
      <point x="343" y="349"/>
      <point x="333" y="275" type="curve"/>
      <point x="466" y="296" type="line"/>
      <point x="467" y="431"/>
      <point x="362" y="496"/>
      <point x="261" y="496" type="curve"/>
      <point x="125" y="496"/>
      <point x="14" y="381"/>
      <point x="14" y="231" type="curve"/>
      <point x="14" y="78"/>
      <point x="134" y="-29"/>
    </contour>
    <contour>
      <point x="120" y="241" type="line"/>
      <point x="408" y="238" type="line"/>
      <point x="466" y="296" type="line"/>
      <point x="406" y="323" type="line"/>
      <point x="112" y="307" type="line"/>
    </contour>
    <contour>
      <point x="257" y="0" type="move" name="bottom"/>
    </contour>
    <contour>
      <point x="451" y="35" type="move" name="ogonek"/>
    </contour>
    <contour>
      <point x="255" y="468" type="move" name="top"/>
    </contour>
  </outline>
</glyph>
<glyph name="f" format="1">
  <advance width="366"/>
  <unicode hex="0066"/>
  <outline>
    <contour>
      <point x="82" y="545" type="curve"/>
      <point x="82" y="0" type="line"/>
      <point x="228" y="0" type="line"/>
      <point x="228" y="436" type="line"/>
      <point x="231" y="463" type="line"/>
      <point x="181" y="649" type="line"/>
      <point x="234" y="643"/>
      <point x="287" y="618"/>
      <point x="331" y="575" type="curve"/>
      <point x="410" y="702" type="line"/>
      <point x="367" y="735"/>
      <point x="316" y="751"/>
      <point x="273" y="751" type="curve"/>
      <point x="171" y="751"/>
      <point x="82" y="666"/>
    </contour>
    <contour>
      <point x="15" y="34" type="curve"/>
      <point x="18" y="0" type="line"/>
      <point x="119" y="0" type="line"/>
      <point x="130" y="78" type="line"/>
      <point x="97" y="70"/>
      <point x="48" y="53"/>
    </contour>
    <contour>
      <point x="204" y="87" type="curve"/>
      <point x="187" y="0" type="line"/>
      <point x="315" y="0" type="line"/>
      <point x="319" y="49" type="line"/>
      <point x="286" y="67"/>
      <point x="243" y="79"/>
    </contour>
    <contour>
      <point x="9" y="423" type="curve"/>
      <point x="13" y="371" type="line"/>
      <point x="166" y="373" type="line"/>
      <point x="189" y="435" type="line"/>
      <point x="137" y="484" type="line"/>
      <point x="96" y="467"/>
      <point x="53" y="449"/>
    </contour>
    <contour>
      <point x="177" y="471" type="line"/>
      <point x="177" y="370" type="line"/>
      <point x="291" y="370" type="line"/>
      <point x="341" y="429" type="line"/>
      <point x="339" y="471" type="line"/>
    </contour>
  </outline>
</glyph>
<glyph name="j" format="1">
  <advance width="309"/>
  <unicode hex="006A"/>
  <outline>
    <contour>
      <point x="207" y="581"/>
      <point x="238" y="618"/>
      <point x="256" y="656" type="curve"/>
      <point x="232" y="689"/>
      <point x="194" y="724"/>
      <point x="155" y="744" type="curve"/>
      <point x="121" y="720"/>
      <point x="90" y="681"/>
      <point x="69" y="639" type="curve"/>
      <point x="94" y="606"/>
      <point x="136" y="575"/>
      <point x="174" y="558" type="curve"/>
    </contour>
    <contour>
      <point x="189" y="494" type="line"/>
      <point x="94" y="446" type="line"/>
      <point x="94" y="-40" type="line" smooth="yes"/>
      <point x="94" y="-114"/>
      <point x="61" y="-150"/>
      <point x="-7" y="-173" type="curve"/>
      <point x="8" y="-216" type="line"/>
      <point x="182" y="-193"/>
      <point x="239" y="-109"/>
      <point x="239" y="-50" type="curve" smooth="yes"/>
      <point x="239" y="450" type="line"/>
    </contour>
    <contour>
      <point x="128" y="398" type="line"/>
      <point x="194" y="438" type="line"/>
      <point x="190" y="494" type="line"/>
      <point x="129" y="492"/>
      <point x="64" y="479"/>
      <point x="12" y="459" type="curve"/>
      <point x="19" y="411" type="line"/>
    </contour>
    <contour>
      <point x="90" y="300" type="move" name="top"/>
    </contour>
  </outline>
</glyph>
<glyph name="l" format="1">
  <advance width="334"/>
  <unicode hex="006C"/>
  <outline>
    <contour>
      <point x="91" y="0" type="line"/>
      <point x="236" y="0" type="line"/>
      <point x="236" y="692" type="line"/>
      <point x="187" y="736" type="line"/>
      <point x="91" y="689" type="line"/>
    </contour>
    <contour>
      <point x="125" y="641" type="line"/>
      <point x="191" y="681" type="line"/>
      <point x="187" y="736" type="line"/>
      <point x="126" y="734"/>
      <point x="61" y="721"/>
      <point x="9" y="701" type="curve"/>
      <point x="16" y="653" type="line"/>
    </contour>
    <contour>
      <point x="305" y="0" type="line"/>
      <point x="309" y="49" type="line"/>
      <point x="276" y="69"/>
      <point x="225" y="83"/>
      <point x="186" y="91" type="curve"/>
      <point x="169" y="0" type="line"/>
    </contour>
    <contour>
      <point x="119" y="0" type="line"/>
      <point x="130" y="78" type="line"/>
      <point x="97" y="70"/>
      <point x="48" y="53"/>
      <point x="15" y="34" type="curve"/>
      <point x="18" y="0" type="line"/>
    </contour>
    <contour>
      <point x="158" y="735" type="move" name="top"/>
    </contour>
    <contour>
      <point x="172" y="0" type="move" name="bottom"/>
    </contour>
    <contour>
      <point x="311" y="468" type="move" name="topright"/>
    </contour>
  </outline>
</glyph>
<glyph name="m" format="1">
  <advance width="914"/>
  <unicode hex="006D"/>
  <outline>
    <contour>
      <point x="687" y="289" type="curve"/>
      <point x="687" y="0" type="line"/>
      <point x="832" y="0" type="line"/>
      <point x="832" y="297" type="line" smooth="yes"/>
      <point x="832" y="377"/>
      <point x="829" y="403"/>
      <point x="819" y="421" type="curve"/>
      <point x="791" y="467"/>
      <point x="735" y="489"/>
      <point x="697" y="491" type="curve"/>
      <point x="636" y="476"/>
      <point x="545" y="420"/>
      <point x="458" y="343" type="curve"/>
      <point x="468" y="311" type="line"/>
      <point x="516" y="348"/>
      <point x="577" y="385"/>
      <point x="620" y="387" type="curve"/>
      <point x="660" y="388"/>
      <point x="687" y="357"/>
    </contour>
    <contour>
      <point x="18" y="34" type="curve"/>
      <point x="21" y="0" type="line"/>
      <point x="122" y="0" type="line"/>
      <point x="133" y="78" type="line"/>
      <point x="100" y="70"/>
      <point x="51" y="53"/>
    </contour>
    <contour>
      <point x="182" y="91" type="curve"/>
      <point x="165" y="0" type="line"/>
      <point x="293" y="0" type="line"/>
      <point x="297" y="49" type="line"/>
      <point x="264" y="69"/>
      <point x="221" y="83"/>
    </contour>
    <contour>
      <point x="91" y="446" type="line"/>
      <point x="91" y="0" type="line"/>
      <point x="236" y="0" type="line"/>
      <point x="236" y="446" type="line"/>
      <point x="187" y="494" type="line"/>
    </contour>
    <contour>
      <point x="334" y="34" type="curve"/>
      <point x="337" y="0" type="line"/>
      <point x="438" y="0" type="line"/>
      <point x="449" y="78" type="line"/>
      <point x="416" y="70"/>
      <point x="367" y="53"/>
    </contour>
    <contour>
      <point x="16" y="411" type="line"/>
      <point x="125" y="398" type="line"/>
      <point x="191" y="438" type="line"/>
      <point x="187" y="494" type="line"/>
      <point x="126" y="492"/>
      <point x="61" y="479"/>
      <point x="9" y="459" type="curve"/>
    </contour>
    <contour>
      <point x="480" y="91" type="curve"/>
      <point x="463" y="0" type="line"/>
      <point x="593" y="0" type="line"/>
      <point x="597" y="49" type="line"/>
      <point x="565" y="69"/>
      <point x="519" y="83"/>
    </contour>
    <contour>
      <point x="389" y="289" type="curve"/>
      <point x="389" y="0" type="line"/>
      <point x="534" y="0" type="line"/>
      <point x="534" y="297" type="line" smooth="yes"/>
      <point x="534" y="377"/>
      <point x="531" y="403"/>
      <point x="521" y="421" type="curve"/>
      <point x="493" y="467"/>
      <point x="437" y="489"/>
      <point x="399" y="491" type="curve"/>
      <point x="338" y="476"/>
      <point x="247" y="420"/>
      <point x="160" y="343" type="curve"/>
      <point x="170" y="311" type="line"/>
      <point x="218" y="348"/>
      <point x="279" y="385"/>
      <point x="322" y="387" type="curve"/>
      <point x="362" y="388"/>
      <point x="389" y="357"/>
    </contour>
    <contour>
      <point x="631" y="34" type="curve"/>
      <point x="634" y="0" type="line"/>
      <point x="735" y="0" type="line"/>
      <point x="746" y="78" type="line"/>
      <point x="713" y="70"/>
      <point x="664" y="53"/>
    </contour>
    <contour>
      <point x="777" y="91" type="curve"/>
      <point x="760" y="0" type="line"/>
      <point x="898" y="0" type="line"/>
      <point x="902" y="49" type="line"/>
      <point x="870" y="69"/>
      <point x="816" y="83"/>
    </contour>
  </outline>
</glyph>
<glyph name="n" format="1">
  <advance width="623"/>
  <unicode hex="006E"/>
  <outline>
    <contour>
      <point x="125" y="398" type="line"/>
      <point x="191" y="438" type="line"/>
      <point x="187" y="494" type="line"/>
      <point x="126" y="492"/>
      <point x="61" y="479"/>
      <point x="9" y="459" type="curve"/>
      <point x="16" y="411" type="line"/>
    </contour>
    <contour>
      <point x="91" y="0" type="line"/>
      <point x="236" y="0" type="line"/>
      <point x="236" y="446" type="line"/>
      <point x="187" y="494" type="line"/>
      <point x="91" y="446" type="line"/>
    </contour>
    <contour>
      <point x="122" y="0" type="line"/>
      <point x="133" y="78" type="line"/>
      <point x="100" y="70"/>
      <point x="51" y="53"/>
      <point x="18" y="34" type="curve"/>
      <point x="21" y="0" type="line"/>
    </contour>
    <contour>
      <point x="293" y="0" type="line"/>
      <point x="297" y="49" type="line"/>
      <point x="264" y="69"/>
      <point x="221" y="83"/>
      <point x="182" y="91" type="curve"/>
      <point x="165" y="0" type="line"/>
    </contour>
    <contour>
      <point x="444" y="0" type="line"/>
      <point x="455" y="78" type="line"/>
      <point x="422" y="70"/>
      <point x="373" y="53"/>
      <point x="340" y="34" type="curve"/>
      <point x="343" y="0" type="line"/>
    </contour>
    <contour>
      <point x="607" y="0" type="line"/>
      <point x="611" y="49" type="line"/>
      <point x="579" y="69"/>
      <point x="525" y="83"/>
      <point x="486" y="91" type="curve"/>
      <point x="469" y="0" type="line"/>
    </contour>
    <contour>
      <point x="395" y="0" type="line"/>
      <point x="540" y="0" type="line"/>
      <point x="540" y="297" type="line" smooth="yes"/>
      <point x="540" y="377"/>
      <point x="537" y="403"/>
      <point x="527" y="421" type="curve" smooth="yes"/>
      <point x="499" y="467"/>
      <point x="443" y="489"/>
      <point x="405" y="491" type="curve"/>
      <point x="344" y="476"/>
      <point x="253" y="420"/>
      <point x="166" y="343" type="curve"/>
      <point x="176" y="311" type="line"/>
      <point x="224" y="348"/>
      <point x="285" y="385"/>
      <point x="328" y="387" type="curve" smooth="yes"/>
      <point x="368" y="388"/>
      <point x="395" y="357"/>
      <point x="395" y="289" type="curve" smooth="yes"/>
    </contour>
    <contour>
      <point x="311" y="468" type="move" name="top"/>
    </contour>
    <contour>
      <point x="323" y="0" type="move" name="bottom"/>
    </contour>
  </outline>
</glyph>
<glyph name="o" format="1">
  <advance width="515"/>
  <unicode hex="006F"/>
  <outline>
    <contour>
      <point x="14" y="78"/>
      <point x="130" y="-20"/>
      <point x="260" y="-20" type="curve" smooth="yes"/>
      <point x="386" y="-20"/>
      <point x="496" y="69"/>
      <point x="496" y="236" type="curve" smooth="yes"/>
      <point x="496" y="403"/>
      <point x="384" y="496"/>
      <point x="257" y="496" type="curve" smooth="yes"/>
      <point x="129" y="496"/>
      <point x="14" y="404"/>
      <point x="14" y="241" type="curve" smooth="yes"/>
    </contour>
    <contour>
      <point x="288" y="63"/>
      <point x="277" y="62"/>
      <point x="267" y="62" type="curve" smooth="yes"/>
      <point x="192" y="62"/>
      <point x="162" y="145"/>
      <point x="162" y="243" type="curve" smooth="yes"/>
      <point x="162" y="306"/>
      <point x="173" y="364"/>
      <point x="198" y="397" type="curve"/>
      <point x="210" y="405"/>
      <point x="229" y="411"/>
      <point x="249" y="411" type="curve" smooth="yes"/>
      <point x="320" y="411"/>
      <point x="348" y="325"/>
      <point x="348" y="224" type="curve" smooth="yes"/>
      <point x="348" y="162"/>
      <point x="339" y="94"/>
      <point x="301" y="67" type="curve"/>
    </contour>
    <contour>
      <point x="255" y="468" type="move" name="top"/>
    </contour>
  </outline>
</glyph>
<glyph name="p" format="1">
  <advance width="585"/>
  <unicode hex="0070"/>
  <outline>
    <contour>
      <point x="90" y="-203" type="line"/>
      <point x="235" y="-203" type="line"/>
      <point x="235" y="450" type="line"/>
      <point x="186" y="494" type="line"/>
      <point x="90" y="446" type="line"/>
    </contour>
    <contour>
      <point x="128" y="-203" type="line"/>
      <point x="139" y="-125" type="line"/>
      <point x="106" y="-137"/>
      <point x="57" y="-154"/>
      <point x="24" y="-168" type="curve"/>
      <point x="27" y="-203" type="line"/>
    </contour>
    <contour>
      <point x="322" y="-203" type="line"/>
      <point x="326" y="-154" type="line"/>
      <point x="293" y="-138"/>
      <point x="250" y="-124"/>
      <point x="211" y="-112" type="curve"/>
      <point x="194" y="-203" type="line"/>
    </contour>
    <contour>
      <point x="185" y="330" type="line"/>
      <point x="228" y="359"/>
      <point x="269" y="383"/>
      <point x="306" y="383" type="curve" smooth="yes"/>
      <point x="371" y="383"/>
      <point x="409" y="310"/>
      <point x="409" y="231" type="curve" smooth="yes"/>
      <point x="409" y="167"/>
      <point x="385" y="101"/>
      <point x="344" y="69" type="curve"/>
      <point x="269" y="62"/>
      <point x="201" y="90"/>
      <point x="171" y="119" type="curve"/>
      <point x="109" y="39" type="line"/>
      <point x="173" y="9"/>
      <point x="246" y="-10"/>
      <point x="307" y="-10" type="curve" smooth="yes"/>
      <point x="469" y="-10"/>
      <point x="563" y="114"/>
      <point x="563" y="258" type="curve" smooth="yes"/>
      <point x="563" y="394"/>
      <point x="479" y="513"/>
      <point x="342" y="488" type="curve"/>
      <point x="176" y="370" type="line"/>
    </contour>
    <contour>
      <point x="125" y="398" type="line"/>
      <point x="195" y="457" type="line"/>
      <point x="187" y="494" type="line"/>
      <point x="126" y="492"/>
      <point x="61" y="479"/>
      <point x="9" y="459" type="curve"/>
      <point x="16" y="411" type="line"/>
    </contour>
  </outline>
</glyph>
<glyph name="q" format="1">
  <advance width="569"/>
  <unicode hex="0071"/>
  <outline>
    <contour>
      <point x="542" y="425" type="line"/>
      <point x="525" y="473" type="line"/>
      <point x="361" y="449" type="line"/>
      <point x="339" y="426" type="line"/>
      <point x="339" y="-203" type="line"/>
      <point x="484" y="-203" type="line"/>
      <point x="484" y="380" type="line"/>
    </contour>
    <contour>
      <point x="353" y="-203" type="line"/>
      <point x="355" y="-125" type="line"/>
      <point x="322" y="-133"/>
      <point x="273" y="-150"/>
      <point x="240" y="-168" type="curve"/>
      <point x="243" y="-203" type="line"/>
    </contour>
    <contour>
      <point x="536" y="-203" type="line"/>
      <point x="540" y="-154" type="line"/>
      <point x="507" y="-134"/>
      <point x="464" y="-120"/>
      <point x="425" y="-112" type="curve"/>
      <point x="408" y="-203" type="line"/>
    </contour>
    <contour>
      <point x="412" y="156" type="line"/>
      <point x="359" y="116"/>
      <point x="312" y="98"/>
      <point x="277" y="98" type="curve" smooth="yes"/>
      <point x="207" y="98"/>
      <point x="166" y="167"/>
      <point x="166" y="252" type="curve" smooth="yes"/>
      <point x="166" y="314"/>
      <point x="188" y="377"/>
      <point x="227" y="413" type="curve"/>
      <point x="302" y="421"/>
      <point x="371" y="383"/>
      <point x="406" y="333" type="curve"/>
      <point x="489" y="437" type="line"/>
      <point x="421" y="472"/>
      <point x="355" y="497"/>
      <point x="285" y="497" type="curve" smooth="yes"/>
      <point x="125" y="497"/>
      <point x="14" y="381"/>
      <point x="14" y="235" type="curve" smooth="yes"/>
      <point x="14" y="106"/>
      <point x="100" y="-16"/>
      <point x="240" y="-13" type="curve"/>
      <point x="406" y="107" type="line"/>
    </contour>
  </outline>
</glyph>
<glyph name="s" format="1">
  <advance width="446"/>
  <unicode hex="0073"/>
  <outline>
    <contour>
      <point x="20" y="33" type="line"/>
      <point x="90" y="-4"/>
      <point x="159" y="-20"/>
      <point x="218" y="-20" type="curve" smooth="yes"/>
      <point x="337" y="-20"/>
      <point x="412" y="44"/>
      <point x="412" y="132" type="curve" smooth="yes"/>
      <point x="412" y="289"/>
      <point x="167" y="286"/>
      <point x="167" y="377" type="curve" smooth="yes"/>
      <point x="167" y="393"/>
      <point x="174" y="413"/>
      <point x="205" y="424" type="curve"/>
      <point x="252" y="426"/>
      <point x="316" y="410"/>
      <point x="358" y="379" type="curve"/>
      <point x="392" y="464" type="line"/>
      <point x="350" y="486"/>
      <point x="296" y="496"/>
      <point x="246" y="496" type="curve" smooth="yes"/>
      <point x="128" y="496"/>
      <point x="36" y="438"/>
      <point x="36" y="344" type="curve" smooth="yes"/>
      <point x="36" y="191"/>
      <point x="277" y="196"/>
      <point x="277" y="102" type="curve" smooth="yes"/>
      <point x="277" y="85"/>
      <point x="270" y="69"/>
      <point x="256" y="57" type="curve"/>
      <point x="189" y="75"/>
      <point x="123" y="111"/>
      <point x="70" y="150" type="curve"/>
    </contour>
    <contour>
      <point x="376" y="328" type="line"/>
      <point x="391" y="372"/>
      <point x="395" y="419"/>
      <point x="392" y="464" type="curve"/>
      <point x="262" y="466" type="line"/>
      <point x="299" y="328" type="line"/>
    </contour>
  </outline>
</glyph>
<glyph name="t" format="1">
  <advance width="382"/>
  <unicode hex="0074"/>
  <outline>
    <contour>
      <point x="347" y="110" type="line"/>
      <point x="321" y="104"/>
      <point x="287" y="97"/>
      <point x="263" y="97" type="curve" smooth="yes"/>
      <point x="237" y="97"/>
      <point x="227" y="108"/>
      <point x="227" y="143" type="curve" smooth="yes"/>
      <point x="227" y="445" type="line"/>
      <point x="207" y="601" type="line"/>
      <point x="139" y="601" type="line"/>
      <point x="82" y="453" type="line"/>
      <point x="82" y="84" type="line" smooth="yes"/>
      <point x="82" y="31"/>
      <point x="146" y="-19"/>
      <point x="204" y="-16" type="curve"/>
      <point x="358" y="61" type="line"/>
    </contour>
    <contour>
      <point x="165" y="373" type="line"/>
      <point x="189" y="435" type="line"/>
      <point x="164" y="505" type="line"/>
      <point x="105" y="481"/>
      <point x="53" y="455"/>
      <point x="8" y="423" type="curve"/>
      <point x="12" y="371" type="line"/>
    </contour>
    <contour>
      <point x="169" y="370" type="line"/>
      <point x="314" y="370" type="line"/>
      <point x="363" y="428" type="line"/>
      <point x="361" y="471" type="line"/>
      <point x="169" y="471" type="line"/>
    </contour>
    <contour>
      <point x="194" y="234" type="move" name="center"/>
    </contour>
    <contour>
      <point x="194" y="0" type="move" name="bottom"/>
    </contour>
    <contour>
      <point x="370" y="468" type="move" name="topright"/>
    </contour>
  </outline>
</glyph>
<glyph name="v" format="1">
  <advance width="533"/>
  <unicode hex="0076"/>
  <outline>
    <contour>
      <point x="-22" y="423" type="line"/>
      <point x="134" y="354" type="line"/>
      <point x="171" y="475" type="line"/>
      <point x="-22" y="475" type="line"/>
    </contour>
    <contour>
      <point x="137" y="475" type="line"/>
      <point x="162" y="395" type="line"/>
      <point x="190" y="404"/>
      <point x="216" y="416"/>
      <point x="241" y="431" type="curve"/>
      <point x="238" y="475" type="line"/>
    </contour>
    <contour>
      <point x="222" y="-10"/>
      <point x="291" y="-10"/>
      <point x="330" y="3" type="curve"/>
      <point x="396" y="159"/>
      <point x="457" y="323"/>
      <point x="515" y="475" type="curve"/>
      <point x="362" y="475" type="line"/>
      <point x="341" y="365"/>
      <point x="313" y="236"/>
      <point x="285" y="126" type="curve"/>
      <point x="267" y="126" type="line"/>
      <point x="253" y="213" type="line"/>
      <point x="170" y="475" type="line"/>
      <point x="16" y="459" type="line"/>
      <point x="182" y="-3" type="line"/>
    </contour>
    <contour>
      <point x="431" y="373" type="line"/>
      <point x="437" y="475" type="line"/>
      <point x="298" y="475" type="line"/>
      <point x="297" y="423" type="line"/>
    </contour>
    <contour>
      <point x="408" y="475" type="line"/>
      <point x="461" y="395" type="line"/>
      <point x="489" y="404"/>
      <point x="515" y="416"/>
      <point x="540" y="431" type="curve"/>
      <point x="537" y="475" type="line"/>
    </contour>
  </outline>
</glyph>
<glyph name="w" format="1">
  <advance width="768"/>
  <unicode hex="0077"/>
  <outline>
    <contour>
      <point x="-22" y="423" type="line"/>
      <point x="130" y="354" type="line"/>
      <point x="159" y="475" type="line"/>
      <point x="-22" y="475" type="line"/>
    </contour>
    <contour>
      <point x="133" y="475" type="line"/>
      <point x="158" y="395" type="line"/>
      <point x="186" y="404"/>
      <point x="212" y="416"/>
      <point x="237" y="431" type="curve"/>
      <point x="234" y="475" type="line"/>
    </contour>
    <contour>
      <point x="748" y="475" type="line"/>
      <point x="598" y="475" type="line"/>
      <point x="538" y="110" type="line"/>
      <point x="530" y="110" type="line"/>
      <point x="511" y="212" type="line"/>
      <point x="423" y="471" type="line"/>
      <point x="283" y="457" type="line"/>
      <point x="445" y="-3" type="line"/>
      <point x="484" y="-11"/>
      <point x="551" y="-9"/>
      <point x="593" y="5" type="curve"/>
    </contour>
    <contour>
      <point x="663" y="373" type="line"/>
      <point x="669" y="475" type="line"/>
      <point x="530" y="475" type="line"/>
      <point x="529" y="423" type="line"/>
    </contour>
    <contour>
      <point x="644" y="475" type="line"/>
      <point x="697" y="395" type="line"/>
      <point x="725" y="404"/>
      <point x="751" y="416"/>
      <point x="776" y="431" type="curve"/>
      <point x="773" y="475" type="line"/>
    </contour>
    <contour>
      <point x="355" y="329" type="line"/>
      <point x="277" y="110" type="line"/>
      <point x="269" y="110" type="line"/>
      <point x="245" y="212" type="line"/>
      <point x="161" y="475" type="line"/>
      <point x="13" y="459" type="line"/>
      <point x="169" y="-3" type="line"/>
      <point x="209" y="-10"/>
      <point x="277" y="-9"/>
      <point x="317" y="5" type="curve"/>
      <point x="390" y="176" type="line"/>
      <point x="412" y="274" type="line"/>
    </contour>
    <contour>
      <point x="375" y="468" type="move" name="top"/>
    </contour>
  </outline>
</glyph>
<glyph name="x" format="1">
  <advance width="569"/>
  <unicode hex="0078"/>
  <outline>
    <contour>
      <point x="20" y="423" type="line"/>
      <point x="176" y="354" type="line"/>
      <point x="206" y="475" type="line"/>
      <point x="21" y="475" type="line"/>
    </contour>
    <contour>
      <point x="213" y="404"/>
      <point x="239" y="416"/>
      <point x="264" y="431" type="curve"/>
      <point x="261" y="475" type="line"/>
      <point x="160" y="475" type="line"/>
      <point x="185" y="395" type="line" smooth="yes"/>
    </contour>
    <contour>
      <point x="428" y="388" type="line"/>
      <point x="506" y="475" type="line"/>
      <point x="314" y="475" type="line"/>
      <point x="313" y="423" type="line"/>
    </contour>
    <contour>
      <point x="410" y="475" type="line"/>
      <point x="451" y="392" type="line"/>
      <point x="481" y="401"/>
      <point x="517" y="417"/>
      <point x="542" y="431" type="curve"/>
      <point x="539" y="475" type="line"/>
    </contour>
    <contour>
      <point x="386" y="0" type="line"/>
      <point x="542" y="0" type="line"/>
      <point x="194" y="475" type="line"/>
      <point x="51" y="442" type="line"/>
    </contour>
    <contour>
      <point x="493" y="415" type="line"/>
      <point x="507" y="475" type="line"/>
      <point x="384" y="475" type="line"/>
      <point x="294" y="289" type="line"/>
      <point x="330" y="222" type="line"/>
    </contour>
    <contour>
      <point x="18" y="12" type="line"/>
      <point x="61" y="0" type="line"/>
      <point x="169" y="0" type="line"/>
      <point x="265" y="191" type="line"/>
      <point x="220" y="257" type="line"/>
    </contour>
    <contour>
      <point x="103" y="0" type="line"/>
      <point x="114" y="78" type="line"/>
      <point x="81" y="70"/>
      <point x="32" y="53"/>
      <point x="-1" y="34" type="curve"/>
      <point x="2" y="0" type="line"/>
    </contour>
    <contour>
      <point x="253" y="0" type="line"/>
      <point x="257" y="49" type="line"/>
      <point x="224" y="69"/>
      <point x="181" y="83"/>
      <point x="142" y="91" type="curve"/>
      <point x="119" y="0" type="line"/>
    </contour>
    <contour>
      <point x="438" y="0" type="line"/>
      <point x="419" y="78" type="line"/>
      <point x="386" y="70"/>
      <point x="337" y="53"/>
      <point x="304" y="34" type="curve"/>
      <point x="307" y="0" type="line"/>
    </contour>
    <contour>
      <point x="559" y="0" type="line"/>
      <point x="563" y="49" type="line"/>
      <point x="530" y="69"/>
      <point x="487" y="83"/>
      <point x="448" y="91" type="curve"/>
      <point x="425" y="0" type="line"/>
    </contour>
  </outline>
</glyph>
<glyph name="bar" format="1">
  <advance width="313"/>
  <unicode hex="007C"/>
  <outline>
    <contour>
      <point x="100" y="735" type="line"/>
      <point x="100" y="-225" type="line"/>
      <point x="212" y="-225" type="line"/>
      <point x="211" y="735" type="line"/>
    </contour>
  </outline>
</glyph>
<glyph name="braceright" format="1">
  <advance width="496"/>
  <unicode hex="007D"/>
  <outline>
    <contour>
      <point x="254" y="-135"/>
      <point x="341" y="-48"/>
      <point x="341" y="22" type="curve" smooth="yes"/>
      <point x="341" y="142" type="line" smooth="yes"/>
      <point x="341" y="223"/>
      <point x="346" y="262"/>
      <point x="428" y="268" type="curve"/>
      <point x="422" y="327" type="line"/>
      <point x="348" y="333"/>
      <point x="341" y="374"/>
      <point x="341" y="443" type="curve" smooth="yes"/>
      <point x="341" y="549" type="line" smooth="yes"/>
      <point x="341" y="628"/>
      <point x="268" y="715"/>
      <point x="91" y="729" type="curve"/>
      <point x="85" y="632" type="line"/>
      <point x="194" y="632" type="line"/>
      <point x="186" y="449" type="line" smooth="yes"/>
      <point x="183" y="398"/>
      <point x="202" y="348"/>
      <point x="240" y="304" type="curve"/>
      <point x="240" y="295" type="line"/>
      <point x="202" y="250"/>
      <point x="183" y="202"/>
      <point x="186" y="149" type="curve" smooth="yes"/>
      <point x="194" y="-36" type="line"/>
      <point x="88" y="-48" type="line"/>
      <point x="98" y="-145" type="line"/>
    </contour>
  </outline>
</glyph>
<glyph name="cent" format="1">
  <advance width="447"/>
  <unicode hex="00A2"/>
  <outline>
    <contour>
      <point x="214" y="24" type="line"/>
      <point x="214" y="-116" type="line"/>
      <point x="300" y="-116" type="line"/>
      <point x="300" y="24" type="line"/>
    </contour>
    <contour>
      <point x="214" y="601" type="line"/>
      <point x="214" y="462" type="line"/>
      <point x="300" y="462" type="line"/>
      <point x="300" y="601" type="line"/>
    </contour>
    <component base="c" yScale="0.931" yOffset="22"/>
  </outline>
</glyph>
<glyph name="sterling" format="1">
  <advance width="564"/>
  <unicode hex="00A3"/>
  <outline>
    <contour>
      <point x="156" y="670"/>
      <point x="75" y="562"/>
      <point x="75" y="472" type="curve" smooth="yes"/>
      <point x="75" y="352"/>
      <point x="219" y="226"/>
      <point x="48" y="0" type="curve"/>
      <point x="136" y="0" type="line"/>
      <point x="368" y="206"/>
      <point x="227" y="362"/>
      <point x="227" y="492" type="curve" smooth="yes"/>
      <point x="227" y="525"/>
      <point x="236" y="565"/>
      <point x="269" y="587" type="curve"/>
      <point x="337" y="583"/>
      <point x="397" y="565"/>
      <point x="445" y="512" type="curve"/>
      <point x="502" y="627" type="line"/>
      <point x="454" y="650"/>
      <point x="385" y="670"/>
      <point x="316" y="670" type="curve" smooth="yes"/>
    </contour>
    <contour>
      <point x="78" y="65"/>
      <point x="43" y="50"/>
      <point x="14" y="32" type="curve"/>
      <point x="20" y="0" type="line"/>
      <point x="114" y="0" type="line"/>
      <point x="113" y="79" type="line"/>
    </contour>
    <contour>
      <point x="205" y="86" type="line"/>
      <point x="114" y="0" type="line"/>
      <point x="523" y="0" type="line"/>
      <point x="506" y="103" type="line"/>
    </contour>
    <contour>
      <point x="409" y="305" type="line"/>
      <point x="403" y="338" type="line"/>
      <point x="235" y="338" type="line"/>
      <point x="199" y="324" type="line"/>
      <point x="67" y="324" type="line"/>
      <point x="24" y="286" type="line"/>
      <point x="30" y="253" type="line"/>
      <point x="187" y="253" type="line"/>
      <point x="225" y="267" type="line"/>
      <point x="366" y="267" type="line"/>
    </contour>
    <contour>
      <point x="503" y="499"/>
      <point x="506" y="588"/>
      <point x="503" y="627" type="curve"/>
      <point x="350" y="606" type="line"/>
      <point x="414" y="444" type="line"/>
      <point x="491" y="443" type="line"/>
    </contour>
    <contour>
      <point x="448" y="212" type="line"/>
      <point x="375" y="24" type="line"/>
      <point x="523" y="0" type="line"/>
      <point x="529" y="46"/>
      <point x="529" y="149"/>
      <point x="522" y="206" type="curve"/>
    </contour>
  </outline>
</glyph>
<glyph name="currency" format="1">
  <advance width="510"/>
  <unicode hex="00A4"/>
  <outline>
    <contour>
      <point x="73" y="249"/>
      <point x="149" y="165"/>
      <point x="254" y="165" type="curve" smooth="yes"/>
      <point x="343" y="165"/>
      <point x="434" y="233"/>
      <point x="434" y="358" type="curve" smooth="yes"/>
      <point x="434" y="481"/>
      <point x="350" y="545"/>
      <point x="258" y="545" type="curve" smooth="yes"/>
      <point x="166" y="545"/>
      <point x="73" y="473"/>
      <point x="73" y="357" type="curve" smooth="yes"/>
    </contour>
    <contour>
      <point x="293" y="247"/>
      <point x="280" y="246"/>
      <point x="270" y="246" type="curve" smooth="yes"/>
      <point x="195" y="246"/>
      <point x="164" y="305"/>
      <point x="164" y="362" type="curve" smooth="yes"/>
      <point x="164" y="402"/>
      <point x="180" y="441"/>
      <point x="202" y="459" type="curve"/>
      <point x="215" y="462"/>
      <point x="225" y="463"/>
      <point x="236" y="463" type="curve" smooth="yes"/>
      <point x="317" y="463"/>
      <point x="343" y="402"/>
      <point x="343" y="348" type="curve" smooth="yes"/>
      <point x="343" y="304"/>
      <point x="325" y="262"/>
      <point x="306" y="250" type="curve"/>
    </contour>
    <contour>
      <point x="132" y="255" type="line"/>
      <point x="58" y="170" type="line"/>
      <point x="108" y="125" type="line"/>
      <point x="181" y="213" type="line"/>
    </contour>
    <contour>
      <point x="330" y="212" type="line"/>
      <point x="408" y="127" type="line"/>
      <point x="456" y="174" type="line"/>
      <point x="378" y="259" type="line"/>
    </contour>
    <contour>
      <point x="177" y="500" type="line"/>
      <point x="103" y="583" type="line"/>
      <point x="52" y="538" type="line"/>
      <point x="129" y="451" type="line"/>
    </contour>
    <contour>
      <point x="380" y="450" type="line"/>
      <point x="458" y="539" type="line"/>
      <point x="406" y="582" type="line"/>
      <point x="333" y="495" type="line"/>
    </contour>
  </outline>
</glyph>
<glyph name="yen" format="1">
  <advance width="629"/>
  <unicode hex="00A5"/>
  <outline>
    <contour>
      <point x="101" y="270" type="line"/>
      <point x="107" y="237" type="line"/>
      <point x="470" y="237" type="line"/>
      <point x="513" y="269" type="line"/>
      <point x="507" y="302" type="line"/>
      <point x="144" y="302" type="line"/>
    </contour>
    <contour>
      <point x="101" y="150" type="line"/>
      <point x="107" y="117" type="line"/>
      <point x="470" y="117" type="line"/>
      <point x="513" y="149" type="line"/>
      <point x="507" y="182" type="line"/>
      <point x="144" y="182" type="line"/>
    </contour>
    <component base="Y" xOffset="-20"/>
  </outline>
</glyph>
<glyph name="brokenbar" format="1">
  <advance width="313"/>
  <unicode hex="00A6"/>
  <outline>
    <contour>
      <point x="211" y="358" type="line"/>
      <point x="211" y="616" type="line"/>
      <point x="100" y="616" type="line"/>
      <point x="100" y="358" type="line"/>
    </contour>
    <contour>
      <point x="211" y="-76" type="line"/>
      <point x="211" y="182" type="line"/>
      <point x="100" y="182" type="line"/>
      <point x="100" y="-76" type="line"/>
    </contour>
  </outline>
</glyph>
<glyph name="section" format="1">
  <advance width="522"/>
  <unicode hex="00A7"/>
  <outline>
    <contour>
      <point x="328" y="150" type="curve"/>
      <point x="373" y="109" type="line"/>
      <point x="445" y="145"/>
      <point x="483" y="190"/>
      <point x="483" y="251" type="curve"/>
      <point x="483" y="347"/>
      <point x="386" y="391"/>
      <point x="311" y="424" type="curve"/>
      <point x="234" y="456"/>
      <point x="185" y="474"/>
      <point x="185" y="521" type="curve"/>
      <point x="185" y="548"/>
      <point x="202" y="576"/>
      <point x="228" y="591" type="curve"/>
      <point x="304" y="602"/>
      <point x="374" y="578"/>
      <point x="416" y="539" type="curve"/>
      <point x="456" y="638" type="line"/>
      <point x="411" y="656"/>
      <point x="346" y="671"/>
      <point x="288" y="671" type="curve"/>
      <point x="162" y="671"/>
      <point x="61" y="605"/>
      <point x="61" y="503" type="curve"/>
      <point x="61" y="424"/>
      <point x="124" y="376"/>
      <point x="222" y="334" type="curve"/>
      <point x="293" y="305"/>
      <point x="371" y="282"/>
      <point x="371" y="218" type="curve"/>
      <point x="371" y="192"/>
      <point x="358" y="175"/>
    </contour>
    <contour>
      <point x="265" y="-149" type="curve"/>
      <point x="377" y="-149"/>
      <point x="465" y="-82"/>
      <point x="465" y="13" type="curve"/>
      <point x="465" y="91"/>
      <point x="405" y="139"/>
      <point x="307" y="178" type="curve"/>
      <point x="230" y="209"/>
      <point x="161" y="229"/>
      <point x="161" y="284" type="curve"/>
      <point x="161" y="314"/>
      <point x="182" y="339"/>
      <point x="213" y="360" type="curve"/>
      <point x="184" y="411" type="line"/>
      <point x="107" y="383"/>
      <point x="52" y="331"/>
      <point x="52" y="259" type="curve"/>
      <point x="52" y="172"/>
      <point x="133" y="130"/>
      <point x="222" y="90" type="curve"/>
      <point x="291" y="62"/>
      <point x="354" y="46"/>
      <point x="354" y="-5" type="curve"/>
      <point x="354" y="-23"/>
      <point x="344" y="-43"/>
      <point x="325" y="-59" type="curve"/>
      <point x="262" y="-55"/>
      <point x="181" y="-26"/>
      <point x="116" y="23" type="curve"/>
      <point x="58" y="-89" type="line"/>
      <point x="123" y="-131"/>
      <point x="208" y="-149"/>
    </contour>
    <contour>
      <point x="367" y="478" type="line"/>
      <point x="444" y="477" type="line"/>
      <point x="456" y="533"/>
      <point x="459" y="598"/>
      <point x="456" y="638" type="curve"/>
      <point x="327" y="616" type="line"/>
    </contour>
  </outline>
</glyph>
<glyph name="guillemetleft" format="1">
  <advance width="581"/>
  <unicode hex="00AB"/>
  <outline>
    <contour>
      <point x="290" y="220" type="line"/>
      <point x="448" y="38" type="line"/>
      <point x="525" y="90" type="line"/>
      <point x="430" y="253" type="line"/>
      <point x="519" y="424" type="line"/>
      <point x="445" y="472" type="line"/>
      <point x="290" y="286" type="line"/>
    </contour>
    <contour>
      <point x="56" y="220" type="line"/>
      <point x="214" y="38" type="line"/>
      <point x="291" y="90" type="line"/>
      <point x="196" y="253" type="line"/>
      <point x="285" y="424" type="line"/>
      <point x="211" y="472" type="line"/>
      <point x="56" y="286" type="line"/>
    </contour>
  </outline>
</glyph>
<glyph name="logicalnot" format="1">
  <advance width="592"/>
  <unicode hex="00AC"/>
  <outline>
    <contour>
      <point x="56" y="273" type="line"/>
      <point x="56" y="186" type="line"/>
      <point x="536" y="186" type="line"/>
      <point x="536" y="273" type="line"/>
    </contour>
    <contour>
      <point x="536" y="273" type="line"/>
      <point x="439" y="273" type="line"/>
      <point x="439" y="0" type="line"/>
      <point x="536" y="0" type="line"/>
    </contour>
  </outline>
</glyph>
<glyph name="degree" format="1">
  <advance width="364"/>
  <unicode hex="00B0"/>
  <outline>
    <contour>
      <point x="193" y="445"/>
      <point x="183" y="444"/>
      <point x="174" y="444" type="curve" smooth="yes"/>
      <point x="130" y="444"/>
      <point x="107" y="481"/>
      <point x="107" y="518" type="curve" smooth="yes"/>
      <point x="107" y="538"/>
      <point x="114" y="558"/>
      <point x="126" y="574" type="curve"/>
      <point x="138" y="579"/>
      <point x="149" y="581"/>
      <point x="159" y="581" type="curve" smooth="yes"/>
      <point x="201" y="581"/>
      <point x="225" y="543"/>
      <point x="225" y="505" type="curve" smooth="yes"/>
      <point x="225" y="484"/>
      <point x="218" y="463"/>
      <point x="203" y="448" type="curve"/>
    </contour>
    <contour>
      <point x="30" y="431"/>
      <point x="95" y="377"/>
      <point x="169" y="377" type="curve" smooth="yes"/>
      <point x="248" y="377"/>
      <point x="304" y="430"/>
      <point x="304" y="513" type="curve" smooth="yes"/>
      <point x="304" y="590"/>
      <point x="244" y="650"/>
      <point x="165" y="650" type="curve" smooth="yes"/>
      <point x="89" y="650"/>
      <point x="30" y="590"/>
      <point x="30" y="513" type="curve" smooth="yes"/>
    </contour>
  </outline>
</glyph>
<glyph name="plusminus" format="1">
  <advance width="546"/>
  <unicode hex="00B1"/>
  <outline>
    <contour>
      <point x="225" y="332" type="line"/>
      <point x="225" y="153" type="line"/>
      <point x="322" y="153" type="line"/>
      <point x="322" y="332" type="line"/>
      <point x="490" y="332" type="line"/>
      <point x="490" y="417" type="line"/>
      <point x="322" y="417" type="line"/>
      <point x="322" y="595" type="line"/>
      <point x="225" y="595" type="line"/>
      <point x="225" y="417" type="line"/>
      <point x="56" y="417" type="line"/>
      <point x="56" y="332" type="line"/>
    </contour>
    <contour>
      <point x="59" y="86" type="line"/>
      <point x="60" y="0" type="line"/>
      <point x="483" y="0" type="line"/>
      <point x="483" y="86" type="line"/>
    </contour>
  </outline>
</glyph>
<glyph name="twosuperior" format="1">
  <advance width="308"/>
  <unicode hex="00B2"/>
  <outline>
    <contour>
      <point x="90" y="613" type="line"/>
      <point x="118" y="709" type="line"/>
      <point x="29" y="712" type="line"/>
      <point x="26" y="687"/>
      <point x="32" y="637"/>
      <point x="38" y="613" type="curve"/>
    </contour>
    <contour>
      <point x="42" y="421" type="line"/>
      <point x="268" y="421" type="line"/>
      <point x="283" y="509" type="line"/>
      <point x="139" y="481" type="line"/>
      <point x="136" y="487" type="line"/>
      <point x="223" y="546"/>
      <point x="269" y="599"/>
      <point x="269" y="650" type="curve" smooth="yes"/>
      <point x="269" y="703"/>
      <point x="224" y="751"/>
      <point x="149" y="751" type="curve" smooth="yes"/>
      <point x="107" y="751"/>
      <point x="64" y="737"/>
      <point x="29" y="712" type="curve"/>
      <point x="76" y="693" type="line"/>
      <point x="93" y="701"/>
      <point x="113" y="705"/>
      <point x="125" y="705" type="curve" smooth="yes"/>
      <point x="155" y="705"/>
      <point x="178" y="682"/>
      <point x="178" y="649" type="curve" smooth="yes"/>
      <point x="178" y="627"/>
      <point x="165" y="597"/>
      <point x="104" y="540" type="curve" smooth="yes"/>
      <point x="25" y="466" type="line"/>
    </contour>
  </outline>
</glyph>
<glyph name="threesuperior" format="1">
  <advance width="316"/>
  <unicode hex="00B3"/>
  <outline>
    <contour>
      <point x="136" y="723" type="line"/>
      <point x="42" y="720" type="line"/>
      <point x="40" y="696"/>
      <point x="43" y="656"/>
      <point x="49" y="632" type="curve"/>
      <point x="94" y="631" type="line"/>
    </contour>
    <contour>
      <point x="103" y="597" type="line"/>
      <point x="105" y="551" type="line"/>
      <point x="217" y="585" type="line"/>
      <point x="217" y="589" type="line"/>
      <point x="255" y="603"/>
      <point x="271" y="634"/>
      <point x="271" y="662" type="curve" smooth="yes"/>
      <point x="271" y="710"/>
      <point x="223" y="751"/>
      <point x="155" y="751" type="curve" smooth="yes"/>
      <point x="116" y="751"/>
      <point x="69" y="738"/>
      <point x="42" y="720" type="curve"/>
      <point x="61" y="688" type="line"/>
      <point x="81" y="700"/>
      <point x="107" y="705"/>
      <point x="124" y="705" type="curve" smooth="yes"/>
      <point x="160" y="705"/>
      <point x="184" y="683"/>
      <point x="184" y="654" type="curve" smooth="yes"/>
      <point x="184" y="630"/>
      <point x="167" y="597"/>
      <point x="111" y="597" type="curve" smooth="yes"/>
    </contour>
    <contour>
      <point x="30" y="437" type="line"/>
      <point x="69" y="419"/>
      <point x="116" y="411"/>
      <point x="154" y="411" type="curve" smooth="yes"/>
      <point x="223" y="411"/>
      <point x="287" y="441"/>
      <point x="287" y="505" type="curve" smooth="yes"/>
      <point x="287" y="558"/>
      <point x="242" y="595"/>
      <point x="188" y="588" type="curve"/>
      <point x="194" y="598" type="line"/>
      <point x="103" y="597" type="line"/>
      <point x="96" y="597" type="line"/>
      <point x="98" y="549" type="line"/>
      <point x="131" y="549" type="line" smooth="yes"/>
      <point x="175" y="549"/>
      <point x="197" y="524"/>
      <point x="197" y="499" type="curve" smooth="yes"/>
      <point x="197" y="485"/>
      <point x="190" y="470"/>
      <point x="175" y="461" type="curve"/>
      <point x="139" y="468"/>
      <point x="91" y="494"/>
      <point x="53" y="522" type="curve"/>
    </contour>
  </outline>
</glyph>
<glyph name="paragraph" format="1">
  <advance width="666"/>
  <unicode hex="00B6"/>
  <outline>
    <contour>
      <point x="314" y="688" type="line"/>
      <point x="95" y="702"/>
      <point x="0" y="588"/>
      <point x="0" y="477" type="curve" smooth="yes"/>
      <point x="0" y="387"/>
      <point x="64" y="299"/>
      <point x="173" y="265" type="curve"/>
      <point x="211" y="302" type="line"/>
      <point x="181" y="347"/>
      <point x="166" y="383"/>
      <point x="166" y="430" type="curve" smooth="yes"/>
      <point x="166" y="548"/>
      <point x="259" y="604"/>
      <point x="381" y="596" type="curve" smooth="yes"/>
      <point x="625" y="581" type="line"/>
      <point x="632" y="646" type="line"/>
    </contour>
    <contour>
      <point x="299" y="-165" type="line"/>
      <point x="299" y="-87" type="line"/>
      <point x="299" y="-87"/>
      <point x="217" y="-104"/>
      <point x="169" y="-126" type="curve"/>
      <point x="175" y="-165" type="line"/>
    </contour>
    <contour>
      <point x="633" y="-165" type="line"/>
      <point x="634" y="-115" type="line"/>
      <point x="496" y="-99" type="line"/>
      <point x="493" y="-165" type="line"/>
    </contour>
    <contour>
      <point x="281" y="-166" type="line"/>
      <point x="376" y="-166" type="line"/>
      <point x="376" y="609" type="line"/>
      <point x="281" y="609" type="line"/>
    </contour>
    <contour>
      <point x="451" y="-166" type="line"/>
      <point x="546" y="-166" type="line"/>
      <point x="546" y="609" type="line"/>
      <point x="451" y="609" type="line"/>
    </contour>
  </outline>
</glyph>
<glyph name="guillemetright" format="1">
  <advance width="581"/>
  <unicode hex="00BB"/>
  <outline>
    <contour>
      <point x="290" y="90" type="line"/>
      <point x="367" y="38" type="line"/>
      <point x="525" y="220" type="line"/>
      <point x="525" y="286" type="line"/>
      <point x="370" y="472" type="line"/>
      <point x="296" y="424" type="line"/>
      <point x="385" y="253" type="line"/>
    </contour>
    <contour>
      <point x="56" y="90" type="line"/>
      <point x="133" y="38" type="line"/>
      <point x="291" y="220" type="line"/>
      <point x="291" y="286" type="line"/>
      <point x="136" y="472" type="line"/>
      <point x="62" y="424" type="line"/>
      <point x="151" y="253" type="line"/>
    </contour>
  </outline>
</glyph>
<glyph name="AE" format="1">
  <advance width="931"/>
  <unicode hex="00C6"/>
  <outline>
    <contour>
      <point x="376" y="651" type="line"/>
      <point x="33" y="0" type="line"/>
      <point x="138" y="0" type="line"/>
      <point x="459" y="626" type="line"/>
    </contour>
    <contour>
      <point x="-20" y="34" type="curve"/>
      <point x="-14" y="0" type="line"/>
      <point x="80" y="0" type="line"/>
      <point x="79" y="81" type="line"/>
      <point x="64" y="73"/>
      <point x="7" y="52"/>
    </contour>
    <contour>
      <point x="121" y="71" type="line"/>
      <point x="118" y="0" type="line"/>
      <point x="258" y="0" type="line"/>
      <point x="259" y="51" type="line"/>
    </contour>
    <contour>
      <point x="339" y="34" type="curve"/>
      <point x="345" y="0" type="line"/>
      <point x="439" y="0" type="line"/>
      <point x="438" y="81" type="line"/>
      <point x="423" y="73"/>
      <point x="366" y="52"/>
    </contour>
    <contour>
      <point x="208" y="258" type="line"/>
      <point x="208" y="182" type="line"/>
      <point x="520" y="182" type="line"/>
      <point x="520" y="258" type="line"/>
    </contour>
    <contour>
      <point x="546" y="85" type="line"/>
      <point x="471" y="0" type="line"/>
      <point x="860" y="0" type="line"/>
      <point x="857" y="102" type="line"/>
    </contour>
    <contour>
      <point x="424" y="658" type="line"/>
      <point x="424" y="0" type="line"/>
      <point x="572" y="0" type="line"/>
      <point x="572" y="658" type="line"/>
    </contour>
    <contour>
      <point x="742" y="24" type="line"/>
      <point x="869" y="0" type="line"/>
      <point x="877" y="54"/>
      <point x="883" y="143"/>
      <point x="881" y="199" type="curve"/>
      <point x="797" y="205" type="line"/>
    </contour>
    <contour>
      <point x="283" y="607" type="line"/>
      <point x="396" y="593" type="line"/>
      <point x="457" y="658" type="line"/>
      <point x="284" y="658" type="line"/>
    </contour>
    <contour>
      <point x="552" y="291" type="line"/>
      <point x="792" y="281" type="line"/>
      <point x="792" y="382" type="line"/>
      <point x="552" y="363" type="line"/>
    </contour>
    <contour>
      <point x="543" y="577" type="line"/>
      <point x="858" y="560" type="line"/>
      <point x="873" y="658" type="line"/>
      <point x="468" y="658" type="line"/>
    </contour>
    <contour>
      <point x="745" y="631" type="line"/>
      <point x="773" y="468" type="line"/>
      <point x="857" y="468" type="line"/>
      <point x="870" y="533"/>
      <point x="875" y="619"/>
      <point x="873" y="658" type="curve"/>
    </contour>
    <contour>
      <point x="515" y="650" type="move" name="top"/>
    </contour>
  </outline>
</glyph>
<glyph name="multiply" format="1">
  <advance width="562"/>
  <unicode hex="00D7"/>
  <outline>
    <contour>
      <point x="282" y="302" type="line"/>
      <point x="132" y="458" type="line"/>
      <point x="65" y="396" type="line"/>
      <point x="218" y="238" type="line"/>
      <point x="67" y="83" type="line"/>
      <point x="132" y="20" type="line"/>
      <point x="280" y="176" type="line"/>
      <point x="430" y="20" type="line"/>
      <point x="495" y="84" type="line"/>
      <point x="344" y="240" type="line"/>
      <point x="496" y="396" type="line"/>
      <point x="430" y="458" type="line"/>
    </contour>
  </outline>
</glyph>
<glyph name="Oslash" format="1">
  <advance width="675"/>
  <unicode hex="00D8"/>
  <outline>
    <contour>
      <point x="107" y="-49" type="line"/>
      <point x="177" y="-87" type="line"/>
      <point x="601" y="700" type="line"/>
      <point x="532" y="740" type="line"/>
    </contour>
    <component base="O"/>
  </outline>
</glyph>
<glyph name="Thorn" format="1">
  <advance width="626"/>
  <unicode hex="00DE"/>
  <outline>
    <contour>
      <point x="37" y="650" type="line"/>
      <point x="36" y="599" type="line"/>
      <point x="174" y="579" type="line"/>
      <point x="177" y="650" type="line"/>
    </contour>
    <contour>
      <point x="253" y="650" type="line"/>
      <point x="254" y="569" type="line"/>
      <point x="270" y="577"/>
      <point x="326" y="598"/>
      <point x="353" y="616" type="curve"/>
      <point x="347" y="650" type="line"/>
    </contour>
    <contour>
      <point x="268" y="0" type="line"/>
      <point x="268" y="650" type="line"/>
      <point x="116" y="650" type="line"/>
      <point x="116" y="0" type="line"/>
    </contour>
    <contour>
      <point x="128" y="0" type="line"/>
      <point x="127" y="81" type="line"/>
      <point x="112" y="73"/>
      <point x="55" y="52"/>
      <point x="28" y="34" type="curve"/>
      <point x="34" y="0" type="line"/>
    </contour>
    <contour>
      <point x="359" y="0" type="line"/>
      <point x="360" y="51" type="line"/>
      <point x="222" y="71" type="line"/>
      <point x="219" y="0" type="line"/>
    </contour>
    <contour>
      <point x="517" y="148"/>
      <point x="599" y="237"/>
      <point x="599" y="332" type="curve" smooth="yes"/>
      <point x="599" y="424"/>
      <point x="521" y="522"/>
      <point x="358" y="522" type="curve" smooth="yes"/>
      <point x="185" y="522" type="line"/>
      <point x="247" y="422" type="line"/>
      <point x="382" y="443" type="line"/>
      <point x="426" y="415"/>
      <point x="447" y="374"/>
      <point x="447" y="332" type="curve" smooth="yes"/>
      <point x="447" y="275"/>
      <point x="410" y="225"/>
      <point x="315" y="225" type="curve" smooth="yes"/>
      <point x="280" y="225"/>
      <point x="256" y="232"/>
      <point x="227" y="240" type="curve"/>
      <point x="224" y="147" type="line"/>
      <point x="354" y="148" type="line" smooth="yes"/>
    </contour>
  </outline>
</glyph>
<glyph name="germandbls" format="1">
  <advance width="616"/>
  <unicode hex="00DF"/>
  <outline>
    <contour>
      <point x="416" y="-18" type="curve"/>
      <point x="517" y="-18"/>
      <point x="597" y="37"/>
      <point x="597" y="131" type="curve"/>
      <point x="597" y="266"/>
      <point x="432" y="296"/>
      <point x="411" y="367" type="curve"/>
      <point x="480" y="413"/>
      <point x="510" y="461"/>
      <point x="510" y="513" type="curve"/>
      <point x="510" y="602"/>
      <point x="424" y="687"/>
      <point x="303" y="687" type="curve"/>
      <point x="219" y="687"/>
      <point x="86" y="634"/>
      <point x="86" y="478" type="curve"/>
      <point x="86" y="0" type="line"/>
      <point x="230" y="0" type="line"/>
      <point x="230" y="436" type="line"/>
      <point x="222" y="573" type="line"/>
      <point x="260" y="598"/>
      <point x="317" y="599"/>
      <point x="348" y="590" type="curve"/>
      <point x="413" y="508"/>
      <point x="336" y="410"/>
      <point x="289" y="334" type="curve"/>
      <point x="297" y="226"/>
      <point x="460" y="207"/>
      <point x="460" y="122" type="curve"/>
      <point x="460" y="105"/>
      <point x="453" y="90"/>
      <point x="441" y="73" type="curve"/>
      <point x="393" y="83"/>
      <point x="345" y="111"/>
      <point x="315" y="136" type="curve"/>
      <point x="275" y="13" type="line"/>
      <point x="319" y="-6"/>
      <point x="371" y="-18"/>
    </contour>
    <contour>
      <point x="15" y="34" type="curve"/>
      <point x="18" y="0" type="line"/>
      <point x="119" y="0" type="line"/>
      <point x="130" y="78" type="line"/>
      <point x="97" y="70"/>
      <point x="48" y="53"/>
    </contour>
    <contour>
      <point x="9" y="419" type="curve"/>
      <point x="13" y="367" type="line"/>
      <point x="166" y="369" type="line"/>
      <point x="189" y="431" type="line"/>
      <point x="137" y="480" type="line"/>
      <point x="92" y="467"/>
      <point x="49" y="449"/>
    </contour>
  </outline>
</glyph>
<glyph name="ae" format="1">
  <advance width="778"/>
  <unicode hex="00E6"/>
  <outline>
    <contour>
      <point x="58" y="388"/>
      <point x="64" y="339"/>
      <point x="78" y="297" type="curve"/>
      <point x="166" y="296" type="line"/>
      <point x="184" y="404" type="line"/>
      <point x="202" y="411"/>
      <point x="234" y="417"/>
      <point x="259" y="418" type="curve"/>
      <point x="288" y="403"/>
      <point x="306" y="378"/>
      <point x="306" y="316" type="curve" smooth="yes"/>
      <point x="307" y="197" type="line"/>
      <point x="393" y="162" type="line"/>
      <point x="428" y="414" type="line"/>
      <point x="406" y="451"/>
      <point x="363" y="495"/>
      <point x="318" y="497" type="curve" smooth="yes"/>
      <point x="253" y="497"/>
      <point x="138" y="468"/>
      <point x="61" y="434" type="curve"/>
    </contour>
    <contour>
      <point x="60" y="196"/>
      <point x="37" y="151"/>
      <point x="37" y="111" type="curve" smooth="yes"/>
      <point x="37" y="46"/>
      <point x="97" y="-29"/>
      <point x="213" y="-13" type="curve"/>
      <point x="370" y="71" type="line"/>
      <point x="361" y="119" type="line"/>
      <point x="333" y="108"/>
      <point x="247" y="75"/>
      <point x="203" y="74" type="curve"/>
      <point x="189" y="85"/>
      <point x="182" y="103"/>
      <point x="182" y="118" type="curve" smooth="yes"/>
      <point x="182" y="168"/>
      <point x="252" y="175"/>
      <point x="310" y="171" type="curve"/>
      <point x="334" y="171" type="line"/>
      <point x="336" y="231" type="line"/>
      <point x="115" y="225" type="line"/>
    </contour>
    <contour>
      <point x="410" y="241" type="line"/>
      <point x="698" y="238" type="line"/>
      <point x="756" y="296" type="line"/>
      <point x="696" y="323" type="line"/>
      <point x="402" y="307" type="line"/>
    </contour>
    <contour>
      <point x="728" y="121" type="line"/>
      <point x="681" y="98"/>
      <point x="643" y="85"/>
      <point x="598" y="85" type="curve" smooth="yes"/>
      <point x="513" y="85"/>
      <point x="444" y="133"/>
      <point x="444" y="254" type="curve" smooth="yes"/>
      <point x="444" y="323"/>
      <point x="467" y="389"/>
      <point x="520" y="420" type="curve"/>
      <point x="589" y="420"/>
      <point x="637" y="349"/>
      <point x="627" y="275" type="curve"/>
      <point x="760" y="296" type="line"/>
      <point x="761" y="431"/>
      <point x="656" y="496"/>
      <point x="555" y="496" type="curve" smooth="yes"/>
      <point x="495" y="496"/>
      <point x="440" y="473"/>
      <point x="398" y="434" type="curve"/>
      <point x="361" y="234" type="line"/>
      <point x="308" y="231" type="line"/>
      <point x="308" y="78"/>
      <point x="428" y="-29"/>
      <point x="592" y="-13" type="curve"/>
      <point x="749" y="68" type="line"/>
    </contour>
    <contour>
      <point x="422" y="31" type="move" name="ogonek"/>
    </contour>
    <contour>
      <point x="315" y="0" type="move" name="bottom"/>
    </contour>
    <contour>
      <point x="315" y="281" type="move" name="top"/>
    </contour>
  </outline>
</glyph>
<glyph name="eth" format="1">
  <advance width="520"/>
  <unicode hex="00F0"/>
  <outline>
    <contour>
      <point x="265" y="-26" type="curve"/>
      <point x="398" y="-26"/>
      <point x="505" y="79"/>
      <point x="505" y="258" type="curve"/>
      <point x="505" y="405"/>
      <point x="430" y="612"/>
      <point x="291" y="770" type="curve"/>
      <point x="188" y="717" type="line"/>
      <point x="270" y="608"/>
      <point x="306" y="527"/>
      <point x="339" y="431" type="curve"/>
      <point x="373" y="420" type="line"/>
      <point x="335" y="457"/>
      <point x="294" y="479"/>
      <point x="237" y="479" type="curve"/>
      <point x="118" y="479"/>
      <point x="14" y="383"/>
      <point x="14" y="235" type="curve"/>
      <point x="14" y="76"/>
      <point x="134" y="-26"/>
    </contour>
    <contour>
      <point x="306" y="61" type="curve"/>
      <point x="206" y="54"/>
      <point x="161" y="143"/>
      <point x="161" y="229" type="curve"/>
      <point x="161" y="296"/>
      <point x="188" y="368"/>
      <point x="229" y="398" type="curve"/>
      <point x="293" y="393"/>
      <point x="335" y="364"/>
      <point x="392" y="307" type="curve"/>
      <point x="337" y="405" type="line"/>
      <point x="383" y="286"/>
      <point x="371" y="126"/>
    </contour>
    <contour>
      <point x="150" y="564" type="line"/>
      <point x="209" y="529" type="line"/>
      <point x="482" y="654" type="line"/>
      <point x="438" y="739" type="line"/>
      <point x="141" y="599" type="line"/>
    </contour>
  </outline>
</glyph>
<glyph name="divide" format="1">
  <advance width="598"/>
  <unicode hex="00F7"/>
  <outline>
    <contour>
      <point x="56" y="292" type="line"/>
      <point x="56" y="204" type="line"/>
      <point x="542" y="204" type="line"/>
      <point x="542" y="292" type="line"/>
    </contour>
    <contour>
      <point x="375" y="82"/>
      <point x="356" y="123"/>
      <point x="296" y="148" type="curve"/>
      <point x="277" y="137"/>
      <point x="229" y="107"/>
      <point x="222" y="51" type="curve"/>
      <point x="232" y="33"/>
      <point x="255" y="-7"/>
      <point x="310" y="-21" type="curve"/>
      <point x="358" y="2"/>
      <point x="375" y="45"/>
      <point x="381" y="63" type="curve"/>
    </contour>
    <contour>
      <point x="375" y="449"/>
      <point x="356" y="490"/>
      <point x="296" y="514" type="curve"/>
      <point x="277" y="503"/>
      <point x="229" y="473"/>
      <point x="222" y="417" type="curve"/>
      <point x="232" y="400"/>
      <point x="255" y="360"/>
      <point x="310" y="346" type="curve"/>
      <point x="358" y="369"/>
      <point x="375" y="411"/>
      <point x="381" y="430" type="curve"/>
    </contour>
  </outline>
</glyph>
<glyph name="thorn" format="1">
  <advance width="564"/>
  <unicode hex="00FE"/>
  <outline>
    <contour>
      <point x="-15" y="652" type="line"/>
      <point x="102" y="631" type="line"/>
      <point x="167" y="681" type="line"/>
      <point x="163" y="736" type="line"/>
      <point x="99" y="733"/>
      <point x="33" y="721"/>
      <point x="-22" y="700" type="curve"/>
    </contour>
    <contour>
      <point x="163" y="736" type="line"/>
      <point x="66" y="689" type="line"/>
      <point x="66" y="18" type="line"/>
      <point x="212" y="44" type="line"/>
      <point x="212" y="691" type="line"/>
    </contour>
    <contour>
      <point x="66" y="-203" type="line"/>
      <point x="211" y="-203" type="line"/>
      <point x="211" y="446" type="line"/>
      <point x="162" y="490" type="line"/>
      <point x="66" y="442" type="line"/>
    </contour>
    <contour>
      <point x="104" y="-203" type="line"/>
      <point x="115" y="-125" type="line"/>
      <point x="82" y="-137"/>
      <point x="33" y="-154"/>
      <point x="0" y="-168" type="curve"/>
      <point x="3" y="-203" type="line"/>
    </contour>
    <contour>
      <point x="298" y="-203" type="line"/>
      <point x="302" y="-154" type="line"/>
      <point x="269" y="-138"/>
      <point x="226" y="-124"/>
      <point x="187" y="-112" type="curve"/>
      <point x="170" y="-203" type="line"/>
    </contour>
    <contour>
      <point x="166" y="331" type="line"/>
      <point x="209" y="360"/>
      <point x="250" y="383"/>
      <point x="287" y="383" type="curve" smooth="yes"/>
      <point x="354" y="383"/>
      <point x="394" y="311"/>
      <point x="394" y="231" type="curve" smooth="yes"/>
      <point x="394" y="168"/>
      <point x="369" y="101"/>
      <point x="325" y="67" type="curve"/>
      <point x="244" y="55"/>
      <point x="182" y="90"/>
      <point x="153" y="129" type="curve"/>
      <point x="68" y="22" type="line"/>
      <point x="135" y="-4"/>
      <point x="205" y="-19"/>
      <point x="265" y="-19" type="curve" smooth="yes"/>
      <point x="445" y="-19"/>
      <point x="545" y="111"/>
      <point x="545" y="258" type="curve" smooth="yes"/>
      <point x="545" y="394"/>
      <point x="460" y="513"/>
      <point x="324" y="488" type="curve"/>
      <point x="157" y="372" type="line"/>
    </contour>
  </outline>
</glyph>
<glyph name="Dcroat" format="1">
  <advance width="706"/>
  <unicode hex="0110"/>
  <outline>
    <contour>
      <point x="14" y="307" type="line"/>
      <point x="20" y="274" type="line"/>
      <point x="362" y="274" type="line"/>
      <point x="405" y="317" type="line"/>
      <point x="399" y="350" type="line"/>
      <point x="57" y="350" type="line"/>
    </contour>
    <component base="D"/>
  </outline>
</glyph>
<glyph name="dcroat" format="1">
  <advance width="586"/>
  <unicode hex="0111"/>
  <outline>
    <contour>
      <point x="581" y="570" type="line"/>
      <point x="575" y="603" type="line"/>
      <point x="262" y="603" type="line"/>
      <point x="219" y="570" type="line"/>
      <point x="225" y="537" type="line"/>
      <point x="538" y="537" type="line"/>
    </contour>
    <component base="d"/>
  </outline>
</glyph>
<glyph name="Imacron" format="1">
  <advance width="394"/>
  <unicode hex="012A"/>
  <outline>
    <contour>
      <point x="26" y="790" type="curve"/>
      <point x="32" y="726" type="line"/>
      <point x="320" y="726" type="line"/>
      <point x="367" y="768" type="line"/>
      <point x="362" y="815" type="line"/>
      <point x="139" y="815" type="line"/>
      <point x="108" y="815"/>
      <point x="65" y="810"/>
    </contour>
    <component base="I" xOffset="2"/>
  </outline>
</glyph>
<glyph name="imacron" format="1">
  <advance width="332"/>
  <unicode hex="012B"/>
  <outline>
    <contour>
      <point x="9" y="637" type="curve"/>
      <point x="15" y="573" type="line"/>
      <point x="273" y="573" type="line"/>
      <point x="320" y="615" type="line"/>
      <point x="315" y="662" type="line"/>
      <point x="122" y="662" type="line"/>
      <point x="91" y="662"/>
      <point x="48" y="657"/>
    </contour>
    <component base="dotlessi" xOffset="11"/>
  </outline>
</glyph>
<glyph name="dotlessi" format="1">
  <advance width="313"/>
  <unicode hex="0131"/>
  <outline>
    <contour>
      <point x="125" y="394" type="line"/>
      <point x="191" y="434" type="line"/>
      <point x="187" y="490" type="line"/>
      <point x="126" y="488"/>
      <point x="61" y="475"/>
      <point x="9" y="455" type="curve"/>
      <point x="16" y="407" type="line"/>
    </contour>
    <contour>
      <point x="91" y="0" type="line"/>
      <point x="236" y="0" type="line"/>
      <point x="236" y="446" type="line"/>
      <point x="187" y="490" type="line"/>
      <point x="91" y="442" type="line"/>
    </contour>
    <contour>
      <point x="293" y="0" type="line"/>
      <point x="297" y="49" type="line"/>
      <point x="264" y="69"/>
      <point x="221" y="83"/>
      <point x="182" y="91" type="curve"/>
      <point x="165" y="0" type="line"/>
    </contour>
    <contour>
      <point x="122" y="0" type="line"/>
      <point x="133" y="78" type="line"/>
      <point x="100" y="70"/>
      <point x="51" y="53"/>
      <point x="18" y="34" type="curve"/>
      <point x="21" y="0" type="line"/>
    </contour>
    <contour>
      <point x="298" y="10" type="move" name="ogonek"/>
    </contour>
    <contour>
      <point x="149" y="468" type="move" name="top"/>
    </contour>
  </outline>
</glyph>
<glyph name="Lslash" format="1">
  <advance width="612"/>
  <unicode hex="0141"/>
  <outline>
    <contour>
      <point x="26" y="271" type="line"/>
      <point x="56" y="210" type="line"/>
      <point x="403" y="384" type="line"/>
      <point x="417" y="436" type="line"/>
      <point x="400" y="460" type="line"/>
    </contour>
    <component base="L" xOffset="16"/>
  </outline>
</glyph>
<glyph name="OE" format="1">
  <advance width="948"/>
  <unicode hex="0152"/>
  <outline>
    <contour>
      <point x="347" y="-15" type="curve"/>
      <point x="410" y="-15"/>
      <point x="473" y="-4"/>
      <point x="526" y="32" type="curve"/>
      <point x="476" y="118" type="line"/>
      <point x="453" y="86"/>
      <point x="402" y="73"/>
      <point x="356" y="73" type="curve"/>
      <point x="226" y="73"/>
      <point x="169" y="200"/>
      <point x="169" y="333" type="curve"/>
      <point x="169" y="431"/>
      <point x="200" y="527"/>
      <point x="255" y="571" type="curve"/>
      <point x="282" y="580"/>
      <point x="312" y="584"/>
      <point x="342" y="584" type="curve"/>
      <point x="402" y="584"/>
      <point x="468" y="567"/>
      <point x="494" y="521" type="curve"/>
      <point x="527" y="634" type="line"/>
      <point x="478" y="661"/>
      <point x="419" y="674"/>
      <point x="360" y="674" type="curve"/>
      <point x="192" y="674"/>
      <point x="14" y="563"/>
      <point x="14" y="332" type="curve"/>
      <point x="14" y="90"/>
      <point x="184" y="-15"/>
    </contour>
    <contour>
      <point x="556" y="85" type="line"/>
      <point x="478" y="0" type="line"/>
      <point x="886" y="0" type="line"/>
      <point x="871" y="102" type="line"/>
    </contour>
    <contour>
      <point x="437" y="658" type="line"/>
      <point x="437" y="0" type="line"/>
      <point x="589" y="0" type="line"/>
      <point x="589" y="658" type="line"/>
    </contour>
    <contour>
      <point x="759" y="24" type="line"/>
      <point x="886" y="0" type="line"/>
      <point x="894" y="54"/>
      <point x="900" y="143"/>
      <point x="898" y="199" type="curve"/>
      <point x="814" y="205" type="line"/>
    </contour>
    <contour>
      <point x="560" y="291" type="line"/>
      <point x="800" y="281" type="line"/>
      <point x="800" y="382" type="line"/>
      <point x="560" y="363" type="line"/>
    </contour>
    <contour>
      <point x="552" y="577" type="line"/>
      <point x="867" y="560" type="line"/>
      <point x="890" y="658" type="line"/>
      <point x="477" y="658" type="line"/>
    </contour>
    <contour>
      <point x="762" y="631" type="line"/>
      <point x="790" y="468" type="line"/>
      <point x="874" y="468" type="line"/>
      <point x="887" y="533"/>
      <point x="892" y="619"/>
      <point x="890" y="658" type="curve"/>
    </contour>
  </outline>
</glyph>
<glyph name="oe" format="1">
  <advance width="818"/>
  <unicode hex="0153"/>
  <outline>
    <contour>
      <point x="288" y="63"/>
      <point x="277" y="62"/>
      <point x="267" y="62" type="curve" smooth="yes"/>
      <point x="192" y="62"/>
      <point x="162" y="145"/>
      <point x="162" y="243" type="curve" smooth="yes"/>
      <point x="162" y="306"/>
      <point x="173" y="364"/>
      <point x="198" y="397" type="curve"/>
      <point x="210" y="405"/>
      <point x="229" y="411"/>
      <point x="249" y="411" type="curve" smooth="yes"/>
      <point x="320" y="411"/>
      <point x="348" y="326"/>
      <point x="348" y="225" type="curve" smooth="yes"/>
      <point x="348" y="162"/>
      <point x="339" y="94"/>
      <point x="301" y="67" type="curve"/>
    </contour>
    <contour>
      <point x="446" y="400" type="line"/>
      <point x="402" y="463"/>
      <point x="332" y="496"/>
      <point x="257" y="496" type="curve" smooth="yes"/>
      <point x="129" y="496"/>
      <point x="14" y="404"/>
      <point x="14" y="241" type="curve" smooth="yes"/>
      <point x="14" y="78"/>
      <point x="130" y="-20"/>
      <point x="260" y="-20" type="curve" smooth="yes"/>
      <point x="334" y="-20"/>
      <point x="402" y="12"/>
      <point x="446" y="72" type="curve"/>
    </contour>
    <contour>
      <point x="385" y="107" type="line"/>
      <point x="433" y="31"/>
      <point x="517" y="-24"/>
      <point x="633" y="-13" type="curve"/>
      <point x="790" y="68" type="line"/>
      <point x="768" y="121" type="line"/>
      <point x="722" y="98"/>
      <point x="683" y="85"/>
      <point x="639" y="85" type="curve" smooth="yes"/>
      <point x="550" y="85"/>
      <point x="484" y="139"/>
      <point x="484" y="247" type="curve" smooth="yes"/>
      <point x="484" y="314"/>
      <point x="509" y="390"/>
      <point x="560" y="420" type="curve"/>
      <point x="630" y="420"/>
      <point x="678" y="349"/>
      <point x="668" y="275" type="curve"/>
      <point x="800" y="296" type="line"/>
      <point x="802" y="431"/>
      <point x="696" y="496"/>
      <point x="595" y="496" type="curve" smooth="yes"/>
      <point x="506" y="496"/>
      <point x="429" y="445"/>
      <point x="385" y="369" type="curve"/>
    </contour>
    <contour>
      <point x="454" y="241" type="line"/>
      <point x="742" y="238" type="line"/>
      <point x="800" y="296" type="line"/>
      <point x="740" y="323" type="line"/>
      <point x="446" y="307" type="line"/>
    </contour>
    <contour>
      <point x="796" y="35" type="move" name="ogonek"/>
    </contour>
    <contour>
      <point x="601" y="0" type="move" name="bottom"/>
    </contour>
    <contour>
      <point x="599" y="468" type="move" name="top"/>
    </contour>
  </outline>
</glyph>
<glyph name="acutecomb" format="1">
  <advance width="0"/>
  <unicode hex="0301"/>
  <outline>
    <contour>
      <point x="37" y="586"/>
      <point x="92" y="639"/>
      <point x="152" y="688" type="curve"/>
      <point x="56" y="771" type="line"/>
      <point x="-94" y="593" type="line"/>
      <point x="-19" y="533" type="line"/>
    </contour>
    <contour>
      <point x="0" y="471" type="move" name="_top"/>
    </contour>
  </outline>
</glyph>
<glyph name="circumflexcomb" format="1">
  <advance width="0"/>
  <unicode hex="0302"/>
  <outline>
    <contour>
      <point x="-178" y="577" type="line"/>
      <point x="-120" y="531" type="line"/>
      <point x="1" y="643" type="line"/>
      <point x="134" y="535" type="line"/>
      <point x="186" y="584" type="line"/>
      <point x="57" y="734" type="line"/>
      <point x="-48" y="734" type="line"/>
    </contour>
    <contour>
      <point x="0" y="471" type="move" name="_top"/>
    </contour>
  </outline>
</glyph>
<glyph name="tildecomb" format="1">
  <advance width="0"/>
  <unicode hex="0303"/>
  <outline>
    <contour>
      <point x="-153" y="551" type="line"/>
      <point x="-110" y="603"/>
      <point x="-86" y="627"/>
      <point x="-68" y="627" type="curve" smooth="yes"/>
      <point x="-34" y="627"/>
      <point x="48" y="544"/>
      <point x="95" y="544" type="curve" smooth="yes"/>
      <point x="133" y="544"/>
      <point x="177" y="600"/>
      <point x="223" y="687" type="curve"/>
      <point x="175" y="722" type="line"/>
      <point x="96" y="640" type="line"/>
      <point x="41" y="680"/>
      <point x="-35" y="730"/>
      <point x="-63" y="730" type="curve"/>
      <point x="-109" y="730"/>
      <point x="-143" y="690"/>
      <point x="-203" y="590" type="curve"/>
    </contour>
    <contour>
      <point x="0" y="471" type="move" name="_top"/>
    </contour>
  </outline>
</glyph>
<glyph name="macroncomb" format="1">
  <advance width="0"/>
  <unicode hex="0304"/>
  <outline>
    <contour>
      <point x="-164" y="629" type="curve"/>
      <point x="-158" y="565" type="line"/>
      <point x="148" y="565" type="line"/>
      <point x="195" y="607" type="line"/>
      <point x="190" y="654" type="line"/>
      <point x="-51" y="654" type="line"/>
      <point x="-82" y="654"/>
      <point x="-125" y="649"/>
    </contour>
    <contour>
      <point x="1" y="471" type="move" name="_top"/>
    </contour>
  </outline>
</glyph>
<glyph name="brevecomb" format="1">
  <advance width="0"/>
  <unicode hex="0306"/>
  <outline>
    <contour>
      <point x="63" y="717" type="line"/>
      <point x="63" y="665"/>
      <point x="36" y="635"/>
      <point x="-2" y="635" type="curve" smooth="yes"/>
      <point x="-35" y="635"/>
      <point x="-66" y="658"/>
      <point x="-73" y="718" type="curve"/>
      <point x="-160" y="711" type="line"/>
      <point x="-152" y="600"/>
      <point x="-73" y="550"/>
      <point x="5" y="550" type="curve" smooth="yes"/>
      <point x="87" y="550"/>
      <point x="159" y="605"/>
      <point x="162" y="712" type="curve"/>
    </contour>
    <contour>
      <point x="-1" y="471" type="move" name="_top"/>
    </contour>
  </outline>
</glyph>
<glyph name="dotaccentcomb" format="1">
  <advance width="0"/>
  <unicode hex="0307"/>
  <outline>
    <contour>
      <point x="73" y="669"/>
      <point x="36" y="703"/>
      <point x="-4" y="719" type="curve"/>
      <point x="-42" y="698"/>
      <point x="-72" y="666"/>
      <point x="-78" y="621" type="curve"/>
      <point x="-60" y="584"/>
      <point x="-32" y="562"/>
      <point x="10" y="550" type="curve"/>
      <point x="46" y="568"/>
      <point x="70" y="596"/>
      <point x="81" y="634" type="curve"/>
    </contour>
    <contour>
      <point x="0" y="471" type="move" name="_top"/>
    </contour>
  </outline>
</glyph>
<glyph name="dieresiscomb" format="1">
  <advance width="0"/>
  <unicode hex="0308"/>
  <outline>
    <contour>
      <point x="-45" y="673"/>
      <point x="-80" y="703"/>
      <point x="-120" y="719" type="curve"/>
      <point x="-158" y="698"/>
      <point x="-188" y="666"/>
      <point x="-194" y="621" type="curve"/>
      <point x="-176" y="585"/>
      <point x="-148" y="562"/>
      <point x="-107" y="550" type="curve"/>
      <point x="-70" y="568"/>
      <point x="-47" y="596"/>
      <point x="-35" y="634" type="curve"/>
    </contour>
    <contour>
      <point x="185" y="673"/>
      <point x="150" y="703"/>
      <point x="110" y="719" type="curve"/>
      <point x="72" y="698"/>
      <point x="42" y="666"/>
      <point x="36" y="621" type="curve"/>
      <point x="54" y="585"/>
      <point x="82" y="562"/>
      <point x="124" y="550" type="curve"/>
      <point x="160" y="568"/>
      <point x="183" y="596"/>
      <point x="195" y="634" type="curve"/>
    </contour>
    <contour>
      <point x="0" y="471" type="move" name="_top"/>
    </contour>
  </outline>
</glyph>
<glyph name="ringcomb" format="1">
  <advance width="0"/>
  <unicode hex="030A"/>
  <outline>
    <contour>
      <point x="-118" y="757"/>
      <point x="-63" y="710"/>
      <point x="4" y="710" type="curve" smooth="yes"/>
      <point x="71" y="710"/>
      <point x="118" y="758"/>
      <point x="118" y="825" type="curve" smooth="yes"/>
      <point x="118" y="896"/>
      <point x="66" y="947"/>
      <point x="-1" y="947" type="curve" smooth="yes"/>
      <point x="-68" y="947"/>
      <point x="-118" y="895"/>
      <point x="-118" y="828" type="curve" smooth="yes"/>
    </contour>
    <contour>
      <point x="-58" y="847"/>
      <point x="-33" y="872"/>
      <point x="0" y="872" type="curve" smooth="yes"/>
      <point x="33" y="872"/>
      <point x="58" y="847"/>
      <point x="58" y="813" type="curve" smooth="yes"/>
      <point x="58" y="779"/>
      <point x="35" y="756"/>
      <point x="2" y="756" type="curve" smooth="yes"/>
      <point x="-31" y="756"/>
      <point x="-58" y="779"/>
      <point x="-58" y="814" type="curve" smooth="yes"/>
    </contour>
    <contour>
      <point x="0" y="650" type="move" name="_top"/>
    </contour>
  </outline>
</glyph>
<glyph name="hungarumlautcomb" format="1">
  <advance width="0"/>
  <unicode hex="030B"/>
  <outline>
    <contour>
      <point x="31" y="585" type="line"/>
      <point x="102" y="534" type="line"/>
      <point x="154" y="588"/>
      <point x="211" y="647"/>
      <point x="266" y="698" type="curve"/>
      <point x="168" y="763" type="line"/>
    </contour>
    <contour>
      <point x="-169" y="585" type="line"/>
      <point x="-99" y="534" type="line"/>
      <point x="-46" y="588"/>
      <point x="11" y="647"/>
      <point x="66" y="698" type="curve"/>
      <point x="-33" y="763" type="line"/>
    </contour>
    <contour>
      <point x="0" y="471" type="move" name="_top"/>
    </contour>
  </outline>
</glyph>
<glyph name="caroncomb" format="1">
  <advance width="0"/>
  <unicode hex="030C"/>
  <outline>
    <contour>
      <point x="-198" y="692" type="line"/>
      <point x="-56" y="541" type="line"/>
      <point x="54" y="543" type="line"/>
      <point x="182" y="708" type="line"/>
      <point x="116" y="764" type="line"/>
      <point x="2" y="625" type="line"/>
      <point x="-119" y="763" type="line"/>
    </contour>
    <contour>
      <point x="0" y="471" type="move" name="_top"/>
    </contour>
  </outline>
</glyph>
<glyph name="dotbelowcomb" format="1">
  <advance width="0"/>
  <unicode hex="0323"/>
  <outline>
    <contour>
      <point x="73" y="-148"/>
      <point x="36" y="-115"/>
      <point x="-4" y="-98" type="curve"/>
      <point x="-42" y="-119"/>
      <point x="-72" y="-151"/>
      <point x="-78" y="-197" type="curve"/>
      <point x="-60" y="-233"/>
      <point x="-32" y="-255"/>
      <point x="10" y="-268" type="curve"/>
      <point x="46" y="-249"/>
      <point x="70" y="-221"/>
      <point x="81" y="-183" type="curve"/>
    </contour>
    <contour>
      <point x="0" y="0" type="move" name="_bottom"/>
    </contour>
  </outline>
</glyph>
<glyph name="numeralsign" format="1">
  <advance width="265"/>
  <unicode hex="0374"/>
  <outline>
    <contour>
      <point x="43" y="539" type="line"/>
      <point x="111" y="515" type="line"/>
      <point x="222" y="718" type="line"/>
      <point x="220" y="746" type="line"/>
      <point x="194" y="768"/>
      <point x="144" y="788"/>
      <point x="100" y="784" type="curve"/>
    </contour>
  </outline>
</glyph>
<glyph name="dieresistonos" format="1">
  <advance width="315"/>
  <unicode hex="0385"/>
  <outline>
    <contour>
      <point x="114" y="547" type="line"/>
      <point x="171" y="531" type="line"/>
      <point x="256" y="730" type="line"/>
      <point x="253" y="758" type="line"/>
      <point x="228" y="775"/>
      <point x="183" y="789"/>
      <point x="144" y="784" type="curve"/>
    </contour>
    <contour>
      <point x="11" y="550" type="curve"/>
      <point x="48" y="568"/>
      <point x="71" y="596"/>
      <point x="83" y="634" type="curve"/>
      <point x="73" y="673"/>
      <point x="38" y="703"/>
      <point x="-3" y="719" type="curve"/>
      <point x="-41" y="698"/>
      <point x="-71" y="666"/>
      <point x="-77" y="621" type="curve"/>
      <point x="-59" y="585"/>
      <point x="-31" y="562"/>
    </contour>
    <contour>
      <point x="346" y="550" type="curve"/>
      <point x="383" y="568"/>
      <point x="406" y="596"/>
      <point x="418" y="634" type="curve"/>
      <point x="408" y="673"/>
      <point x="373" y="703"/>
      <point x="333" y="719" type="curve"/>
      <point x="295" y="698"/>
      <point x="265" y="666"/>
      <point x="259" y="621" type="curve"/>
      <point x="277" y="585"/>
      <point x="305" y="562"/>
    </contour>
    <contour>
      <point x="167" y="472" type="move" name="_top"/>
    </contour>
  </outline>
</glyph>
<glyph name="Epsilon" format="1">
  <advance width="617"/>
  <unicode hex="0395"/>
  <outline>
    <component base="E"/>
    <contour>
      <point x="-51" y="343" type="move" name="left"/>
    </contour>
  </outline>
</glyph>
<glyph name="Eta" format="1">
  <advance width="804"/>
  <unicode hex="0397"/>
  <outline>
    <component base="H"/>
    <contour>
      <point x="402" y="0" type="move" name="bottom"/>
    </contour>
    <contour>
      <point x="-53" y="343" type="move" name="left"/>
    </contour>
  </outline>
</glyph>
<glyph name="Iota" format="1">
  <advance width="382"/>
  <unicode hex="0399"/>
  <outline>
    <component base="I"/>
    <contour>
      <point x="-54" y="343" type="move" name="left"/>
    </contour>
    <contour>
      <point x="190" y="650" type="move" name="top"/>
    </contour>
  </outline>
</glyph>
<glyph name="Lamda" format="1">
  <advance width="719"/>
  <unicode hex="039B"/>
  <outline>
    <contour>
      <point x="272" y="646" type="line"/>
      <point x="519" y="0" type="line"/>
      <point x="680" y="0" type="line"/>
      <point x="403" y="682" type="line"/>
    </contour>
    <contour>
      <point x="-20" y="32" type="curve"/>
      <point x="-14" y="0" type="line"/>
      <point x="80" y="0" type="line"/>
      <point x="79" y="79" type="line"/>
      <point x="44" y="65"/>
      <point x="9" y="50"/>
    </contour>
    <contour>
      <point x="122" y="71" type="line"/>
      <point x="119" y="0" type="line"/>
      <point x="259" y="0" type="line"/>
      <point x="260" y="51" type="line"/>
    </contour>
    <contour>
      <point x="405" y="32" type="curve"/>
      <point x="411" y="0" type="line"/>
      <point x="536" y="0" type="line"/>
      <point x="504" y="79" type="line"/>
      <point x="468" y="65"/>
      <point x="434" y="50"/>
    </contour>
    <contour>
      <point x="296" y="642" type="line"/>
      <point x="34" y="0" type="line"/>
      <point x="143" y="0" type="line"/>
      <point x="379" y="620" type="line"/>
    </contour>
    <contour>
      <point x="589" y="71" type="line"/>
      <point x="586" y="0" type="line"/>
      <point x="726" y="0" type="line"/>
      <point x="727" y="51" type="line"/>
    </contour>
  </outline>
</glyph>
<glyph name="Xi" format="1">
  <advance width="670"/>
  <unicode hex="039E"/>
  <outline>
    <contour>
      <point x="74" y="111" type="line"/>
      <point x="58" y="0" type="line"/>
      <point x="613" y="0" type="line"/>
      <point x="596" y="111" type="line"/>
      <point x="335" y="97" type="line"/>
    </contour>
    <contour>
      <point x="58" y="0" type="curve"/>
      <point x="185" y="24" type="line"/>
      <point x="130" y="221" type="line"/>
      <point x="46" y="215" type="line"/>
      <point x="43" y="155"/>
      <point x="49" y="58"/>
    </contour>
    <contour>
      <point x="486" y="24" type="line"/>
      <point x="613" y="0" type="line"/>
      <point x="621" y="58"/>
      <point x="627" y="155"/>
      <point x="625" y="215" type="curve"/>
      <point x="541" y="221" type="line"/>
    </contour>
    <contour>
      <point x="173" y="283" type="line"/>
      <point x="500" y="274" type="line"/>
      <point x="500" y="389" type="line"/>
      <point x="173" y="369" type="line"/>
    </contour>
    <contour>
      <point x="76" y="447" type="curve"/>
      <point x="156" y="447" type="line"/>
      <point x="177" y="635" type="line"/>
      <point x="60" y="664" type="line"/>
      <point x="56" y="624"/>
      <point x="62" y="513"/>
    </contour>
    <contour>
      <point x="60" y="664" type="curve"/>
      <point x="77" y="553" type="line"/>
      <point x="335" y="567" type="line"/>
      <point x="594" y="553" type="line"/>
      <point x="610" y="664" type="line"/>
      <point x="405" y="658"/>
      <point x="273" y="659"/>
    </contour>
    <contour>
      <point x="493" y="635" type="line"/>
      <point x="514" y="447" type="line"/>
      <point x="594" y="447" type="line"/>
      <point x="607" y="513"/>
      <point x="613" y="624"/>
      <point x="610" y="664" type="curve"/>
    </contour>
  </outline>
</glyph>
<glyph name="Pi" format="1">
  <advance width="795"/>
  <unicode hex="03A0"/>
  <outline>
    <contour>
      <point x="111" y="658" type="line"/>
      <point x="111" y="0" type="line"/>
      <point x="263" y="0" type="line"/>
      <point x="263" y="658" type="line"/>
    </contour>
    <contour>
      <point x="26" y="32" type="curve"/>
      <point x="32" y="0" type="line"/>
      <point x="126" y="0" type="line"/>
      <point x="125" y="79" type="line"/>
      <point x="90" y="65"/>
      <point x="55" y="50"/>
    </contour>
    <contour>
      <point x="218" y="71" type="line"/>
      <point x="215" y="0" type="line"/>
      <point x="355" y="0" type="line"/>
      <point x="356" y="51" type="line"/>
    </contour>
    <contour>
      <point x="440" y="32" type="curve"/>
      <point x="446" y="0" type="line"/>
      <point x="540" y="0" type="line"/>
      <point x="539" y="79" type="line"/>
      <point x="503" y="65"/>
      <point x="469" y="50"/>
    </contour>
    <contour>
      <point x="34" y="607" type="line"/>
      <point x="172" y="587" type="line"/>
      <point x="175" y="658" type="line"/>
      <point x="35" y="658" type="line"/>
    </contour>
    <contour>
      <point x="631" y="71" type="line"/>
      <point x="628" y="0" type="line"/>
      <point x="768" y="0" type="line"/>
      <point x="769" y="51" type="line"/>
    </contour>
    <contour>
      <point x="525" y="658" type="line"/>
      <point x="525" y="0" type="line"/>
      <point x="676" y="0" type="line"/>
      <point x="676" y="658" type="line"/>
    </contour>
    <contour>
      <point x="222" y="658" type="line"/>
      <point x="222" y="575" type="line"/>
      <point x="540" y="575" type="line"/>
      <point x="540" y="658" type="line"/>
    </contour>
    <contour>
      <point x="661" y="658" type="line"/>
      <point x="662" y="579" type="line"/>
      <point x="698" y="593"/>
      <point x="732" y="608"/>
      <point x="761" y="626" type="curve"/>
      <point x="755" y="658" type="line"/>
    </contour>
  </outline>
</glyph>
<glyph name="Rho" format="1">
  <advance width="631"/>
  <unicode hex="03A1"/>
  <outline>
    <component base="P"/>
    <contour>
      <point x="-39" y="343" type="move" name="left"/>
    </contour>
  </outline>
</glyph>
<glyph name="Sigma" format="1">
  <advance width="624"/>
  <unicode hex="03A3"/>
  <outline>
    <contour>
      <point x="31" y="64" type="line"/>
      <point x="55" y="0" type="line"/>
      <point x="558" y="0" type="line"/>
      <point x="491" y="102" type="line"/>
      <point x="128" y="98" type="line"/>
      <point x="144" y="44" type="line"/>
      <point x="392" y="349" type="line"/>
      <point x="196" y="614" type="line"/>
      <point x="143" y="585" type="line"/>
      <point x="537" y="560" type="line"/>
      <point x="562" y="658" type="line"/>
      <point x="70" y="658" type="line"/>
      <point x="35" y="593" type="line"/>
      <point x="263" y="291" type="line"/>
      <point x="254" y="340" type="line"/>
    </contour>
    <contour>
      <point x="431" y="24" type="line"/>
      <point x="558" y="0" type="line"/>
      <point x="567" y="53"/>
      <point x="577" y="162"/>
      <point x="575" y="218" type="curve"/>
      <point x="491" y="225" type="line"/>
    </contour>
    <contour>
      <point x="435" y="631" type="line"/>
      <point x="462" y="468" type="line"/>
      <point x="547" y="468" type="line"/>
      <point x="560" y="533"/>
      <point x="565" y="619"/>
      <point x="562" y="658" type="curve"/>
    </contour>
  </outline>
</glyph>
<glyph name="Phi" format="1">
  <advance width="747"/>
  <unicode hex="03A6"/>
  <outline>
    <contour>
      <point x="417" y="157" type="curve"/>
      <point x="405" y="91" type="line"/>
      <point x="608" y="91"/>
      <point x="733" y="186"/>
      <point x="733" y="340" type="curve"/>
      <point x="733" y="485"/>
      <point x="612" y="574"/>
      <point x="416" y="574" type="curve"/>
      <point x="400" y="507" type="line"/>
      <point x="515" y="507"/>
      <point x="582" y="442"/>
      <point x="582" y="328" type="curve"/>
      <point x="582" y="266"/>
      <point x="561" y="211"/>
      <point x="526" y="178" type="curve"/>
      <point x="498" y="165"/>
      <point x="458" y="157"/>
    </contour>
    <contour>
      <point x="215" y="18" type="curve"/>
      <point x="221" y="-14" type="line"/>
      <point x="315" y="-14" type="line"/>
      <point x="314" y="65" type="line"/>
      <point x="270" y="48"/>
      <point x="240" y="34"/>
    </contour>
    <contour>
      <point x="402" y="57" type="line"/>
      <point x="399" y="-14" type="line"/>
      <point x="539" y="-14" type="line"/>
      <point x="540" y="37" type="line"/>
    </contour>
    <contour>
      <point x="331" y="91" type="curve"/>
      <point x="347" y="157" type="line"/>
      <point x="232" y="157"/>
      <point x="165" y="223"/>
      <point x="165" y="336" type="curve"/>
      <point x="165" y="398"/>
      <point x="186" y="454"/>
      <point x="221" y="486" type="curve"/>
      <point x="249" y="499"/>
      <point x="289" y="507"/>
      <point x="330" y="507" type="curve"/>
      <point x="342" y="574" type="line"/>
      <point x="139" y="574"/>
      <point x="14" y="478"/>
      <point x="14" y="325" type="curve"/>
      <point x="14" y="180"/>
      <point x="135" y="91"/>
    </contour>
    <contour>
      <point x="305" y="673" type="line"/>
      <point x="305" y="-14" type="line"/>
      <point x="442" y="-14" type="line"/>
      <point x="442" y="673" type="line"/>
    </contour>
    <contour>
      <point x="223" y="622" type="line"/>
      <point x="361" y="602" type="line"/>
      <point x="364" y="673" type="line"/>
      <point x="224" y="673" type="line"/>
    </contour>
    <contour>
      <point x="432" y="673" type="line"/>
      <point x="433" y="594" type="line"/>
      <point x="477" y="611"/>
      <point x="507" y="626"/>
      <point x="532" y="641" type="curve"/>
      <point x="526" y="673" type="line"/>
    </contour>
  </outline>
</glyph>
<glyph name="Psi" format="1">
  <advance width="897"/>
  <unicode hex="03A8"/>
  <outline>
    <contour>
      <point x="412" y="202" type="curve"/>
      <point x="487" y="202" type="line"/>
      <point x="653" y="210"/>
      <point x="747" y="281"/>
      <point x="776" y="421" type="curve"/>
      <point x="812" y="593" type="line"/>
      <point x="770" y="579" type="line"/>
      <point x="893" y="579" type="line"/>
      <point x="902" y="622" type="line"/>
      <point x="864" y="650"/>
      <point x="819" y="666"/>
      <point x="777" y="666" type="curve"/>
      <point x="718" y="666"/>
      <point x="680" y="631"/>
      <point x="668" y="567" type="curve"/>
      <point x="647" y="457" type="line" smooth="yes"/>
      <point x="633" y="386"/>
      <point x="607" y="313"/>
      <point x="588" y="295" type="curve"/>
      <point x="562" y="279"/>
      <point x="536" y="273"/>
      <point x="497" y="270" type="curve"/>
      <point x="418" y="270" type="line"/>
      <point x="327" y="278"/>
      <point x="284" y="323"/>
      <point x="259" y="457" type="curve"/>
      <point x="239" y="567" type="line" smooth="yes"/>
      <point x="227" y="631"/>
      <point x="187" y="666"/>
      <point x="125" y="666" type="curve"/>
      <point x="83" y="666"/>
      <point x="38" y="650"/>
      <point x="0" y="622" type="curve"/>
      <point x="9" y="579" type="line"/>
      <point x="132" y="579" type="line"/>
      <point x="90" y="593" type="line"/>
      <point x="126" y="420" type="line" smooth="yes"/>
      <point x="155" y="280"/>
      <point x="248" y="209"/>
    </contour>
    <contour>
      <point x="289" y="32" type="curve"/>
      <point x="295" y="0" type="line"/>
      <point x="389" y="0" type="line"/>
      <point x="388" y="79" type="line"/>
      <point x="344" y="62"/>
      <point x="315" y="48"/>
    </contour>
    <contour>
      <point x="482" y="71" type="line"/>
      <point x="479" y="0" type="line"/>
      <point x="619" y="0" type="line"/>
      <point x="620" y="51" type="line"/>
    </contour>
    <contour>
      <point x="375" y="658" type="line"/>
      <point x="375" y="0" type="line"/>
      <point x="527" y="0" type="line"/>
      <point x="527" y="658" type="line"/>
    </contour>
    <contour>
      <point x="298" y="607" type="line"/>
      <point x="436" y="587" type="line"/>
      <point x="439" y="658" type="line"/>
      <point x="299" y="658" type="line"/>
    </contour>
    <contour>
      <point x="512" y="658" type="line"/>
      <point x="513" y="579" type="line"/>
      <point x="549" y="594"/>
      <point x="574" y="607"/>
      <point x="609" y="626" type="curve"/>
      <point x="603" y="658" type="line"/>
    </contour>
  </outline>
</glyph>
<glyph name="alpha" format="1">
  <advance width="576"/>
  <unicode hex="03B1"/>
  <outline>
    <contour>
      <point x="202" y="-14" type="curve"/>
      <point x="270" y="-14"/>
      <point x="328" y="36"/>
      <point x="382" y="141" type="curve"/>
      <point x="333" y="118" type="line"/>
      <point x="399" y="118" type="line"/>
      <point x="366" y="164" type="line"/>
      <point x="370" y="61"/>
      <point x="414" y="-14"/>
      <point x="471" y="-14" type="curve"/>
      <point x="512" y="-14"/>
      <point x="563" y="35"/>
      <point x="580" y="89" type="curve"/>
      <point x="563" y="126" type="line"/>
      <point x="420" y="110" type="line"/>
      <point x="436" y="79" type="line"/>
      <point x="523" y="459" type="line"/>
      <point x="501" y="482"/>
      <point x="452" y="499"/>
      <point x="408" y="501" type="curve"/>
      <point x="374" y="477" type="line"/>
      <point x="361" y="355" type="line"/>
      <point x="364" y="332" type="line"/>
      <point x="357" y="289" type="line" smooth="yes"/>
      <point x="342" y="195"/>
      <point x="278" y="133"/>
      <point x="195" y="133" type="curve"/>
      <point x="164" y="133"/>
      <point x="138" y="139"/>
      <point x="114" y="151" type="curve"/>
      <point x="107" y="164"/>
      <point x="104" y="184"/>
      <point x="104" y="207" type="curve"/>
      <point x="104" y="294"/>
      <point x="161" y="350"/>
      <point x="249" y="350" type="curve"/>
      <point x="301" y="350"/>
      <point x="348" y="331"/>
      <point x="382" y="299" type="curve"/>
      <point x="373" y="347" type="line"/>
      <point x="353" y="438"/>
      <point x="290" y="497"/>
      <point x="213" y="497" type="curve"/>
      <point x="109" y="497"/>
      <point x="24" y="379"/>
      <point x="24" y="236" type="curve"/>
      <point x="24" y="95"/>
      <point x="101" y="-14"/>
    </contour>
    <contour>
      <point x="239" y="0" type="move" name="bottom"/>
    </contour>
    <contour>
      <point x="299" y="471" type="move" name="top"/>
    </contour>
  </outline>
</glyph>
<glyph name="beta" format="1">
  <advance width="528"/>
  <unicode hex="03B2"/>
  <outline>
    <contour>
      <point x="36" y="-204" type="line"/>
      <point x="65" y="-224" type="line"/>
      <point x="115" y="-222"/>
      <point x="171" y="-208"/>
      <point x="198" y="-192" type="curve"/>
      <point x="116" y="104" type="line"/>
      <point x="132" y="128" type="line"/>
      <point x="129" y="148"/>
      <point x="127" y="173"/>
      <point x="127" y="207" type="curve"/>
      <point x="127" y="384" type="line" smooth="yes"/>
      <point x="127" y="518"/>
      <point x="185" y="590"/>
      <point x="295" y="590" type="curve"/>
      <point x="327" y="590"/>
      <point x="358" y="585"/>
      <point x="378" y="573" type="curve"/>
      <point x="383" y="562"/>
      <point x="386" y="549"/>
      <point x="386" y="532" type="curve"/>
      <point x="386" y="453"/>
      <point x="319" y="400"/>
      <point x="222" y="399" type="curve"/>
      <point x="280" y="361" type="line"/>
      <point x="396" y="371"/>
      <point x="472" y="436"/>
      <point x="472" y="527" type="curve"/>
      <point x="472" y="647"/>
      <point x="387" y="735"/>
      <point x="271" y="735" type="curve"/>
      <point x="132" y="735"/>
      <point x="46" y="628"/>
      <point x="46" y="453" type="curve"/>
      <point x="46" y="238" type="line" smooth="yes"/>
      <point x="46" y="142"/>
      <point x="46" y="79"/>
      <point x="43" y="3" type="curve"/>
    </contour>
    <contour>
      <point x="302" y="-20" type="curve"/>
      <point x="415" y="-20"/>
      <point x="505" y="76"/>
      <point x="505" y="199" type="curve"/>
      <point x="505" y="297"/>
      <point x="442" y="365"/>
      <point x="327" y="393" type="curve"/>
      <point x="249" y="317" type="line"/>
      <point x="339" y="309"/>
      <point x="410" y="274"/>
      <point x="425" y="230" type="curve"/>
      <point x="420" y="174"/>
      <point x="359" y="127"/>
      <point x="253" y="127" type="curve"/>
      <point x="199" y="127"/>
      <point x="147" y="137"/>
      <point x="120" y="155" type="curve"/>
      <point x="99" y="115" type="line"/>
      <point x="136" y="36"/>
      <point x="221" y="-20"/>
    </contour>
    <contour>
      <point x="186" y="310" type="curve"/>
      <point x="214" y="290" type="line"/>
      <point x="357" y="329" type="line"/>
      <point x="337" y="410" type="line"/>
      <point x="179" y="420" type="line"/>
      <point x="174" y="388"/>
      <point x="178" y="340"/>
    </contour>
  </outline>
</glyph>
<glyph name="gamma" format="1">
  <advance width="526"/>
  <unicode hex="03B3"/>
  <outline>
    <contour>
      <point x="164" y="-200" type="line"/>
      <point x="203" y="-224" type="line"/>
      <point x="248" y="-224"/>
      <point x="295" y="-217"/>
      <point x="331" y="-204" type="curve"/>
      <point x="294" y="10" type="line"/>
      <point x="283" y="-24" type="line"/>
      <point x="407" y="68"/>
      <point x="503" y="254"/>
      <point x="503" y="388" type="curve"/>
      <point x="503" y="419"/>
      <point x="501" y="438"/>
      <point x="497" y="459" type="curve"/>
      <point x="468" y="478"/>
      <point x="425" y="489"/>
      <point x="371" y="491" type="curve"/>
      <point x="350" y="456" type="line"/>
      <point x="357" y="423"/>
      <point x="361" y="391"/>
      <point x="361" y="352" type="curve"/>
      <point x="361" y="222"/>
      <point x="299" y="87"/>
      <point x="220" y="44" type="curve"/>
      <point x="241" y="49" type="line"/>
      <point x="272" y="185" type="line"/>
      <point x="250" y="386"/>
      <point x="195" y="491"/>
      <point x="112" y="491" type="curve"/>
      <point x="67" y="491"/>
      <point x="18" y="453"/>
      <point x="-11" y="399" type="curve"/>
      <point x="7" y="353" type="line"/>
      <point x="97" y="361" type="line"/>
      <point x="120" y="313"/>
      <point x="139" y="254"/>
      <point x="161" y="166" type="curve"/>
      <point x="210" y="-31" type="line"/>
      <point x="207" y="31" type="line"/>
    </contour>
    <contour>
      <point x="197" y="55" type="line"/>
      <point x="216" y="20" type="line"/>
      <point x="277" y="51" type="line"/>
      <point x="217" y="82" type="line"/>
    </contour>
  </outline>
</glyph>
<glyph name="delta" format="1">
  <advance width="493"/>
  <unicode hex="03B4"/>
  <outline>
    <contour>
      <point x="244" y="-20" type="curve"/>
      <point x="376" y="-20"/>
      <point x="471" y="89"/>
      <point x="471" y="240" type="curve"/>
      <point x="471" y="484"/>
      <point x="164" y="499"/>
      <point x="128" y="571" type="curve"/>
      <point x="132" y="598"/>
      <point x="162" y="615"/>
      <point x="206" y="615" type="curve"/>
      <point x="263" y="615"/>
      <point x="328" y="590"/>
      <point x="413" y="535" type="curve"/>
      <point x="442" y="544" type="line"/>
      <point x="455" y="570"/>
      <point x="470" y="627"/>
      <point x="471" y="655" type="curve"/>
      <point x="445" y="676"/>
      <point x="405" y="697"/>
      <point x="362" y="713" type="curve"/>
      <point x="320" y="728"/>
      <point x="279" y="735"/>
      <point x="239" y="735" type="curve"/>
      <point x="137" y="735"/>
      <point x="68" y="675"/>
      <point x="68" y="587" type="curve"/>
      <point x="68" y="505"/>
      <point x="116" y="439"/>
      <point x="207" y="395" type="curve"/>
      <point x="246" y="361" type="line"/>
      <point x="337" y="325"/>
      <point x="376" y="301"/>
      <point x="400" y="266" type="curve"/>
      <point x="392" y="185"/>
      <point x="313" y="127"/>
      <point x="211" y="127" type="curve"/>
      <point x="176" y="127"/>
      <point x="144" y="132"/>
      <point x="119" y="143" type="curve"/>
      <point x="108" y="157"/>
      <point x="103" y="177"/>
      <point x="103" y="201" type="curve"/>
      <point x="103" y="274"/>
      <point x="183" y="328"/>
      <point x="326" y="338" type="curve"/>
      <point x="183" y="414" type="line"/>
      <point x="86" y="397"/>
      <point x="24" y="320"/>
      <point x="24" y="215" type="curve"/>
      <point x="24" y="80"/>
      <point x="118" y="-20"/>
    </contour>
  </outline>
</glyph>
<glyph name="epsilon" format="1">
  <advance width="471"/>
  <unicode hex="03B5"/>
  <outline>
    <contour>
      <point x="244" y="-14" type="curve"/>
      <point x="328" y="-14"/>
      <point x="421" y="28"/>
      <point x="466" y="88" type="curve"/>
      <point x="442" y="136" type="line"/>
      <point x="375" y="113"/>
      <point x="321" y="103"/>
      <point x="244" y="103" type="curve"/>
      <point x="179" y="103"/>
      <point x="118" y="121"/>
      <point x="101" y="146" type="curve"/>
      <point x="116" y="172"/>
      <point x="163" y="197"/>
      <point x="202" y="201" type="curve"/>
      <point x="342" y="178" type="line"/>
      <point x="351" y="205"/>
      <point x="354" y="254"/>
      <point x="348" y="282" type="curve"/>
      <point x="327" y="300" type="line"/>
      <point x="182" y="265" type="line"/>
      <point x="174" y="256" type="line"/>
      <point x="91" y="243"/>
      <point x="29" y="192"/>
      <point x="29" y="136" type="curve"/>
      <point x="29" y="47"/>
      <point x="117" y="-14"/>
    </contour>
    <contour>
      <point x="172" y="237" type="curve"/>
      <point x="238" y="228" type="line"/>
      <point x="232" y="262" type="line"/>
      <point x="180" y="265"/>
      <point x="127" y="291"/>
      <point x="115" y="322" type="curve"/>
      <point x="134" y="354"/>
      <point x="187" y="373"/>
      <point x="259" y="373" type="curve"/>
      <point x="322" y="373"/>
      <point x="362" y="365"/>
      <point x="418" y="341" type="curve"/>
      <point x="444" y="357" type="line"/>
      <point x="449" y="395"/>
      <point x="446" y="438"/>
      <point x="436" y="468" type="curve"/>
      <point x="407" y="485"/>
      <point x="341" y="497"/>
      <point x="269" y="497" type="curve"/>
      <point x="132" y="497"/>
      <point x="37" y="436"/>
      <point x="37" y="349" type="curve"/>
      <point x="37" y="287"/>
      <point x="90" y="243"/>
    </contour>
    <contour>
      <point x="269" y="471" type="move" name="top"/>
    </contour>
  </outline>
</glyph>
<glyph name="zeta" format="1">
  <advance width="399"/>
  <unicode hex="03B6"/>
  <outline>
    <contour>
      <point x="224" y="-139" type="line"/>
      <point x="276" y="-182" type="line"/>
      <point x="369" y="-109"/>
      <point x="404" y="-56"/>
      <point x="404" y="3" type="curve"/>
      <point x="404" y="49"/>
      <point x="388" y="79"/>
      <point x="348" y="103" type="curve"/>
      <point x="327" y="116"/>
      <point x="298" y="127"/>
      <point x="221" y="151" type="curve"/>
      <point x="138" y="178"/>
      <point x="114" y="187"/>
      <point x="96" y="202" type="curve"/>
      <point x="119" y="343"/>
      <point x="264" y="496"/>
      <point x="423" y="547" type="curve"/>
      <point x="439" y="583" type="line"/>
      <point x="428" y="621"/>
      <point x="392" y="670"/>
      <point x="362" y="689" type="curve"/>
      <point x="190" y="625"/>
      <point x="29" y="406"/>
      <point x="29" y="237" type="curve"/>
      <point x="29" y="183"/>
      <point x="39" y="143"/>
      <point x="60" y="105" type="curve"/>
      <point x="86" y="60"/>
      <point x="130" y="30"/>
      <point x="201" y="6" type="curve"/>
      <point x="273" y="-18"/>
      <point x="305" y="-31"/>
      <point x="346" y="-50" type="curve"/>
      <point x="330" y="-17" type="line"/>
    </contour>
    <contour>
      <point x="185" y="578" type="curve"/>
      <point x="196" y="562" type="line"/>
      <point x="287" y="629" type="line"/>
      <point x="214" y="629"/>
      <point x="168" y="635"/>
      <point x="140" y="646" type="curve"/>
      <point x="76" y="736" type="line"/>
      <point x="19" y="718" type="line"/>
      <point x="-5" y="586"/>
      <point x="43" y="545"/>
    </contour>
  </outline>
</glyph>
<glyph name="eta" format="1">
  <advance width="545"/>
  <unicode hex="03B7"/>
  <outline>
    <contour>
      <point x="467" y="-224" type="curve"/>
      <point x="504" y="-204" type="line"/>
      <point x="505" y="231" type="line" smooth="yes"/>
      <point x="506" y="408"/>
      <point x="456" y="497"/>
      <point x="355" y="497" type="curve"/>
      <point x="275" y="497"/>
      <point x="214" y="429"/>
      <point x="193" y="317" type="curve"/>
      <point x="189" y="220" type="line"/>
      <point x="208" y="162" type="line"/>
      <point x="226" y="263"/>
      <point x="303" y="356"/>
      <point x="375" y="356" type="curve"/>
      <point x="395" y="356"/>
      <point x="409" y="353"/>
      <point x="418" y="343" type="curve"/>
      <point x="421" y="339"/>
      <point x="422" y="328"/>
      <point x="422" y="309" type="curve"/>
      <point x="422" y="233"/>
      <point x="410" y="135"/>
      <point x="342" y="-195" type="curve"/>
      <point x="376" y="-214"/>
      <point x="418" y="-224"/>
    </contour>
    <contour>
      <point x="88" y="6" type="line"/>
      <point x="96" y="-4" type="line"/>
      <point x="136" y="-9"/>
      <point x="201" y="-8"/>
      <point x="232" y="0" type="curve"/>
      <point x="207" y="220" type="line"/>
      <point x="208" y="341" type="line"/>
      <point x="206" y="392"/>
      <point x="196" y="431"/>
      <point x="179" y="458" type="curve"/>
      <point x="163" y="483"/>
      <point x="142" y="497"/>
      <point x="118" y="497" type="curve"/>
      <point x="77" y="497"/>
      <point x="30" y="456"/>
      <point x="4" y="397" type="curve"/>
      <point x="21" y="358" type="line"/>
      <point x="184" y="370" type="line"/>
      <point x="144" y="419" type="line"/>
    </contour>
    <contour>
      <point x="154" y="0" type="move" name="bottom"/>
    </contour>
    <contour>
      <point x="315" y="471" type="move" name="top"/>
    </contour>
  </outline>
</glyph>
<glyph name="iota" format="1">
  <advance width="293"/>
  <unicode hex="03B9"/>
  <outline>
    <contour>
      <point x="167" y="-14" type="curve"/>
      <point x="221" y="-14"/>
      <point x="276" y="35"/>
      <point x="296" y="92" type="curve"/>
      <point x="279" y="130" type="line"/>
      <point x="96" y="110" type="line"/>
      <point x="131" y="83" type="line"/>
      <point x="224" y="466" type="line"/>
      <point x="190" y="493" type="line"/>
      <point x="130" y="492"/>
      <point x="76" y="479"/>
      <point x="46" y="462" type="curve"/>
      <point x="54" y="187" type="line" smooth="yes"/>
      <point x="58" y="56"/>
      <point x="103" y="-14"/>
    </contour>
    <contour>
      <point x="153" y="471" type="move" name="top"/>
    </contour>
  </outline>
</glyph>
<glyph name="kappa" format="1">
  <advance width="536"/>
  <unicode hex="03BA"/>
  <outline>
    <contour>
      <point x="179" y="-10" type="curve"/>
      <point x="218" y="95"/>
      <point x="261" y="175"/>
      <point x="307" y="222" type="curve"/>
      <point x="357" y="274"/>
      <point x="418" y="318"/>
      <point x="497" y="358" type="curve"/>
      <point x="512" y="393" type="line"/>
      <point x="500" y="439"/>
      <point x="480" y="477"/>
      <point x="457" y="494" type="curve"/>
      <point x="382" y="464"/>
      <point x="316" y="411"/>
      <point x="259" y="337" type="curve"/>
      <point x="212" y="276"/>
      <point x="170" y="188"/>
      <point x="128" y="65" type="curve"/>
      <point x="135" y="54" type="line"/>
      <point x="197" y="467" type="line"/>
      <point x="165" y="491" type="line"/>
      <point x="109" y="491"/>
      <point x="61" y="480"/>
      <point x="32" y="461" type="curve"/>
      <point x="58" y="282" type="line"/>
      <point x="65" y="2" type="line"/>
      <point x="88" y="-10"/>
      <point x="143" y="-16"/>
    </contour>
    <contour>
      <point x="418" y="-16" type="curve"/>
      <point x="460" y="-16"/>
      <point x="507" y="30"/>
      <point x="524" y="87" type="curve"/>
      <point x="506" y="125" type="line"/>
      <point x="358" y="110" type="line"/>
      <point x="406" y="84" type="line"/>
      <point x="376" y="152"/>
      <point x="352" y="226"/>
      <point x="339" y="295" type="curve"/>
      <point x="249" y="232" type="line"/>
      <point x="329" y="69" type="line" smooth="yes"/>
      <point x="359" y="9"/>
      <point x="385" y="-16"/>
    </contour>
  </outline>
</glyph>
<glyph name="mu" format="1">
  <advance width="575"/>
  <unicode hex="03BC"/>
  <outline>
    <contour>
      <point x="45" y="-204" type="line"/>
      <point x="82" y="-224" type="line"/>
      <point x="133" y="-223"/>
      <point x="188" y="-212"/>
      <point x="209" y="-199" type="curve"/>
      <point x="144" y="65" type="line"/>
      <point x="141" y="132" type="line"/>
      <point x="171" y="215" type="line"/>
      <point x="208" y="465" type="line"/>
      <point x="174" y="492" type="line"/>
      <point x="121" y="491"/>
      <point x="64" y="479"/>
      <point x="32" y="462" type="curve"/>
      <point x="93" y="16" type="line"/>
      <point x="79" y="188" type="line"/>
    </contour>
    <contour>
      <point x="261" y="-20" type="curve"/>
      <point x="303" y="-20"/>
      <point x="350" y="21"/>
      <point x="380" y="85" type="curve"/>
      <point x="370" y="161" type="line"/>
      <point x="349" y="137"/>
      <point x="302" y="121"/>
      <point x="255" y="121" type="curve"/>
      <point x="209" y="121"/>
      <point x="154" y="138"/>
      <point x="130" y="159" type="curve"/>
      <point x="126" y="78" type="line"/>
      <point x="151" y="23"/>
      <point x="210" y="-20"/>
    </contour>
    <contour>
      <point x="465" y="-14" type="curve"/>
      <point x="504" y="-14"/>
      <point x="546" y="27"/>
      <point x="569" y="87" type="curve"/>
      <point x="553" y="127" type="line"/>
      <point x="396" y="110" type="line"/>
      <point x="426" y="86" type="line"/>
      <point x="513" y="466" type="line"/>
      <point x="479" y="493" type="line"/>
      <point x="425" y="492"/>
      <point x="368" y="480"/>
      <point x="337" y="463" type="curve"/>
      <point x="360" y="136" type="line"/>
      <point x="360" y="112" type="line"/>
      <point x="372" y="41"/>
      <point x="416" y="-14"/>
    </contour>
  </outline>
</glyph>
<glyph name="nu" format="1">
  <advance width="526"/>
  <unicode hex="03BD"/>
  <outline>
    <contour>
      <point x="290" y="-13" type="curve"/>
      <point x="418" y="88"/>
      <point x="503" y="250"/>
      <point x="503" y="393" type="curve"/>
      <point x="503" y="414"/>
      <point x="501" y="436"/>
      <point x="497" y="459" type="curve"/>
      <point x="468" y="478"/>
      <point x="425" y="489"/>
      <point x="371" y="491" type="curve"/>
      <point x="350" y="456" type="line"/>
      <point x="357" y="422"/>
      <point x="361" y="390"/>
      <point x="361" y="355" type="curve"/>
      <point x="361" y="222"/>
      <point x="306" y="103"/>
      <point x="225" y="57" type="curve"/>
      <point x="241" y="39" type="line"/>
      <point x="272" y="176" type="line"/>
      <point x="247" y="393"/>
      <point x="197" y="491"/>
      <point x="112" y="491" type="curve"/>
      <point x="67" y="491"/>
      <point x="18" y="453"/>
      <point x="-11" y="399" type="curve"/>
      <point x="7" y="353" type="line"/>
      <point x="97" y="361" type="line"/>
      <point x="116" y="316"/>
      <point x="136" y="255"/>
      <point x="154" y="185" type="curve"/>
      <point x="199" y="8" type="line"/>
      <point x="218" y="-8"/>
      <point x="260" y="-17"/>
    </contour>
    <contour>
      <point x="203" y="55" type="line"/>
      <point x="222" y="20" type="line"/>
      <point x="287" y="60" type="line"/>
      <point x="228" y="91" type="line"/>
    </contour>
  </outline>
</glyph>
<glyph name="xi" format="1">
  <advance width="420"/>
  <unicode hex="03BE"/>
  <outline>
    <contour>
      <point x="232" y="-139" type="line"/>
      <point x="283" y="-182" type="line"/>
      <point x="375" y="-110"/>
      <point x="412" y="-57"/>
      <point x="412" y="3" type="curve"/>
      <point x="412" y="47"/>
      <point x="395" y="82"/>
      <point x="356" y="104" type="curve"/>
      <point x="328" y="121"/>
      <point x="288" y="134"/>
      <point x="225" y="150" type="curve"/>
      <point x="128" y="177"/>
      <point x="106" y="184"/>
      <point x="91" y="194" type="curve"/>
      <point x="108" y="236"/>
      <point x="192" y="274"/>
      <point x="270" y="276" type="curve"/>
      <point x="180" y="334" type="line"/>
      <point x="84" y="314"/>
      <point x="28" y="256"/>
      <point x="28" y="197" type="curve"/>
      <point x="28" y="157"/>
      <point x="41" y="117"/>
      <point x="64" y="89" type="curve"/>
      <point x="89" y="56"/>
      <point x="128" y="33"/>
      <point x="208" y="6" type="curve"/>
      <point x="264" y="-11"/>
      <point x="299" y="-25"/>
      <point x="351" y="-49" type="curve"/>
      <point x="336" y="-19" type="line"/>
    </contour>
    <contour>
      <point x="214" y="279" type="line"/>
      <point x="371" y="256" type="line"/>
      <point x="382" y="296"/>
      <point x="387" y="339"/>
      <point x="382" y="372" type="curve"/>
      <point x="353" y="393" type="line"/>
      <point x="181" y="355" type="line"/>
      <point x="169" y="313" type="line"/>
    </contour>
    <contour>
      <point x="188" y="317" type="curve"/>
      <point x="273" y="350" type="line"/>
      <point x="200" y="360"/>
      <point x="146" y="390"/>
      <point x="133" y="423" type="curve"/>
      <point x="159" y="472"/>
      <point x="281" y="528"/>
      <point x="415" y="547" type="curve"/>
      <point x="431" y="584" type="line"/>
      <point x="422" y="616"/>
      <point x="395" y="658"/>
      <point x="362" y="689" type="curve"/>
      <point x="187" y="632"/>
      <point x="47" y="516"/>
      <point x="47" y="429" type="curve"/>
      <point x="47" y="376"/>
      <point x="99" y="335"/>
    </contour>
    <contour>
      <point x="181" y="609" type="curve"/>
      <point x="194" y="591" type="line"/>
      <point x="285" y="651" type="line"/>
      <point x="224" y="650"/>
      <point x="178" y="654"/>
      <point x="136" y="664" type="curve"/>
      <point x="80" y="741" type="line"/>
      <point x="22" y="727" type="line"/>
      <point x="-1" y="598"/>
      <point x="42" y="566"/>
    </contour>
  </outline>
</glyph>
<glyph name="omicron" format="1">
  <advance width="511"/>
  <unicode hex="03BF"/>
  <outline>
    <contour>
      <point x="247" y="-20" type="curve"/>
      <point x="385" y="-20"/>
      <point x="488" y="96"/>
      <point x="488" y="252" type="curve"/>
      <point x="488" y="396"/>
      <point x="396" y="497"/>
      <point x="264" y="497" type="curve"/>
      <point x="126" y="497"/>
      <point x="24" y="381"/>
      <point x="24" y="225" type="curve"/>
      <point x="24" y="81"/>
      <point x="116" y="-20"/>
    </contour>
    <contour>
      <point x="215" y="127" type="curve"/>
      <point x="181" y="127"/>
      <point x="146" y="132"/>
      <point x="119" y="144" type="curve"/>
      <point x="108" y="161"/>
      <point x="103" y="183"/>
      <point x="103" y="207" type="curve"/>
      <point x="103" y="292"/>
      <point x="172" y="350"/>
      <point x="296" y="350" type="curve"/>
      <point x="331" y="350"/>
      <point x="366" y="345"/>
      <point x="392" y="333" type="curve"/>
      <point x="403" y="316"/>
      <point x="409" y="294"/>
      <point x="409" y="269" type="curve"/>
      <point x="409" y="185"/>
      <point x="339" y="127"/>
    </contour>
    <contour>
      <point x="280" y="471" type="move" name="top"/>
    </contour>
  </outline>
</glyph>
<glyph name="tau" format="1">
  <advance width="550"/>
  <unicode hex="03C4"/>
  <outline>
    <contour>
      <point x="324" y="-14" type="curve"/>
      <point x="378" y="-14"/>
      <point x="436" y="32"/>
      <point x="456" y="92" type="curve"/>
      <point x="439" y="130" type="line"/>
      <point x="254" y="110" type="line"/>
      <point x="294" y="84" type="line"/>
      <point x="336" y="400" type="line"/>
      <point x="205" y="397" type="line"/>
      <point x="215" y="186" type="line" smooth="yes"/>
      <point x="219" y="63"/>
      <point x="259" y="-14"/>
    </contour>
    <contour>
      <point x="-7" y="345" type="curve"/>
      <point x="20" y="309" type="line"/>
      <point x="103" y="346" type="line"/>
      <point x="512" y="342" type="line"/>
      <point x="536" y="370" type="line"/>
      <point x="539" y="407"/>
      <point x="528" y="467"/>
      <point x="512" y="496" type="curve"/>
      <point x="337" y="475" type="line"/>
      <point x="121" y="475" type="line"/>
      <point x="67" y="463"/>
      <point x="19" y="413"/>
    </contour>
  </outline>
</glyph>
<glyph name="upsilon" format="1">
  <advance width="525"/>
  <unicode hex="03C5"/>
  <outline>
    <contour>
      <point x="278" y="-20" type="curve"/>
      <point x="409" y="-20"/>
      <point x="502" y="93"/>
      <point x="502" y="240" type="curve"/>
      <point x="502" y="314"/>
      <point x="481" y="390"/>
      <point x="443" y="453" type="curve"/>
      <point x="423" y="469"/>
      <point x="390" y="484"/>
      <point x="359" y="491" type="curve"/>
      <point x="335" y="461" type="line"/>
      <point x="362" y="405"/>
      <point x="377" y="342"/>
      <point x="377" y="281" type="curve"/>
      <point x="377" y="176"/>
      <point x="335" y="124"/>
      <point x="247" y="124" type="curve"/>
      <point x="209" y="124"/>
      <point x="177" y="133"/>
      <point x="159" y="149" type="curve"/>
      <point x="207" y="202" type="line"/>
      <point x="224" y="278"/>
      <point x="233" y="328"/>
      <point x="233" y="364" type="curve"/>
      <point x="233" y="439"/>
      <point x="182" y="491"/>
      <point x="128" y="491" type="curve"/>
      <point x="84" y="491"/>
      <point x="29" y="452"/>
      <point x="0" y="399" type="curve"/>
      <point x="19" y="353" type="line"/>
      <point x="147" y="369" type="line"/>
      <point x="138" y="433" type="line"/>
      <point x="89" y="267"/>
      <point x="79" y="230"/>
      <point x="79" y="177" type="curve"/>
      <point x="79" y="68"/>
      <point x="162" y="-20"/>
    </contour>
    <contour>
      <point x="274" y="471" type="move" name="top"/>
    </contour>
  </outline>
</glyph>
<glyph name="phi" format="1">
  <advance width="674"/>
  <unicode hex="03C6"/>
  <outline>
    <contour>
      <point x="252" y="-204" type="line"/>
      <point x="287" y="-224" type="line"/>
      <point x="333" y="-223"/>
      <point x="389" y="-213"/>
      <point x="419" y="-199" type="curve"/>
      <point x="369" y="-4" type="line"/>
      <point x="369" y="51" type="line"/>
      <point x="369" y="185" type="line" smooth="yes"/>
      <point x="369" y="295"/>
      <point x="407" y="346"/>
      <point x="485" y="346" type="curve"/>
      <point x="518" y="346"/>
      <point x="544" y="340"/>
      <point x="559" y="327" type="curve"/>
      <point x="568" y="314"/>
      <point x="572" y="293"/>
      <point x="572" y="267" type="curve"/>
      <point x="572" y="177"/>
      <point x="488" y="124"/>
      <point x="335" y="124" type="curve"/>
      <point x="312" y="124" type="line"/>
      <point x="227" y="124"/>
      <point x="160" y="135"/>
      <point x="116" y="156" type="curve"/>
      <point x="107" y="169"/>
      <point x="103" y="187"/>
      <point x="103" y="212" type="curve"/>
      <point x="103" y="280"/>
      <point x="149" y="323"/>
      <point x="242" y="341" type="curve"/>
      <point x="263" y="369" type="line"/>
      <point x="261" y="417"/>
      <point x="247" y="468"/>
      <point x="226" y="496" type="curve"/>
      <point x="106" y="471"/>
      <point x="24" y="365"/>
      <point x="24" y="232" type="curve"/>
      <point x="24" y="81"/>
      <point x="146" y="-20"/>
      <point x="329" y="-20" type="curve"/>
      <point x="529" y="-20"/>
      <point x="651" y="88"/>
      <point x="651" y="255" type="curve"/>
      <point x="651" y="387"/>
      <point x="560" y="494"/>
      <point x="446" y="494" type="curve"/>
      <point x="344" y="494"/>
      <point x="288" y="409"/>
      <point x="288" y="257" type="curve"/>
      <point x="288" y="59" type="line"/>
      <point x="289" y="-2" type="line"/>
    </contour>
  </outline>
</glyph>
<glyph name="chi" format="1">
  <advance width="555"/>
  <unicode hex="03C7"/>
  <outline>
    <contour>
      <point x="472" y="-226" type="curve"/>
      <point x="510" y="-226"/>
      <point x="551" y="-185"/>
      <point x="571" y="-124" type="curve"/>
      <point x="555" y="-85" type="line"/>
      <point x="405" y="-101" type="line"/>
      <point x="451" y="-131" type="line"/>
      <point x="342" y="160" type="line"/>
      <point x="286" y="180" type="line"/>
      <point x="284" y="289" type="line"/>
      <point x="239" y="421"/>
      <point x="170" y="491"/>
      <point x="88" y="491" type="curve"/>
      <point x="60" y="491"/>
      <point x="29" y="483"/>
      <point x="-4" y="470" type="curve"/>
      <point x="-2" y="434"/>
      <point x="12" y="385"/>
      <point x="32" y="350" type="curve"/>
      <point x="61" y="339" type="line"/>
      <point x="160" y="381" type="line"/>
      <point x="108" y="386" type="line"/>
      <point x="133" y="355"/>
      <point x="144" y="337"/>
      <point x="170" y="289" type="curve"/>
      <point x="208" y="221"/>
      <point x="226" y="184"/>
      <point x="251" y="129" type="curve"/>
      <point x="273" y="86" type="line"/>
      <point x="372" y="-127" type="line" smooth="yes"/>
      <point x="405" y="-200"/>
      <point x="432" y="-226"/>
    </contour>
    <contour>
      <point x="135" y="-228" type="curve"/>
      <point x="167" y="-208" type="line"/>
      <point x="297" y="92" type="line"/>
      <point x="247" y="167" type="line"/>
      <point x="34" y="-149" type="line"/>
      <point x="45" y="-182"/>
      <point x="94" y="-221"/>
    </contour>
    <contour>
      <point x="269" y="175" type="line"/>
      <point x="307" y="162" type="line"/>
      <point x="324" y="196" type="line"/>
      <point x="273" y="211" type="line"/>
    </contour>
    <contour>
      <point x="278" y="175" type="line"/>
      <point x="340" y="126" type="line"/>
      <point x="550" y="415" type="line"/>
      <point x="537" y="444"/>
      <point x="484" y="486"/>
      <point x="445" y="497" type="curve"/>
      <point x="416" y="483" type="line"/>
    </contour>
  </outline>
</glyph>
<glyph name="psi" format="1">
  <advance width="703"/>
  <unicode hex="03C8"/>
  <outline>
    <contour>
      <point x="372" y="-20" type="curve"/>
      <point x="563" y="-20"/>
      <point x="680" y="86"/>
      <point x="680" y="252" type="curve"/>
      <point x="680" y="324"/>
      <point x="660" y="394"/>
      <point x="621" y="453" type="curve"/>
      <point x="601" y="470"/>
      <point x="568" y="484"/>
      <point x="537" y="491" type="curve"/>
      <point x="513" y="461" type="line"/>
      <point x="540" y="407"/>
      <point x="555" y="352"/>
      <point x="555" y="297" type="curve"/>
      <point x="555" y="170"/>
      <point x="489" y="124"/>
      <point x="386" y="124" type="curve"/>
      <point x="356" y="124" type="line"/>
      <point x="259" y="124"/>
      <point x="201" y="140"/>
      <point x="160" y="162" type="curve"/>
      <point x="208" y="214" type="line"/>
      <point x="226" y="291"/>
      <point x="233" y="335"/>
      <point x="233" y="364" type="curve"/>
      <point x="233" y="434"/>
      <point x="186" y="491"/>
      <point x="128" y="491" type="curve"/>
      <point x="83" y="491"/>
      <point x="28" y="451"/>
      <point x="0" y="399" type="curve"/>
      <point x="19" y="353" type="line"/>
      <point x="146" y="369" type="line"/>
      <point x="137" y="433" type="line"/>
      <point x="90" y="285"/>
      <point x="79" y="245"/>
      <point x="79" y="188" type="curve"/>
      <point x="79" y="63"/>
      <point x="198" y="-20"/>
    </contour>
    <contour>
      <point x="288" y="-203" type="line"/>
      <point x="320" y="-224" type="line"/>
      <point x="370" y="-224"/>
      <point x="426" y="-219"/>
      <point x="454" y="-207" type="curve"/>
      <point x="407" y="4" type="line"/>
      <point x="404" y="80" type="line"/>
      <point x="457" y="688" type="line"/>
      <point x="419" y="707" type="line"/>
      <point x="378" y="706"/>
      <point x="341" y="699"/>
      <point x="296" y="682" type="curve"/>
      <point x="327" y="92" type="line"/>
      <point x="324" y="3" type="line"/>
    </contour>
  </outline>
</glyph>
<glyph name="omega" format="1">
  <advance width="689"/>
  <unicode hex="03C9"/>
  <outline>
    <contour>
      <point x="192" y="-20" type="curve"/>
      <point x="274" y="-20"/>
      <point x="336" y="44"/>
      <point x="364" y="156" type="curve"/>
      <point x="322" y="201" type="line"/>
      <point x="307" y="149"/>
      <point x="260" y="122"/>
      <point x="183" y="122" type="curve"/>
      <point x="154" y="122"/>
      <point x="129" y="129"/>
      <point x="112" y="142" type="curve"/>
      <point x="103" y="155"/>
      <point x="99" y="171"/>
      <point x="99" y="191" type="curve"/>
      <point x="99" y="251"/>
      <point x="142" y="308"/>
      <point x="214" y="337" type="curve"/>
      <point x="229" y="373" type="line"/>
      <point x="225" y="411"/>
      <point x="191" y="470"/>
      <point x="161" y="490" type="curve"/>
      <point x="78" y="433"/>
      <point x="24" y="321"/>
      <point x="24" y="206" type="curve"/>
      <point x="24" y="75"/>
      <point x="94" y="-20"/>
    </contour>
    <contour>
      <point x="273" y="338" type="curve"/>
      <point x="309" y="122" type="line"/>
      <point x="378" y="124" type="line"/>
      <point x="420" y="319" type="line"/>
      <point x="400" y="350" type="line"/>
      <point x="358" y="355"/>
      <point x="308" y="351"/>
    </contour>
    <contour>
      <point x="498" y="-20" type="curve"/>
      <point x="596" y="-20"/>
      <point x="666" y="72"/>
      <point x="666" y="200" type="curve"/>
      <point x="666" y="286"/>
      <point x="630" y="382"/>
      <point x="573" y="449" type="curve"/>
      <point x="548" y="467"/>
      <point x="522" y="479"/>
      <point x="488" y="489" type="curve"/>
      <point x="470" y="458" type="line"/>
      <point x="519" y="388"/>
      <point x="541" y="320"/>
      <point x="542" y="238" type="curve"/>
      <point x="542" y="166"/>
      <point x="516" y="124"/>
      <point x="468" y="124" type="curve"/>
      <point x="421" y="124"/>
      <point x="379" y="153"/>
      <point x="363" y="198" type="curve"/>
      <point x="328" y="125" type="line"/>
      <point x="349" y="35"/>
      <point x="413" y="-20"/>
    </contour>
    <contour>
      <point x="344" y="0" type="move" name="bottom"/>
    </contour>
    <contour>
      <point x="355" y="471" type="move" name="top"/>
    </contour>
  </outline>
</glyph>
<glyph name="dvCandrabinduInverted" format="1">
  <advance width="0"/>
  <unicode hex="0900"/>
  <outline>
    <contour>
      <point x="-335" y="782" type="line"/>
      <point x="-320" y="858"/>
      <point x="-270" y="894"/>
      <point x="-216" y="894" type="curve" smooth="yes"/>
      <point x="-164" y="894"/>
      <point x="-108" y="861"/>
      <point x="-66" y="782" type="curve"/>
      <point x="-8" y="831" type="line"/>
      <point x="-63" y="948"/>
      <point x="-164" y="1006"/>
      <point x="-252" y="1006" type="curve" smooth="yes"/>
      <point x="-348" y="1006"/>
      <point x="-421" y="938"/>
      <point x="-440" y="835" type="curve"/>
    </contour>
    <contour>
      <point x="-228" y="830"/>
      <point x="-270" y="798"/>
      <point x="-289" y="772" type="curve"/>
      <point x="-272" y="737"/>
      <point x="-244" y="700"/>
      <point x="-217" y="684" type="curve"/>
      <point x="-185" y="696"/>
      <point x="-148" y="730"/>
      <point x="-130" y="753" type="curve"/>
      <point x="-142" y="785"/>
      <point x="-172" y="823"/>
      <point x="-199" y="841" type="curve"/>
    </contour>
    <contour>
      <point x="-216" y="660" type="move" name="_abvmCANDRABINDU"/>
    </contour>
  </outline>
</glyph>
<glyph name="dvCandrabindu" format="1">
  <advance width="0"/>
  <unicode hex="0901"/>
  <outline>
    <contour>
      <point x="-96" y="907" type="line"/>
      <point x="-111" y="831"/>
      <point x="-161" y="795"/>
      <point x="-215" y="795" type="curve" smooth="yes"/>
      <point x="-267" y="795"/>
      <point x="-323" y="828"/>
      <point x="-365" y="908" type="curve"/>
      <point x="-423" y="858" type="line"/>
      <point x="-368" y="742"/>
      <point x="-267" y="684"/>
      <point x="-179" y="684" type="curve" smooth="yes"/>
      <point x="-83" y="684"/>
      <point x="-10" y="752"/>
      <point x="10" y="854" type="curve"/>
    </contour>
    <contour>
      <point x="-182" y="860"/>
      <point x="-152" y="898"/>
      <point x="-140" y="930" type="curve"/>
      <point x="-158" y="953"/>
      <point x="-195" y="987"/>
      <point x="-227" y="999" type="curve"/>
      <point x="-254" y="983"/>
      <point x="-282" y="946"/>
      <point x="-299" y="911" type="curve"/>
      <point x="-280" y="885"/>
      <point x="-238" y="853"/>
      <point x="-209" y="842" type="curve"/>
    </contour>
    <contour>
      <point x="-181" y="660" type="move" name="_abvmCANDRABINDU"/>
    </contour>
  </outline>
</glyph>
<glyph name="dvAnusvara" format="1">
  <advance width="0"/>
  <unicode hex="0902"/>
  <outline>
    <contour>
      <point x="29" y="733"/>
      <point x="62" y="774"/>
      <point x="75" y="809" type="curve"/>
      <point x="56" y="834"/>
      <point x="16" y="871"/>
      <point x="-20" y="885" type="curve"/>
      <point x="-49" y="867"/>
      <point x="-80" y="827"/>
      <point x="-99" y="788" type="curve"/>
      <point x="-79" y="760"/>
      <point x="-32" y="725"/>
      <point x="-1" y="713" type="curve"/>
    </contour>
    <contour>
      <point x="0" y="660" type="move" name="_abvmBINDU"/>
    </contour>
  </outline>
</glyph>
<glyph name="dvShortA" format="1">
  <advance width="820"/>
  <unicode hex="0904"/>
  <outline>
    <component base="dvA"/>
    <component base="dvMatraShortE" xOffset="811"/>
    <contour>
      <point x="794" y="640" type="move" name="abvmBINDU"/>
    </contour>
  </outline>
</glyph>
<glyph name="dvA" format="1">
  <advance width="820"/>
  <unicode hex="0905"/>
  <outline>
    <contour>
      <point x="17" y="273" type="line"/>
      <point x="122" y="47"/>
      <point x="246" y="2"/>
      <point x="332" y="2" type="curve" smooth="yes"/>
      <point x="449" y="2"/>
      <point x="510" y="84"/>
      <point x="510" y="170" type="curve" smooth="yes"/>
      <point x="510" y="241"/>
      <point x="469" y="328"/>
      <point x="359" y="376" type="curve"/>
      <point x="322" y="401" type="line"/>
      <point x="272" y="410"/>
      <point x="208" y="391"/>
      <point x="165" y="355" type="curve"/>
      <point x="240" y="238" type="line"/>
      <point x="382" y="320" type="line"/>
      <point x="294" y="303" type="line"/>
      <point x="371" y="307"/>
      <point x="401" y="254"/>
      <point x="401" y="211" type="curve" smooth="yes"/>
      <point x="401" y="165"/>
      <point x="365" y="117"/>
      <point x="295" y="117" type="curve" smooth="yes"/>
      <point x="209" y="117"/>
      <point x="144" y="189"/>
      <point x="85" y="316" type="curve"/>
    </contour>
    <contour>
      <point x="168" y="464" type="line"/>
      <point x="226" y="520"/>
      <point x="299" y="557"/>
      <point x="351" y="552" type="curve"/>
      <point x="361" y="544"/>
      <point x="368" y="529"/>
      <point x="368" y="513" type="curve" smooth="yes"/>
      <point x="368" y="468"/>
      <point x="323" y="408"/>
      <point x="229" y="378" type="curve"/>
      <point x="360" y="318" type="line"/>
      <point x="435" y="355"/>
      <point x="472" y="422"/>
      <point x="472" y="475" type="curve" smooth="yes"/>
      <point x="472" y="555"/>
      <point x="387" y="650"/>
      <point x="281" y="650" type="curve" smooth="yes"/>
      <point x="211" y="650"/>
      <point x="143" y="609"/>
      <point x="95" y="561" type="curve"/>
    </contour>
    <contour>
      <point x="397" y="296" type="line"/>
      <point x="494" y="217"/>
      <point x="566" y="200"/>
      <point x="614" y="224" type="curve"/>
      <point x="619" y="364" type="line"/>
      <point x="586" y="313"/>
      <point x="479" y="293"/>
      <point x="406" y="359" type="curve"/>
    </contour>
    <contour>
      <point x="850" y="538" type="line"/>
      <point x="867" y="573" type="line"/>
      <point x="820" y="639" type="line"/>
      <point x="492" y="639" type="line"/>
      <point x="475" y="605" type="line"/>
      <point x="523" y="538" type="line"/>
    </contour>
    <contour>
      <point x="605" y="14" type="line"/>
      <point x="701" y="-40" type="line"/>
      <point x="740" y="-23" type="line"/>
      <point x="740" y="493" type="line"/>
      <point x="651" y="560" type="line"/>
      <point x="605" y="581" type="line"/>
    </contour>
    <contour>
      <point x="668" y="650" type="move" name="abvmBINDU"/>
    </contour>
    <contour>
      <point x="650" y="650" type="move" name="abvmCANDRABINDU"/>
    </contour>
  </outline>
</glyph>
<glyph name="dvAa" format="1">
  <advance width="1110"/>
  <unicode hex="0906"/>
  <outline>
    <component base="dvA"/>
    <component base="dvMatraAa" xOffset="820"/>
    <contour>
      <point x="818" y="650" type="move" name="abvmBINDU"/>
    </contour>
    <contour>
      <point x="810" y="650" type="move" name="abvmCANDRABINDU"/>
    </contour>
  </outline>
</glyph>
